<svg id="eJ6O3uLaZbp1" xmlns="http://www.w3.org/2000/svg" xmlns:xlink="http://www.w3.org/1999/xlink" viewBox="0 0 141 101" shape-rendering="geometricPrecision" text-rendering="geometricPrecision"><style><![CDATA[#eJ6O3uLaZbp7_to {animation: eJ6O3uLaZbp7_to__to 2000ms linear infinite normal forwards}@keyframes eJ6O3uLaZbp7_to__to { 0% {transform: translate(119.292114px,45.121489px)} 50% {transform: translate(113.625269px,44.796127px)} 100% {transform: translate(119.292114px,45.121489px)}} #eJ6O3uLaZbp13_ts {animation: eJ6O3uLaZbp13_ts__ts 2000ms linear infinite normal forwards}@keyframes eJ6O3uLaZbp13_ts__ts { 0% {transform: translate(146.980002px,17.367749px) scale(1,1)} 50% {transform: translate(146.980002px,17.367749px) scale(1.223845,0.95)} 100% {transform: translate(146.980002px,17.367749px) scale(1,1)}} #eJ6O3uLaZbp16_tr {animation: eJ6O3uLaZbp16_tr__tr 2000ms linear infinite normal forwards}@keyframes eJ6O3uLaZbp16_tr__tr { 0% {transform: translate(154.69169px,15.806143px) rotate(0deg)} 50% {transform: translate(154.69169px,15.806143px) rotate(9.391857deg)} 100% {transform: translate(154.69169px,15.806143px) rotate(0deg)}}]]></style><defs><linearGradient id="eJ6O3uLaZbp4-fill" x1="59.44" y1="7.24" x2="14.02" y2="-4.71" spreadMethod="pad" gradientUnits="userSpaceOnUse"><stop id="eJ6O3uLaZbp4-fill-0" offset="0%" stop-color="rgb(244,225,181)"/><stop id="eJ6O3uLaZbp4-fill-1" offset="100%" stop-color="rgb(244,204,111)"/></linearGradient><linearGradient id="eJ6O3uLaZbp5-fill" x1="54.25" y1="27.55" x2="15.2" y2="19.05" spreadMethod="pad" gradientUnits="userSpaceOnUse"><stop id="eJ6O3uLaZbp5-fill-0" offset="0%" stop-color="rgb(244,225,181)"/><stop id="eJ6O3uLaZbp5-fill-1" offset="100%" stop-color="rgb(244,204,111)"/></linearGradient><linearGradient id="eJ6O3uLaZbp6-fill" x1="72.34" y1="55.77" x2="80.31" y2="58.43" spreadMethod="pad" gradientUnits="userSpaceOnUse"><stop id="eJ6O3uLaZbp6-fill-0" offset="0%" stop-color="rgb(244,225,181)"/><stop id="eJ6O3uLaZbp6-fill-1" offset="100%" stop-color="rgb(244,204,111)"/></linearGradient></defs><g id="eJ6O3uLaZbp2" style="isolation:isolate" transform="matrix(0.814413 0 0 0.814413 0.536498 27.348553)"><g id="eJ6O3uLaZbp3"><polygon id="eJ6O3uLaZbp4" points="113.23,23.96 34.53,7.95 41.66,0 120.35,16.01 113.23,23.96" fill="url(#eJ6O3uLaZbp4-fill)" stroke="none" stroke-width="1.333333"/><polygon id="eJ6O3uLaZbp5" points="155.31,53.33 17.27,25.22 24.39,17.27 162.43,45.38 155.31,53.33" fill="url(#eJ6O3uLaZbp5-fill)" stroke="none" stroke-width="1.333333"/><polygon id="eJ6O3uLaZbp6" points="86.3,59.92 0,42.48 7.12,34.53 93.42,51.97 86.3,59.92" fill="url(#eJ6O3uLaZbp6-fill)" stroke="none" stroke-width="1.333333"/></g><g id="eJ6O3uLaZbp7_to" transform="translate(119.292114,45.121489)"><g id="eJ6O3uLaZbp7" transform="translate(-119.292114,-45.121489)"><path id="eJ6O3uLaZbp8" d="M161.61,118.55C161.519595,118.284418,161.594053,117.990506,161.8,117.8C162.074067,117.583893,162.403143,117.448798,162.75,117.41L232.88,102.64L253.48,98.3C254.08,98.17,255.25,97.63,255.84,97.89C256.92,98.36,256.18,99.09,255.21,99.29L184.14,114.29C176.95,115.81,169.76,117.39,162.56,118.84C162.284882,118.935456,161.981821,118.906246,161.73,118.76C161.666978,118.705934,161.624584,118.631744,161.61,118.55Z" transform="matrix(1 0 0 1 -84.559998 -66.540001)" fill="rgb(163,138,119)" stroke="none" stroke-width="1.333333"/><path id="eJ6O3uLaZbp9" d="M156.67,115.46L157.67,114.32C158.08,113.88,158.49,113.45,158.91,113.03C159.252535,112.664546,159.705882,112.422058,160.2,112.34C161.179339,112.164603,162.174692,112.550398,162.78,113.34C163.53,114.4,162.25,115.7,161.68,116.54C161.4,116.97,161.08,117.38,160.78,117.8Q159.49,119.59,158.11,121.32C157.66,121.9,157.19,122.47,156.73,123.04C156.329484,123.583326,155.895299,124.101008,155.43,124.59C154.430338,125.519743,152.890341,125.545625,151.86,124.65C151.290712,123.798852,151.318745,122.681529,151.93,121.86C152.6,120.86,153.32,119.78,154.06,118.77C154.48,118.2,154.92,117.65,155.35,117.1C155.78,116.55,156.21,116,156.67,115.46Z" transform="matrix(1 0 0 1 -84.559998 -66.540001)" fill="rgb(255,255,255)" stroke="none" stroke-width="1.333333"/><path id="eJ6O3uLaZbp10" d="M155.65,124.34C155.339677,124.796099,154.896165,125.145321,154.38,125.34C153.860614,125.534248,153.292332,125.555295,152.76,125.4C152.31764,125.261157,151.940884,124.96615,151.7,124.57C151.331759,123.97132,151.233691,123.244894,151.43,122.57C151.486681,122.32829,151.584798,122.098223,151.72,121.89C152.357028,121.179685,153.355498,120.916309,154.26,121.22C154.780877,121.325393,155.254124,121.595319,155.61,121.99C156.130754,122.682043,156.1469,123.630635,155.65,124.34Z" transform="matrix(1 0 0 1 -84.559998 -66.540001)" fill="rgb(219,220,220)" stroke="none" stroke-width="1.333333"/><path id="eJ6O3uLaZbp11" d="M154.66,123.82C154.504557,124.041171,154.284496,124.208836,154.03,124.3C153.764062,124.389921,153.475938,124.389921,153.21,124.3C152.986421,124.23236,152.796942,124.082207,152.68,123.88C152.493581,123.581622,152.442688,123.2181,152.54,122.88C152.568317,122.75829,152.619196,122.642966,152.69,122.54C153.006846,122.175341,153.513961,122.040639,153.97,122.2C154.233934,122.250212,154.473383,122.387543,154.65,122.59C154.934915,122.949226,154.939037,123.456189,154.66,123.82Z" transform="matrix(1 0 0 1 -84.559998 -66.540001)" fill="rgb(200,201,202)" stroke="none" stroke-width="1.333333"/><path id="eJ6O3uLaZbp12" d="M163.17,117.28C162.167841,117.38956,161.275367,117.963557,160.76,118.83C160.49,119.2,160.22,119.56,159.96,119.93C159.509797,120.802729,158.875121,121.567069,158.1,122.17C157.635527,122.408172,157.121952,122.534854,156.6,122.54C156.02,122.54,155.45,122.54,154.87,122.65C154.45398,122.627912,154.041446,122.73629,153.69,122.96C153.536601,123.067785,153.46193,123.256426,153.5,123.44C153.536674,123.518723,153.595824,123.584832,153.67,123.63C154.178376,123.868339,154.750435,123.93502,155.3,123.82C155.921277,123.765059,156.538936,123.674914,157.15,123.55C157.888919,123.46053,158.58482,123.154333,159.15,122.67C159.581343,122.222447,159.975952,121.740891,160.33,121.23C161.05,120.23,161.81,119.33,162.47,118.33C162.72,118,162.93,117.62,163.17,117.28Z" transform="matrix(1 0 0 1 -84.559998 -66.540001)" fill="rgb(163,138,119)" stroke="none" stroke-width="1.333333"/></g></g><g id="eJ6O3uLaZbp13_ts" transform="translate(146.980002,17.367749) scale(1,1)"><g id="eJ6O3uLaZbp13" transform="translate(-146.980002,-17.367749)"><path id="eJ6O3uLaZbp14" d="M213,106.11C213.152457,106.938246,213.924281,107.503957,214.76,107.4C215.562028,107.264388,216.314035,106.91943,216.94,106.4L218.42,105.4C218.718416,105.240049,218.943959,104.971545,219.05,104.65C219.29,103.4,216.4,103.11,215.56,103.27C214.46,103.44,212.94,105,213,106.11Z" transform="matrix(1 0 0 1 -84.559998 -66.540001)" fill="rgb(245,220,190)" stroke="none" stroke-width="1.333333"/><path id="eJ6O3uLaZbp15" d="M231.07,90.3C230.140807,94.477973,227.799159,98.207659,224.44,100.86C223.49,101.6,222.65,102.31,221.77,103.1C220.936079,103.916158,219.842972,104.414955,218.68,104.51C217.583994,104.459898,216.563131,103.938529,215.88,103.08C215.683356,102.672843,215.630481,102.211068,215.73,101.77C216.011856,100.775094,216.612634,99.900278,217.44,99.28C219.57,97.44,222.79,96.73,224.44,94.38C225.83,92.44,226.18,90.02,226.88,87.8C227.295223,86.216937,228.131502,84.77591,229.3,83.63C229.458953,83.48129,229.64592,83.365711,229.85,83.29C230.058204,83.213202,230.290036,83.235281,230.48,83.35C230.664166,83.488466,230.794865,83.686281,230.85,83.91C231.228949,84.775732,231.462095,85.69818,231.54,86.64C231.507935,87.601792,231.390811,88.558859,231.19,89.5C231.18,89.77,231.13,90,231.07,90.3Z" transform="matrix(1 0 0 1 -84.559998 -66.540001)" fill="rgb(121,106,86)" stroke="none" stroke-width="1.333333"/></g></g><g id="eJ6O3uLaZbp16_tr" transform="translate(154.69169,15.806143) rotate(0)"><g id="eJ6O3uLaZbp16" transform="translate(-154.69169,-15.806143)"><path id="eJ6O3uLaZbp17" d="M249.26,85.56C249.79,86.08,250.26,86.63,250.77,87.2C251.71,88.34,251.67,89.96,251.59,91.36C251.494515,93.012363,251.115664,94.636012,250.47,96.16C249.969598,97.698236,248.817422,98.938197,247.32,99.55C245.78,100,243.8,98.82,244.01,97.24C244.18,95.93,245.39,95.08,246.1,94.07C246.97276,93.031168,247.406748,91.693337,247.31,90.34C246.94,88.2,244.57,87.66,242.8,87.07C242.120938,86.889511,241.453111,86.669128,240.8,86.41C239.458577,85.95884,238.522426,84.742239,238.43,83.33C238.380187,82.538255,238.606359,81.753722,239.07,81.11C239.55,80.44,240.42,80.53,241.18,80.6C242.11593,80.799119,243.009543,81.161303,243.82,81.67C244.699212,82.120186,245.547726,82.627958,246.36,83.19C247.393492,83.894506,248.363809,84.687489,249.26,85.56Z" transform="matrix(1 0 0 1 -84.559998 -66.540001)" fill="rgb(121,106,86)" stroke="none" stroke-width="1.333333"/><path id="eJ6O3uLaZbp18" d="M241.69,98.76C241.534358,98.989241,241.497221,99.27891,241.59,99.54C241.692383,99.724384,241.840457,99.879346,242.02,99.99C242.76029,100.673962,243.743074,101.033956,244.75,100.99C245.276628,100.867458,245.760349,100.604867,246.15,100.23C246.542622,99.949528,246.839394,99.554997,247,99.1C247.44,97.09,242.44,97.49,241.69,98.76Z" transform="matrix(1 0 0 1 -84.559998 -66.540001)" fill="rgb(245,220,190)" stroke="none" stroke-width="1.333333"/></g></g><g id="eJ6O3uLaZbp19"><path id="eJ6O3uLaZbp20" style="mix-blend-mode:multiply" d="M236.51,143.82C232.45,144.29,228.35,145.52,224.27,144.31C222.2,143.7,219.74,142.93,218.2,141.31C216.9715,140.117416,216.508886,138.340206,217,136.7C217.58,135.15,219.14,134.22,220.65,133.54C224.756397,131.765873,229.129517,130.687801,233.59,130.35C235.745021,130.069446,237.930269,130.12003,240.07,130.5C242.773831,131.079384,245.224484,132.500763,247.07,134.56C247.750516,135.211868,248.179033,136.083069,248.28,137.02C248.265896,137.711549,248.046616,138.383312,247.65,138.95C246.44647,140.705857,244.684256,142.002847,242.65,142.63C240.654072,143.254229,238.594616,143.653375,236.51,143.82Z" transform="matrix(1 0 0 1 -84.559998 -66.540001)" opacity="0.3" fill="rgb(159,160,160)" stroke="none" stroke-width="1.333333"/><path id="eJ6O3uLaZbp21" d="M231.36,70.39C231.953179,69.873877,232.68884,69.549629,233.47,69.46C240.26,68.65,239.55,77.2,236.13,80.46C235.319233,81.531009,233.961848,82.035964,232.648228,81.755239C231.334608,81.474515,230.302184,80.45885,230,79.15C229,76.67,229.17,72.32,231.36,70.39Z" transform="matrix(1 0 0 1 -84.559998 -66.540001)" fill="rgb(245,220,190)" stroke="none" stroke-width="1.333333"/><path id="eJ6O3uLaZbp22" d="M237.6,78.43C237.52,78.52,237.43,78.6,237.34,78.69C236.718056,79.23304,235.925435,79.540889,235.1,79.56C234.60983,79.584472,234.126142,79.439719,233.73,79.15C233.435516,78.908588,233.303695,78.52088,233.39,78.15C233.50048,77.825821,233.50048,77.474179,233.39,77.15C233.335654,76.99893,233.219083,76.878451,233.069887,76.819155C232.920691,76.759859,232.75322,76.76745,232.61,76.84C232.454315,76.940655,232.329675,77.082605,232.25,77.25C232.25,77.33,232.17,77.42,232.09,77.45C232.018825,77.475164,231.941175,77.475164,231.87,77.45C231.098814,77.186032,230.423533,76.698716,229.93,76.05C229.681461,75.7876,229.508671,75.462755,229.43,75.11C229.384247,74.764911,229.450871,74.414262,229.62,74.11C229.96712,73.528571,230.509284,73.08917,231.15,72.87C231.798932,72.659686,232.470096,72.525453,233.15,72.47L234.79,72.27C235.121467,72.220119,235.458533,72.220119,235.79,72.27C236.146291,72.342104,236.48564,72.481237,236.79,72.68C237.704736,73.301511,238.314389,74.280492,238.468654,75.375581C238.622918,76.47067,238.307441,77.579973,237.6,78.43Z" transform="matrix(1 0 0 1 -84.559998 -66.540001)" fill="rgb(41,37,38)" stroke="none" stroke-width="1.333333"/><path id="eJ6O3uLaZbp23" d="M239.89,72.15C240.336498,72.2235,240.764441,72.38313,241.15,72.62C241.6631,72.911271,241.985799,73.450353,242.000135,74.040188C242.014471,74.630022,241.718344,75.184145,241.22,75.5C240.516785,76.120859,239.617732,76.474816,238.68,76.5C237.717995,76.653478,236.743794,76.717085,235.77,76.69C233.856228,76.66047,231.977282,76.17359,230.29,75.27C229.396176,74.858449,228.58595,74.285527,227.9,73.58C227.266709,72.797103,227.221996,71.691478,227.79,70.86C228.541488,69.991007,229.812667,69.796093,230.79,70.4C231.337404,70.661463,231.845639,70.998042,232.3,71.4C232.747282,71.875909,233.275471,72.268665,233.86,72.56C234.236094,72.67156,234.632152,72.698874,235.02,72.64C236.07,72.54,237.08,72.24,238.12,72.11C238.708436,72.030237,239.305768,72.043736,239.89,72.15Z" transform="matrix(1 0 0 1 -84.559998 -66.540001)" fill="rgb(239,223,29)" stroke="none" stroke-width="1.333333"/><path id="eJ6O3uLaZbp24" d="M234,68.31C235.115086,68.168513,236.242683,68.450413,237.16,69.1C238.354727,70.005116,239.107519,71.376144,239.23,72.87C239.35,73.77,238.97,74.19,238.14,74.43C236.132409,74.97922,234.003476,74.888329,232.05,74.17C231.441477,73.932098,230.877025,73.594103,230.38,73.17C230.106614,72.854144,229.944942,72.456993,229.92,72.04C229.63,70.18,232.25,68.65,233.78,68.37Z" transform="matrix(1 0 0 1 -84.559998 -66.540001)" fill="rgb(249,234,48)" stroke="none" stroke-width="1.333333"/><path id="eJ6O3uLaZbp25" d="M238.06,82.55C236.433032,83.187168,234.733439,83.620464,233,83.84C232.59835,83.930333,232.18165,83.930333,231.78,83.84C231.714463,83.825371,231.657127,83.785952,231.62,83.73C231.595547,83.672491,231.595547,83.607509,231.62,83.55C231.688608,83.1199,231.899948,82.725398,232.22,82.43C232.964015,81.628401,233.933129,81.070638,235,80.83C236.199588,80.690488,237.414678,80.873442,238.52,81.36C238.75,81.43,239.02,81.55,239.05,81.79C239.08,82.03,238.78,82.26,238.53,82.36Z" transform="matrix(1 0 0 1 -84.559998 -66.540001)" fill="rgb(240,205,164)" stroke="none" stroke-width="1.333333"/><path id="eJ6O3uLaZbp26" d="M224.24,135.34C223.916619,135.224803,223.563381,135.224803,223.24,135.34C222.945567,135.515222,222.701087,135.763146,222.53,136.06C222.104515,136.555442,221.947722,137.227414,222.11,137.86C222.199381,138.034965,222.32561,138.188487,222.48,138.31C224.771693,140.470061,227.857235,141.58187,231,141.38C231.344326,141.363172,231.682922,141.285295,232,141.15C232.91,140.73,233.18,138.6,232.57,137.81C232.058857,137.348443,231.428156,137.040024,230.75,136.92C230.262927,136.791275,229.768753,136.691104,229.27,136.62C227.58,136.22,225.92,135.76,224.24,135.34Z" transform="matrix(1 0 0 1 -84.559998 -66.540001)" fill="rgb(163,138,119)" stroke="none" stroke-width="1.333333"/><path id="eJ6O3uLaZbp27" d="M237.36,132.1C236.987491,131.934129,236.587319,131.839173,236.18,131.82C235.67988,131.818021,235.219026,132.090693,234.98,132.53C234.745054,133.037745,234.77497,133.628583,235.06,134.11C235.161043,134.370392,235.284856,134.621365,235.43,134.86C235.769924,135.342027,236.158646,135.787717,236.59,136.19C237.414224,136.967775,238.319387,137.655029,239.29,138.24C240.000585,138.874438,240.900168,139.257463,241.85,139.33C242.378472,139.285709,242.859238,139.006791,243.16,138.57C243.424962,138.139469,243.504324,137.620005,243.38,137.13C243.374261,136.723104,243.285801,136.321628,243.12,135.95C242.61025,135.296825,241.965585,134.76131,241.23,134.38C240.524425,133.83201,239.779031,133.33731,239,132.9C238.46,132.66,237.92,132.33,237.36,132.1Z" transform="matrix(1 0 0 1 -84.559998 -66.540001)" fill="rgb(163,138,119)" stroke="none" stroke-width="1.333333"/><path id="eJ6O3uLaZbp28" d="M228.29,134.84C228.39,135.65,228.5,136.45,228.62,137.25C228.694839,137.769322,229.04622,138.206836,229.537157,138.391978C230.028094,138.577119,230.580875,138.480582,230.98,138.14C231.163765,137.898679,231.277897,137.61162,231.31,137.31C231.57,135.86,231.83,134.4,231.98,132.93C232.39934,129.634172,232.569823,126.311439,232.49,122.99C232.43,121.82,232.21,120.08,231.13,119.5C230.395142,118.982564,229.469964,118.81435,228.6,119.04C227.02,119.78,227.39,123.17,227.46,124.61C227.63,128,227.88,131.45,228.29,134.84Z" transform="matrix(1 0 0 1 -84.559998 -66.540001)" fill="rgb(245,220,190)" stroke="none" stroke-width="1.333333"/><path id="eJ6O3uLaZbp29" d="M239.92,133.21C240.01,133.95,240.11,134.69,240.21,135.43C240.261024,135.903634,240.572813,136.308883,241.017544,136.479609C241.462274,136.650334,241.965146,136.557823,242.32,136.24C242.485163,136.014629,242.585456,135.748332,242.61,135.47C242.85,134.14,243.09,132.8,243.22,131.47C243.601113,128.445729,243.758208,125.397427,243.69,122.35C243.64,121.27,243.44,119.67,242.48,119.14C241.822664,118.671224,240.991546,118.517449,240.21,118.72C238.81,119.41,239.13,122.52,239.21,123.84C239.34,127,239.55,130.1,239.92,133.21Z" transform="matrix(1 0 0 1 -84.559998 -66.540001)" fill="rgb(245,220,190)" stroke="none" stroke-width="1.333333"/><path id="eJ6O3uLaZbp30" d="M243.87,105.85C244.518515,110.168102,244.782883,114.535201,244.66,118.9C244.690092,119.26189,244.63175,119.62567,244.49,119.96C243.63,121.59,241.13,121.75,239.55,121.37C239.008807,121.273133,238.539284,120.939332,238.27,120.46C238.133318,120.143826,238.058632,119.804344,238.05,119.46L237.6,115.25C237.51,114.41,237.71,112.42,236.88,111.97C236.627516,111.818822,236.318803,111.794612,236.045839,111.904583C235.772875,112.014554,235.567166,112.246013,235.49,112.53C234.868805,114.139638,234.649137,115.876387,234.85,117.59C234.85,118.7,235.37,121.05,234.25,121.76C232.9,122.62,230.48,122.49,229.01,122.09C228.01,121.81,226.44,121.44,226.25,120.16C225.995105,117.503913,226.225523,114.823612,226.93,112.25C227.22,110.96,227.54,109.67,227.76,108.37C227.93,107.37,227.76,106.15,228.4,105.32C229.04,104.49,230.4,104.67,231.24,104.68C233.7,104.68,236.24,105.41,238.64,104.68C239.684583,104.241193,240.769812,103.906245,241.88,103.68C242.290411,103.624309,242.707434,103.712661,243.06,103.93C243.506698,104.327084,243.779616,104.883692,243.82,105.48C243.828784,105.604271,243.845484,105.727855,243.87,105.85Z" transform="matrix(1 0 0 1 -84.559998 -66.540001)" fill="rgb(48,65,66)" stroke="none" stroke-width="1.333333"/><path id="eJ6O3uLaZbp31" d="M227.8,103.55C227.74,104.16,227.69,104.78,227.63,105.4C227.560747,105.820631,227.588104,106.251505,227.71,106.66C228.102814,107.393311,228.825117,107.892222,229.65,108C233.973015,109.056456,238.530769,108.542557,242.51,106.55C244.51,105.55,244.4,104.32,244.6,102.25C244.776641,99.716907,244.79334,97.175195,244.65,94.64C244.66395,92.214113,244.466537,89.791621,244.06,87.4C243.745847,85.578918,243.065454,83.840514,242.06,82.29C241.633264,81.469917,240.922208,80.833522,240.06,80.5C239.30491,80.432675,238.546712,80.589184,237.88,80.95C237.111639,81.222957,236.317576,81.417284,235.51,81.53C234.57,81.68,233.6,81.72,232.66,81.89C231.18,82.14,229.52,82.72,229.53,84.48C229.53,86.01,229.3,87.48,229.17,89.02C228.71,93.86,228.25,98.71,227.8,103.55Z" transform="matrix(1 0 0 1 -84.559998 -66.540001)" fill="rgb(121,106,86)" stroke="none" stroke-width="1.333333"/><path id="eJ6O3uLaZbp32" d="M244.34,84.82C243.445633,82.966752,241.980578,81.449123,240.16,80.49C239.935973,80.370212,239.691984,80.292271,239.44,80.26C238.874245,80.252435,238.32445,80.447523,237.89,80.81C237.851726,80.824622,237.824751,80.859305,237.82,80.9C237.82,80.98,237.92,81,237.99,81.01C238.157967,81.021605,238.32319,81.058696,238.48,81.12C238.534603,81.135331,238.581176,81.171156,238.61,81.22C238.61,81.31,238.54,81.38,238.46,81.42C237.530164,81.914085,236.509397,82.21351,235.46,82.3C234.980975,82.390702,234.496663,82.450824,234.01,82.48C233.810076,82.481305,233.613385,82.429544,233.44,82.33C233.26,82.2,233.14,82,232.96,81.88C232.31,81.48,231.06,81.88,230.47,82.21C230.369283,82.25608,230.280372,82.324473,230.21,82.41C229.78,83.03,230.43,83.79,230.66,84.34C230.969179,85.070475,231.171264,85.841766,231.26,86.63C231.532599,89.103663,230.768766,91.579785,229.15,93.47C228.718909,93.92043,228.379301,94.450218,228.15,95.03C227.82383,96.126159,227.566659,97.241678,227.38,98.37C227.148033,99.828567,227.031006,101.303103,227.03,102.78C227.001092,103.045104,227.038904,103.31323,227.14,103.56C227.385758,103.925443,227.767409,104.177476,228.2,104.26C232.3,105.51,236.76,104.5,240.79,103.01C242.0275,102.583701,243.211931,102.01665,244.32,101.32C244.97,100.89,245.72,100.39,245.75,99.56C245.82,94.49,246.69,89.53,244.34,84.82Z" transform="matrix(1 0 0 1 -84.559998 -66.540001)" fill="rgb(199,159,98)" stroke="none" stroke-width="1.333333"/><path id="eJ6O3uLaZbp33" style="mix-blend-mode:multiply" d="M199.82,142.77C199.13816,142.660034,198.481284,142.429788,197.88,142.09C197.41,141.81,196.88,141.53,196.96,140.91C196.974827,140.702509,197.043785,140.50253,197.16,140.33C197.4,139.99,197.96,139.88,198.34,139.77C199.263475,139.556397,200.203602,139.422571,201.15,139.37C202.56,139.19,204.04,139.23,205.43,138.97C206.120004,138.825325,206.826438,138.774865,207.53,138.82C208.181146,138.82091,208.826094,138.946506,209.43,139.19C209.923765,139.538971,210.100033,140.189484,209.85,140.74C209.582294,141.2684,209.140919,141.688589,208.6,141.93C207.571073,142.470086,206.439765,142.786989,205.28,142.86C204.189737,142.962098,203.094997,143.008825,202,143C201.268604,142.977958,200.539892,142.901076,199.82,142.77Z" transform="matrix(1 0 0 1 -84.559998 -66.540001)" opacity="0.3" fill="rgb(159,160,160)" stroke="none" stroke-width="1.333333"/><path id="eJ6O3uLaZbp34" d="M197.6,137.6C197.644115,138.721237,198.095665,139.787889,198.87,140.6C200.6,142.17,203.77,142.08,205.87,141.52C206.506786,141.379417,207.10447,141.09936,207.62,140.7C208.68,139.81,208.62,137.99,208.68,136.7C208.82,133.83,208.89,130.98,208.92,128.11C208.93924,127.952972,208.903936,127.794101,208.82,127.66C208.672924,127.519857,208.472218,127.450522,208.27,127.47C206.433057,127.31999,204.586943,127.31999,202.75,127.47C200.791827,127.829634,198.797273,127.950516,196.81,127.83C196.771155,127.813077,196.726043,127.819969,196.694024,127.84772C196.662004,127.87547,196.64877,127.919144,196.66,127.96C196.77,129.61,196.87,131.25,197.01,132.89C197.15,134.53,197.35,136.05,197.6,137.6Z" transform="matrix(1 0 0 1 -84.559998 -66.540001)" fill="rgb(247,181,44)" stroke="none" stroke-width="1.333333"/><path id="eJ6O3uLaZbp35" d="M205.68,139.48C205.666599,139.656793,205.728315,139.83105,205.85,139.96C205.908786,139.99394,205.981214,139.99394,206.04,139.96C206.14,139.96,206.17,139.79,206.17,139.67C206.189979,138.949444,206.169949,138.228335,206.11,137.51C206.11,137.27,206.11,136.64,205.81,136.51C205.51,136.38,205.57,136.78,205.57,136.95C205.55,137.84,205.63,138.67,205.68,139.48Z" transform="matrix(1 0 0 1 -84.559998 -66.540001)" fill="rgb(250,235,217)" stroke="none" stroke-width="1.333333"/><path id="eJ6O3uLaZbp36" d="M206.53,138.58L206.53,139C206.53,139,206.53,139.12,206.58,139.15C206.598983,139.171525,206.6263,139.183856,206.655,139.183856C206.6837,139.183856,206.711017,139.171525,206.73,139.15C206.766183,139.104222,206.78716,139.048282,206.79,138.99C206.804968,138.867121,206.804968,138.742879,206.79,138.62C206.804551,138.588255,206.804551,138.551745,206.79,138.52C206.775449,138.488255,206.68,138.52,206.62,138.52C206.570475,138.559163,206.532466,138.610993,206.51,138.67" transform="matrix(1 0 0 1 -84.559998 -66.540001)" fill="rgb(250,235,217)" stroke="none" stroke-width="1.333333"/><path id="eJ6O3uLaZbp37" d="M206.89,130.06L206.54,130.18C204.56088,130.679704,202.506847,130.811894,200.48,130.57C199.25,130.47,197.48,130.09,196.8,128.97C196.323706,128.221401,196.542847,127.228559,197.29,126.75C198.551639,125.817889,200.071682,125.300725,201.64,125.27C203.317176,125.063718,205.018832,125.203253,206.64,125.68C207.338821,125.8622,207.972718,126.236303,208.47,126.76C208.813662,127.129478,208.981114,127.629315,208.929387,128.131254C208.877661,128.633192,208.611791,129.088374,208.2,129.38C207.808671,129.684994,207.364632,129.915487,206.89,130.06Z" transform="matrix(1 0 0 1 -84.559998 -66.540001)" fill="rgb(238,238,239)" stroke="none" stroke-width="1.333333"/><path id="eJ6O3uLaZbp38" d="M207.23,130.63L206.86,130.77C204.734305,131.404162,202.497253,131.574669,200.3,131.27C198.96,131.14,197.08,130.67,196.3,129.27C195.778053,128.327737,196.00068,127.147398,196.83,126.46C198.135479,125.309068,199.800587,124.647974,201.54,124.59C203.342743,124.3416,205.178622,124.519707,206.9,125.11C207.69091,125.35175,208.388851,125.82984,208.9,126.48C209.688045,127.486361,209.565898,128.930317,208.62,129.79C208.213509,130.154778,207.741958,130.439744,207.23,130.63Z" transform="matrix(1 0 0 1 -84.559998 -66.540001)" fill="rgb(238,238,239)" stroke="none" stroke-width="1.333333"/><path id="eJ6O3uLaZbp39" d="M206.89,130.06L206.54,130.18C204.56088,130.679704,202.506847,130.811894,200.48,130.57C199.25,130.47,197.48,130.09,196.8,128.97C196.323706,128.221401,196.542847,127.228559,197.29,126.75C198.551639,125.817889,200.071682,125.300725,201.64,125.27C203.317176,125.063718,205.018832,125.203253,206.64,125.68C207.338821,125.8622,207.972718,126.236303,208.47,126.76C208.813662,127.129478,208.981114,127.629315,208.929387,128.131254C208.877661,128.633192,208.611791,129.088374,208.2,129.38C207.808671,129.684994,207.364632,129.915487,206.89,130.06Z" transform="matrix(1 0 0 1 -84.559998 -66.540001)" fill="rgb(200,201,202)" stroke="none" stroke-width="1.333333"/><path id="eJ6O3uLaZbp40" d="M200.46,130.57C202.486859,130.81144,204.540809,130.679255,206.52,130.18L206.86,130.06C207.320998,129.912061,207.751308,129.681658,208.13,129.38C208.259681,129.265969,208.376994,129.1386,208.48,129C208.453244,128.957666,208.423149,128.917539,208.39,128.88C207.896037,128.355064,207.265937,127.977696,206.57,127.79C204.947083,127.322378,203.24662,127.186341,201.57,127.39C200.003006,127.419131,198.483452,127.932635,197.22,128.86C197.108981,128.962519,197.005387,129.072796,196.91,129.19C197.879392,130.07732,199.145824,130.569623,200.46,130.57Z" transform="matrix(1 0 0 1 -84.559998 -66.540001)" fill="rgb(250,235,217)" stroke="none" stroke-width="1.333333"/><path id="eJ6O3uLaZbp41" d="M198.56,125.6C198.588856,125.629106,198.612529,125.662925,198.63,125.7C198.700209,125.85442,198.740909,126.020612,198.75,126.19C198.75,126.35,198.75,126.5,198.81,126.66C198.87,126.82,198.81,126.87,198.95,126.96C198.995494,127.003365,199.057364,127.025202,199.12,127.02C199.175097,127.005666,199.222013,126.969577,199.25,126.92C199.31,126.83,199.31,126.72,199.4,126.64C199.465915,126.606178,199.544085,126.606178,199.61,126.64L199.67,126.64C199.70407,126.657568,199.734586,126.681303,199.76,126.71C199.826254,126.808598,199.867446,126.921875,199.88,127.04C199.88,127.19,199.88,127.34,199.95,127.49C200.02,127.64,200.15,127.9,200.36,127.9C200.44111,127.90511,200.521722,127.884081,200.59,127.84C200.667333,127.792412,200.732412,127.727333,200.78,127.65C200.88,127.45,200.78,127.2,201.01,127.08C201.102639,127.040539,201.207361,127.040539,201.3,127.08C201.48,127.15,201.68,127.2,201.8,127C201.825921,126.935255,201.846001,126.868322,201.86,126.8C201.890071,126.627993,201.940423,126.460156,202.01,126.3C202.039314,126.228275,202.101452,126.175114,202.17685,126.157257C202.252249,126.139399,202.33163,126.159042,202.39,126.21C202.426926,126.275649,202.453887,126.346422,202.47,126.42C202.491524,126.493273,202.533085,126.559079,202.59,126.61C202.75,126.71,202.9,126.52,202.95,126.39C202.997286,126.265786,203.014422,126.132125,203,126C203.011531,125.728115,202.988004,125.455876,202.93,125.19C202.897127,124.951206,202.792511,124.728026,202.63,124.55C202.388831,124.408062,202.108047,124.348395,201.83,124.38C201.057976,124.387889,200.290736,124.502302,199.55,124.72C199.096076,124.836611,198.659125,125.011392,198.25,125.24C198.18,125.24,198.18,125.32,198.19,125.41C198.2,125.5,198.4,125.41,198.41,125.41C198.478424,125.45632,198.530824,125.522694,198.56,125.6Z" transform="matrix(1 0 0 1 -84.559998 -66.540001)" fill="rgb(245,220,190)" stroke="none" stroke-width="1.333333"/><path id="eJ6O3uLaZbp42" d="M210.93,128.81C210.582561,128.040044,210.188496,127.291989,209.75,126.57C209.54,126.21,209.31,125.86,209.07,125.51C208.83,125.16,208.68,124.88,208.34,124.92C208.029539,124.934767,207.733325,125.054662,207.5,125.26C207.266675,125.465338,207.5,125.26,207.55,125.26C207.73839,125.359364,207.947094,125.414106,208.16,125.42C208.39,125.42,208.46,125.53,208.65,125.62C208.902241,125.871829,209.117697,126.157982,209.29,126.47C209.55,126.92,209.81,127.37,210.06,127.82C210.391062,128.304748,210.606583,128.858945,210.69,129.44C210.732437,130.150553,210.535248,130.854799,210.13,131.44C209.92,131.74,209.68,132,209.44,132.3C209.522241,132.408233,209.633069,132.491354,209.76,132.54C210.183117,132.075348,210.549056,131.56169,210.85,131.01C211.209587,130.326923,211.239025,129.51739,210.93,128.81Z" transform="matrix(1 0 0 1 -84.559998 -66.540001)" fill="rgb(163,138,119)" stroke="none" stroke-width="1.333333"/><path id="eJ6O3uLaZbp43" d="M207.05,135C207.55,134.68,208.05,134.36,208.51,134C208.963549,133.661482,209.397577,133.297567,209.81,132.91C209.939383,132.822,210.017752,132.676458,210.02,132.52C210.010146,132.438111,209.975218,132.361269,209.92,132.3C209.841127,132.181448,209.730135,132.087798,209.6,132.03C209.37335,132.018848,209.154705,132.1152,209.01,132.29C208.507773,132.685905,207.983607,133.053156,207.44,133.39C207.17,133.57,206.9,133.74,206.65,133.94C206.4,134.14,206.13,134.24,206.1,134.49C206.101046,134.572475,206.118024,134.653969,206.15,134.73C206.205025,134.867176,206.298854,134.985332,206.42,135.07C206.66,135.2,206.84,135.1,207.05,135Z" transform="matrix(1 0 0 1 -84.559998 -66.540001)" fill="rgb(0,177,169)" stroke="none" stroke-width="1.333333"/><path id="eJ6O3uLaZbp44" d="M206.5,134.51C206.423771,134.506694,206.349,134.531618,206.29,134.58C206.122511,134.692836,205.948913,134.796327,205.77,134.89C205.597755,134.973562,205.420788,135.047019,205.24,135.11C204.882092,135.25495,204.504641,135.345943,204.12,135.38C203.536418,135.465079,202.943582,135.465079,202.36,135.38C201.888996,135.32825,201.429611,135.199893,201,135C200.52,134.7,200.12,134.28,199.64,134C199.213385,133.64842,198.82158,133.256615,198.47,132.83C198.23,132.6,197.98,132.4,197.74,132.17C197.5,131.94,197.3,131.73,197.09,131.5C196.896517,131.316475,196.728369,131.107971,196.59,130.88C196.49,130.66,196.86,130.49,197,130.38C197.14,130.27,197.46,130.05,197.29,129.94C197.232491,129.915547,197.167509,129.915547,197.11,129.94L197.04,129.94C196.680874,130.062991,196.343395,130.241856,196.04,130.47C196.001495,130.489625,195.97526,130.527103,195.97,130.57C195.959959,130.595722,195.959959,130.624278,195.97,130.65C196.080571,130.83971,196.215,131.014466,196.37,131.17L197.24,132.17C197.82,132.79,198.41,133.4,199.01,134.01C199.448545,134.515459,199.96506,134.947576,200.54,135.29C201.969915,136.001957,203.6231,136.120556,205.14,135.62C205.662398,135.4763,206.151602,135.231698,206.58,134.9C206.65,134.84,206.58,134.71,206.53,134.65C206.536709,134.60126,206.526091,134.551712,206.5,134.51Z" transform="matrix(1 0 0 1 -84.559998 -66.540001)" fill="rgb(163,138,119)" stroke="none" stroke-width="1.333333"/></g></g></svg>