<svg id="e0uHvWqTM6a1" xmlns="http://www.w3.org/2000/svg" xmlns:xlink="http://www.w3.org/1999/xlink" viewBox="0 0 141 101" shape-rendering="geometricPrecision" text-rendering="geometricPrecision"><style><![CDATA[#e0uHvWqTM6a6_to {animation: e0uHvWqTM6a6_to__to 2000ms linear infinite normal forwards}@keyframes e0uHvWqTM6a6_to__to { 0% {transform: translate(220.627579px,80.651234px)} 25% {transform: translate(219.241214px,80.651234px)} 50% {transform: translate(219.241214px,80.651234px)} 75% {transform: translate(220.627579px,80.651234px)} 100% {transform: translate(220.627579px,80.651234px)}} #e0uHvWqTM6a41_to {animation: e0uHvWqTM6a41_to__to 2000ms linear infinite normal forwards}@keyframes e0uHvWqTM6a41_to__to { 0% {transform: translate(259.81704px,87.706484px)} 25% {transform: translate(257.247561px,86.558857px)} 50% {transform: translate(259.81704px,87.706484px)} 100% {transform: translate(259.81704px,87.706484px)}} #e0uHvWqTM6a47_tr {animation: e0uHvWqTM6a47_tr__tr 2000ms linear infinite normal forwards}@keyframes e0uHvWqTM6a47_tr__tr { 0% {transform: translate(260.907891px,87.706484px) rotate(0deg)} 25% {transform: translate(260.907891px,87.706484px) rotate(-4.713073deg)} 50% {transform: translate(260.907891px,87.706484px) rotate(0deg)} 100% {transform: translate(260.907891px,87.706484px) rotate(0deg)}} #e0uHvWqTM6a61_tr {animation: e0uHvWqTM6a61_tr__tr 2000ms linear infinite normal forwards}@keyframes e0uHvWqTM6a61_tr__tr { 0% {transform: translate(188.587466px,60.08px) rotate(0deg)} 50% {transform: translate(188.587466px,60.08px) rotate(0deg)} 75% {transform: translate(188.587466px,60.08px) rotate(4.873384deg)} 100% {transform: translate(188.587466px,60.08px) rotate(0deg)}} #e0uHvWqTM6a62_tr {animation: e0uHvWqTM6a62_tr__tr 2000ms linear infinite normal forwards}@keyframes e0uHvWqTM6a62_tr__tr { 0% {transform: translate(210.353126px,51.25px) rotate(0deg)} 50% {transform: translate(210.353126px,51.25px) rotate(0deg)} 75% {transform: translate(210.353126px,51.25px) rotate(-8.456372deg)} 100% {transform: translate(210.353126px,51.25px) rotate(0deg)}} #e0uHvWqTM6a68_tr {animation: e0uHvWqTM6a68_tr__tr 2000ms linear infinite normal forwards}@keyframes e0uHvWqTM6a68_tr__tr { 0% {transform: translate(198.285634px,54.072349px) rotate(0deg)} 50% {transform: translate(198.285634px,54.072349px) rotate(0deg)} 75% {transform: translate(198.285634px,54.072349px) rotate(-5.86853deg)} 100% {transform: translate(198.285634px,54.072349px) rotate(0deg)}} #e0uHvWqTM6a71_tr {animation: e0uHvWqTM6a71_tr__tr 2000ms linear infinite normal forwards}@keyframes e0uHvWqTM6a71_tr__tr { 0% {transform: translate(205.57px,46.426541px) rotate(0deg)} 50% {transform: translate(205.57px,46.426541px) rotate(0deg)} 75% {transform: translate(205.57px,46.426541px) rotate(-8.954347deg)} 100% {transform: translate(205.57px,46.426541px) rotate(0deg)}}]]></style><g id="e0uHvWqTM6a2" style="isolation:isolate" transform="matrix(0.497861 0 0 0.49786 0.955428 20.192099)"><g id="e0uHvWqTM6a3"><path id="e0uHvWqTM6a4" style="mix-blend-mode:multiply" d="M218.92,166.47C225.48,162.62,230.17,154.03,234.92,148.85C240.45,142.85,246.19,137.06,251.84,131.18C259.45,123.27,266.84,115.18,274.11,106.91C277.75,103.26,280.47,98.33,284.67,95.31C288.5351,92.42725,292.172516,89.251198,295.55,85.81C298.563234,82.642464,302.035331,79.945689,305.85,77.81C307.68,76.81,309.53,75.29,309.57,73.21C309.518722,71.932536,308.939241,70.733736,307.97,69.9C307.003479,69.090111,305.93007,68.417128,304.78,67.9C302.360153,66.678048,299.546209,66.497436,296.99,67.4C295.785575,67.832211,294.647802,68.431393,293.61,69.18C290.8,71.05,288.17,73.18,285.39,75.05C278.851609,79.693375,272.606377,84.736317,266.69,90.15C261.25,94.91,255.79,99.7,251.14,105.23C246.76,110.43,243.14,116.23,239.14,121.72C233.93,128.86,228.76,136.49,223.14,143.3C220.64,146.36,217.14,148.72,214.37,151.65C211.528622,154.700338,208.958873,157.992829,206.69,161.49C205.84,162.81,205,164.44,205.61,165.89C206.28671,167.06584,207.474336,167.857591,208.82,168.03C212.259717,168.883802,215.898181,168.321821,218.92,166.47Z" transform="matrix(1 0 0 1 -30.18 -31.48)" opacity="0.3" fill="rgb(159,160,160)" stroke="none" stroke-width="1.333333"/><path id="e0uHvWqTM6a5" d="M283.43,74.5Q272.25,86.89,261.27,99.5Q249.2,113.3,237.36,127.31C233.54,131.84,229.43,136.31,225.95,141.08C223.07,145.08,222.75,149.47,221.2,153.99C219.968818,157.240113,218.182244,160.251573,215.92,162.89C214.31,164.89,212.49,166.84,210.09,167.73C208.148521,168.322136,206.103567,168.495957,204.09,168.24C194.89,167.57,186.51,164.04,177.56,162.18Q164.5,159.45,151.43,156.76L81.8,142.55L54,136.9C46.61,135.4,35.47,135.09,30.67,128.78C30.3,128.29,29.96,127.62,30.31,127.12C30.486854,126.905771,30.718363,126.743369,30.98,126.65C42.45,121.37,50.32,110.87,58.56,101.65C66.8,92.43,74.83,83.53,83,74.46C89.26,67.56,95.43,60.58,101.65,53.64C107.37,47.26,115.26,40.75,118.29,32.54C118.380371,32.12099,118.641289,31.758604,119.01,31.54C119.406458,31.444056,119.824868,31.512589,120.17,31.73C127.63,35.24,135.5,36.38,143.56,38.02L171.48,43.7L241,57.84L264.41,62.61L279.3,65.61C281.66,66.09,284.43,66.28,286.68,67.11C291.36,68.89,285,72.76,283.43,74.5Z" transform="matrix(1 0 0 1 -30.18 -31.48)" fill="rgb(24,127,196)" stroke="none" stroke-width="1.333333"/><g id="e0uHvWqTM6a6_to" transform="translate(220.627579,80.651234)"><g id="e0uHvWqTM6a6" transform="translate(-220.627579,-80.651234)"><path id="e0uHvWqTM6a7" d="M219.49,160.9C220.77,159.33,221.96,157.79,223.08,156.64C227.931637,151.663252,232.385305,146.313502,236.4,140.64C240.59,134.73,245.89,129.38,250.73,123.94Q260.73,112.69,270.96,101.61C277.57,94.42,285.21,88.06,292.56,81.7C297.56,77.38,305.77,70.18,304.29,62.7C302.86,55.45,292.56,54.3,287.58,58.02C284.88,60.02,283.3,62.5,281.58,65.26C279.550786,68.326887,277.308598,71.247411,274.87,74C268.87,81.2,262.67,88.23,256.37,95.17C247.710805,104.855739,238.530544,114.062706,228.87,122.75Q220.39,130.27,211.68,137.51C207.78,140.76,201.55,144.78,199.76,149.71C197.25,156.63,199.7,165.8,207.58,167.71C212.53,168.86,216.32,164.78,219.49,160.9Z" transform="matrix(1 0 0 1 -30.18 -31.48)" fill="rgb(116,202,232)" stroke="none" stroke-width="1.333333"/><path id="e0uHvWqTM6a8" d="M199.06,150.25C201.35,146.49,205.28,143.97,209.92,146.34C210.888021,146.857488,211.747065,147.556946,212.45,148.4C212.899625,148.922843,213.310705,149.477634,213.68,150.06C216.063867,153.875562,216.786295,158.4991,215.68,162.86C214.82,166.68,211.15,168.23,207.31,168.28C205.886871,168.38468,204.456969,168.211462,203.1,167.77C202.361821,167.44061,201.685405,166.987411,201.1,166.43C196.57,162.32,196,155.21,199.06,150.25Z" transform="matrix(1 0 0 1 -30.18 -31.48)" fill="rgb(45,151,211)" stroke="none" stroke-width="1.333333"/><path id="e0uHvWqTM6a9" d="M202.14,155.31C204.183799,152.069546,206.914907,149.317954,210.14,147.25C210.695307,146.723919,211.485719,146.527376,212.222748,146.732107C212.959778,146.936837,213.535581,147.512884,213.74,148.25C215.084268,150.524351,215.935978,153.055633,216.24,155.68C216.39,156.98,216.37,161.42,214.82,158.68C212.27,154.05,206.72,152.82,202.14,155.31Z" transform="matrix(1 0 0 1 -30.18 -31.48)" fill="none" stroke="none" stroke-width="1.333333"/><path id="e0uHvWqTM6a10" d="M202.14,155.31C202.27,155.11,202.89,154.94,203.14,154.85C203.466327,154.7085,203.800161,154.584982,204.14,154.48C204.817089,154.272891,205.514389,154.138795,206.22,154.08C207.577459,153.970467,208.94248,154.158158,210.22,154.63C211.42923,155.105877,212.51602,155.847491,213.4,156.8C213.846284,157.274556,214.263701,157.775456,214.65,158.3C215.021674,158.879029,215.443281,159.424441,215.91,159.93C216.376719,160.435559,215.91,159.93,215.97,159.93C216.03,159.93,216.04,159.87,216.05,159.83C216.134889,159.367194,216.134889,158.892806,216.05,158.43C216.05,158.01,216.05,157.58,216,157.16C215.933614,156.338416,215.806601,155.522862,215.62,154.72C215.219607,153.052926,214.543644,151.464414,213.62,150.02C213.250705,149.437634,212.839625,148.882843,212.39,148.36C211.896835,147.796438,211.335918,147.295979,210.72,146.87C210.51,146.97,210.3,147.09,210.1,147.21C206.885132,149.294037,204.167675,152.059288,202.14,155.31Z" transform="matrix(1 0 0 1 -30.18 -31.48)" fill="rgb(75,175,219)" stroke="none" stroke-width="1.333333"/></g></g><g id="e0uHvWqTM6a11" clip-path="url(#e0uHvWqTM6a39)"><g id="e0uHvWqTM6a12"><g id="e0uHvWqTM6a13" opacity="0.8"><path id="e0uHvWqTM6a14" d="M186,64.25L182.64,63.7C173.06,62.11,165.77,60.7,159.01,59.09C156.47,58.49,153.93,57.86,151.39,57.22C148.85,56.58,146.49,56,144,55.41C143.69,55.34,143,55.15,142.11,54.89C131.36,51.89,129.31,51.77,128.54,52.73C119.91,63.41,110.84,73.97,101.6,84.12L98,88.07C94.18,92.23,90.22,96.54,86.49,100.93C81.43,106.93,77.15,112.88,73.29,118.46C72.51,119.59,72.87,120.32,73.16,120.66C73.4699,120.998429,73.901561,121.19987,74.36,121.22L78,121.67C80.76,122.01,83.52,122.35,86.26,122.76C90.44,123.4,94.66,124.16,98.81,125.01C110.562425,127.570468,122.120787,130.952099,133.4,135.13C133.670715,135.238955,133.958357,135.299868,134.25,135.31C134.4093,135.310494,134.567758,135.286893,134.72,135.24C135.116879,135.098426,135.464223,134.844865,135.72,134.51C136.33,133.77,136.97,133.04,137.61,132.31C139.461804,130.294832,141.153601,128.138292,142.67,125.86C142.94,125.44,143.5,124.72,144.15,123.86C146.47,120.86,147.63,119.19,147.85,118.09C152.73,111.4,157.79,104.79,162.98,98.09L167.43,92.3C171.03,87.62,174.76,82.92,178.52,78.3L179.68,76.87C182.31,73.65,184.8,70.6,187.47,67.55C187.88839,67.135762,188.119554,66.568686,188.11,65.98C188,65.45,187.71,64.53,186,64.25ZM161.46,96.91L161.46,96.91C156.21,103.73,151.09,110.42,146.16,117.19L145.98,117.43L145.98,117.74C145.89,118.49,143.69,121.35,142.63,122.74C141.93,123.64,141.33,124.42,141.05,124.88C139.582034,127.069466,137.947173,129.142296,136.16,131.08L134.24,133.31C134.24,133.31,134.18,133.39,134.19,133.42L134.02,133.36C122.656914,129.159838,111.0155,125.754958,99.18,123.17C95,122.32,90.74,121.56,86.54,120.91C83.77,120.49,81,120.15,78.22,119.81L74.94,119.4C78.75,113.91,82.94,108.03,87.94,102.17C91.64,97.81,95.58,93.52,99.4,89.37L103.02,85.37Q106.29,81.8,109.51,78.15C122.41,79.56,135.08,83.5,147.33,87.32C153.05,89.11,158.95,90.94,164.84,92.51ZM177,77.09C173.29,81.64,169.6,86.29,166.05,90.91C159.94,89.31,153.8,87.39,147.85,85.54C136,81.81,123.63,78,111,76.45Q116.76,69.92,122.35,63.23C127.074964,63.838835,131.752607,64.771023,136.35,66.02L177.68,76.33ZM186,66.29C183.58,69.05,181.24,71.91,178.95,74.71L136.75,64.18C132.471565,63.040969,128.131033,62.149491,123.75,61.51Q126.84,57.81,129.85,54.08C131.4,53.83,139.02,56,141.57,56.72C142.51,56.98,143.21,57.18,143.57,57.25C146.03,57.84,148.49,58.45,150.94,59.06C153.39,59.67,156.03,60.33,158.58,60.93C165.39,62.54,172.71,63.93,182.34,65.56L185.7,66.12L186.09,66.21Z" transform="matrix(1 0 0 1 -30.18 -31.48)" fill="rgb(238,238,239)" stroke="none" stroke-width="1.333333"/><path id="e0uHvWqTM6a15" d="M151.41,64.66C153.440848,65.313895,155.503486,65.864599,157.59,66.31L157.99,64.46C155.99,64.03,153.99,63.46,151.99,62.86Z" transform="matrix(1 0 0 1 -30.18 -31.48)" fill="rgb(238,238,239)" stroke="none" stroke-width="1.333333"/><path id="e0uHvWqTM6a16" d="M160.38,67.07C162.509603,67.268265,164.617692,67.653075,166.68,68.22L167.18,66.39C165.011967,65.798224,162.797191,65.393408,160.56,65.18Z" transform="matrix(1 0 0 1 -30.18 -31.48)" fill="rgb(238,238,239)" stroke="none" stroke-width="1.333333"/><rect id="e0uHvWqTM6a17" width="2.52" height="8.293333" rx="0" ry="0" transform="matrix(0.254939 -0.966957 0.966957 0.254939 176.694303 -12.750263)" fill="rgb(238,238,239)" stroke="none" stroke-width="1.333333"/><path id="e0uHvWqTM6a18" d="M123.87,69C122.57,69.28,121.24,69.5,119.87,69.67L118.6,69.82L119.11,70.99C119.702815,72.325745,120.43344,73.595961,121.29,74.78L122.82,73.66C122.29055,72.932926,121.815907,72.167481,121.4,71.37C122.34,71.22,123.29,71.05,124.22,70.85Z" transform="matrix(1 0 0 1 -30.18 -31.48)" fill="rgb(238,238,239)" stroke="none" stroke-width="1.333333"/><path id="e0uHvWqTM6a19" d="M162.8,85.25C164.21,85.01,165.65,84.83,167.08,84.71L168.84,84.57L167.75,83.18C167.02,82.26,166.33,81.31,165.7,80.35L164.12,81.35C164.47,81.89,164.85,82.42,165.23,82.95C164.31,83.06,163.39,83.19,162.48,83.34Z" transform="matrix(1 0 0 1 -30.18 -31.48)" fill="rgb(238,238,239)" stroke="none" stroke-width="1.333333"/><path id="e0uHvWqTM6a20" d="M139.89,90.35C137.176707,89.440216,134.356163,88.888882,131.5,88.71C130.519016,88.60736,129.576372,89.120445,129.13,90C126.99,93.11,124.73,96,122.33,99.06L119.44,102.76L121.08,103.04C129.65,104.46,136.63,106.65,144.71,109.19L145.2,109.35C145.343342,109.389498,145.491316,109.409676,145.64,109.41C146.93,109.41,148.42,107.75,150.64,104.83L150.99,104.37C151.82,103.37,152.61,102.27,153.4,101.2C154.670302,99.397962,156.053049,97.677878,157.54,96.05C157.7802,95.815951,157.929111,95.503948,157.96,95.17C157.967585,94.512444,157.490014,93.949593,156.84,93.85C155.371627,93.501291,153.881665,93.250736,152.38,93.1L151,93C150.133846,92.86382,149.278386,92.666663,148.44,92.41C147.541364,92.143037,146.626026,91.935916,145.7,91.79C143.73273,91.443204,141.791521,90.962078,139.89,90.35ZM150.76,94.92L152.09,95.08C153.15,95.21,154.24,95.35,155.28,95.55C154.01,97,152.87,98.55,151.76,100.04C150.99,101.04,150.22,102.14,149.4,103.15L149.01,103.67C146.87,106.54,146.01,107.28,145.65,107.44L145.3,107.33C138.004756,104.863828,130.555383,102.879556,123,101.39L123.86,100.3C126.17,97.3,128.55,94.3,130.73,91.14C130.824817,90.971544,130.950309,90.822311,131.1,90.7C131.209746,90.689423,131.320254,90.689423,131.43,90.7C134.114119,90.875745,136.763486,91.403601,139.31,92.27C141.306001,92.898734,143.344578,93.383313,145.41,93.72C146.250822,93.863513,147.082307,94.057192,147.9,94.3C148.838414,94.570318,149.793888,94.777449,150.76,94.92Z" transform="matrix(1 0 0 1 -30.18 -31.48)" fill="rgb(238,238,239)" stroke="none" stroke-width="1.333333"/><path id="e0uHvWqTM6a21" d="M113.4,105.44C113.053655,104.224239,112.399188,103.118534,111.5,102.23C109.122507,99.848101,105.863569,98.55901,102.5,98.67C99.217829,98.792469,96.073811,100.022583,93.58,102.16C91.377217,103.919101,89.943186,106.464506,89.58,109.26C89.26,112.75,90.86,114.26,93.58,115.59C95.504553,116.60036,97.636898,117.151416,99.81,117.2C102.184425,117.140303,104.508374,116.501818,106.58,115.34C108.464997,114.47229,110.163203,113.246186,111.58,111.73C113.171986,110.053218,113.850626,107.707808,113.4,105.44ZM110.22,110.44C108.95091,111.773518,107.436604,112.84983,105.76,113.61L105.76,113.61C101.62,115.73,98.46,115.8,94.46,113.84C91.99,112.62,91.33,111.62,91.54,109.39C91.842215,107.094984,93.025742,105.007672,94.84,103.57C97.006711,101.702656,99.741925,100.62408,102.6,100.51L102.85,100.51C105.581265,100.490799,108.205231,101.572104,110.13,103.51C110.802817,104.165419,111.298283,104.980875,111.57,105.88C111.880514,107.544005,111.379068,109.25635,110.22,110.49Z" transform="matrix(1 0 0 1 -30.18 -31.48)" fill="rgb(238,238,239)" stroke="none" stroke-width="1.333333"/><polygon id="e0uHvWqTM6a22" points="91.87,53.88 80.64,51.25 78.99,52.66 90.41,55.47 91.87,53.88" fill="rgb(238,238,239)" stroke="none" stroke-width="1.333333"/><polygon id="e0uHvWqTM6a23" points="90.22,61.45 74.19,57.42 72.55,58.82 88.76,63.04 90.22,61.45" fill="rgb(238,238,239)" stroke="none" stroke-width="1.333333"/><polygon id="e0uHvWqTM6a24" points="94.86,58.64 77.03,54.18 75.38,55.59 93.4,60.23 94.86,58.64" fill="rgb(238,238,239)" stroke="none" stroke-width="1.333333"/><polygon id="e0uHvWqTM6a25" points="101.03,80.16 89.8,77.54 88.15,78.94 99.56,81.75 101.03,80.16" fill="rgb(238,238,239)" stroke="none" stroke-width="1.333333"/><polygon id="e0uHvWqTM6a26" points="81.7,85.11 97.92,89.32 99.38,87.73 83.35,83.7 81.7,85.11" fill="rgb(238,238,239)" stroke="none" stroke-width="1.333333"/><polygon id="e0uHvWqTM6a27" points="84.54,81.87 102.56,86.51 104.02,84.93 86.19,80.47 84.54,81.87" fill="rgb(238,238,239)" stroke="none" stroke-width="1.333333"/><polygon id="e0uHvWqTM6a28" points="144.83,100.3 162.84,104.94 164.31,103.35 146.48,98.9 144.83,100.3" fill="rgb(238,238,239)" stroke="none" stroke-width="1.333333"/><polygon id="e0uHvWqTM6a29" points="142.18,103.82 173.31,111.81 174.77,110.23 143.83,102.42 142.18,103.82" fill="rgb(238,238,239)" stroke="none" stroke-width="1.333333"/><polygon id="e0uHvWqTM6a30" points="139.44,107.38 157.45,112.02 158.92,110.44 141.09,105.98 139.44,107.38" fill="rgb(238,238,239)" stroke="none" stroke-width="1.333333"/><path id="e0uHvWqTM6a31" d="M204.1,151.36L203.69,151.31C194.306388,150.060262,185.043988,148.026481,176,145.23L174.74,144.83C170.95,143.65,167.37,142.53,163.45,142.41L162.19,142.41L181.71,117.24L187.01,110.41C187.18,110.18,187.37,109.9,187.56,109.6C188.132556,108.505747,189.011777,107.6022,190.09,107C191.37,106.52,192.96,107,194.36,107.47C194.76,107.59,195.14,107.71,195.47,107.79L224.83,114.91C224.99,114.91,225.24,114.99,225.55,115.04C227.55,115.36,229.07,115.68,229.33,116.65C229.375982,117.214351,229.158134,117.768201,228.74,118.15C228.258486,118.709863,227.747777,119.243938,227.21,119.75C226.93,120.03,226.7,120.25,226.58,120.39C218.476362,130.078236,211.039288,140.305047,204.32,151ZM164.69,141.19C168.237119,141.600258,171.726153,142.412129,175.09,143.61L176.35,144C185.202967,146.741829,194.267041,148.748635,203.45,150C210.127266,139.362142,217.517518,129.188851,225.57,119.55C225.7,119.39,225.96,119.13,226.29,118.81C226.62,118.49,227.29,117.81,227.71,117.32L227.71,117.32C227.818969,117.192464,227.916041,117.055226,228,116.91C227.132777,116.60337,226.233778,116.395392,225.32,116.29L224.5,116.14L195.14,109C194.78,108.92,194.38,108.79,193.95,108.65C192.8,108.29,191.38,107.84,190.51,108.16C189.82,108.42,189.15,109.44,188.61,110.27C188.39,110.59,188.18,110.9,187.99,111.15L182.69,117.99Z" transform="matrix(1 0 0 1 -30.18 -31.48)" fill="rgb(238,238,239)" stroke="none" stroke-width="1.333333"/><path id="e0uHvWqTM6a32" d="M207.61,136.67C206.237788,136.581146,204.888028,136.27745,203.61,135.77C203.06,135.58,202.53,135.4,202.06,135.28L182.62,130.34L181.96,130.18C180.57,129.88,178.66,129.45,178.69,127.18C178.69,125.73,179.87,124.3,180.8,123.18C181.05,122.87,181.28,122.59,181.47,122.33C184.14,118.64,186.68,115.38,189.24,112.33C189.673442,111.655793,190.440569,111.272229,191.24,111.33C197.96,112.65,204.7,114.42,211.24,116.14C214.24,116.92,217.17,117.7,220.14,118.44L220.14,118.44L220.86,118.62C221.218585,118.677185,221.493681,118.968705,221.53,119.33C221.535337,119.528622,221.471734,119.722965,221.35,119.88C220.63,120.88,219.9,121.81,219.17,122.78C217.73,124.68,216.24,126.65,214.83,128.62C214.250837,129.46058,213.723202,130.33552,213.25,131.24C212.438322,132.917389,211.353547,134.44824,210.04,135.77C209.378278,136.375276,208.506348,136.698213,207.61,136.67ZM190.95,112.67C190.85,112.67,190.65,112.76,190.25,113.23C187.71,116.23,185.19,119.46,182.54,123.12C182.34,123.4,182.09,123.7,181.83,124.03C181.02,125.03,180.02,126.25,180,127.25C179.98,128.25,180.65,128.59,182.27,128.95L182.96,129.11L202.4,134C202.9,134.13,203.47,134.32,204.05,134.52C205.91,135.14,208.05,135.86,209.14,134.85C210.363794,133.620416,211.377288,132.198146,212.14,130.64C212.639321,129.695016,213.193605,128.780114,213.8,127.9C215.21,125.9,216.71,123.9,218.15,122.03C218.73,121.27,219.32,120.5,219.89,119.73L219.84,119.73C216.84,118.99,213.9,118.21,210.93,117.43C204.43,115.72,197.71,113.96,191.04,112.64Z" transform="matrix(1 0 0 1 -30.18 -31.48)" fill="rgb(238,238,239)" stroke="none" stroke-width="1.333333"/><path id="e0uHvWqTM6a33" d="M181.19,84.79C180.035122,82.641276,178.057482,81.05339,175.71,80.39L175.36,81.62C177.376209,82.19291,179.072799,83.561012,180.06,85.41C181.119565,87.312326,181.371729,89.560189,180.76,91.65C180.025663,93.709404,178.932079,95.622331,177.53,97.3L176.18,99.06C170.81,106.06,165.26,113.21,164.04,122.25C163.54,125.93,164.86,128.71,167.66,129.87C168.15,130.07,168.66,130.23,169.15,130.4L167.66,130.8L168,132L171.26,131.13C171.573266,131.266639,171.877249,131.423641,172.17,131.6L172.85,130.52C172.511599,130.309219,172.157177,130.125321,171.79,129.97L171.58,127.1L170.3,127.2L170.47,129.45L169.78,129.22C169.24,129.04,168.69,128.86,168.16,128.64C165.16,127.39,165.08,124.18,165.33,122.38C166.5,113.69,171.94,106.63,177.2,99.8L178.56,98.04C180.057186,96.247573,181.222149,94.202114,182,92C182.705756,89.585112,182.413996,86.988092,181.19,84.79Z" transform="matrix(1 0 0 1 -30.18 -31.48)" fill="rgb(238,238,239)" stroke="none" stroke-width="1.333333"/><ellipse id="e0uHvWqTM6a34" rx="2.973333" ry="4.013333" transform="matrix(0.258819 -0.965926 0.965926 0.258819 186.797284 -0.339346)" fill="rgb(238,238,239)" stroke="none" stroke-width="1.333333"/><ellipse id="e0uHvWqTM6a35" rx="1.373333" ry="1.853333" transform="matrix(0.258819 -0.965926 0.965926 0.258819 186.797284 -0.339346)" fill="rgb(24,127,196)" stroke="none" stroke-width="1.333333"/><polygon id="e0uHvWqTM6a36" points="37.28,94.42 55.56,97.86 56.92,96.18 38.84,92.91 37.28,94.42" fill="rgb(238,238,239)" stroke="none" stroke-width="1.333333"/><polygon id="e0uHvWqTM6a37" points="34.24,97.92 75.4,105.98 76.75,104.3 35.79,96.41 34.24,97.92" fill="rgb(238,238,239)" stroke="none" stroke-width="1.333333"/><polygon id="e0uHvWqTM6a38" points="145.52,26.27 186.68,34.33 188.04,32.65 147.08,24.76 145.52,26.27" fill="rgb(238,238,239)" stroke="none" stroke-width="1.333333"/></g></g><clipPath id="e0uHvWqTM6a39" transform="matrix(1 0 0 1 -30.18 -31.48)"><path id="e0uHvWqTM6a40" d="M201,166.43C196.53,162.32,196,155.22,199,150.25C199.357366,149.655805,199.76556,149.093701,200.22,148.57C202.48,144.16,208.03,140.57,211.61,137.57Q220.33,130.33,228.81,122.8C238.470451,114.11613,247.650717,104.912496,256.31,95.23C262.61,88.29,268.81,81.23,274.81,74.06C277.072657,71.49681,279.186141,68.805707,281.14,66C280.49,65.9,279.85,65.79,279.23,65.67L264.35,62.67L240.93,57.91L171.43,43.77L143.51,38C135.45,36.36,127.57,35.22,120.12,31.72C119.777616,31.49582,119.357688,31.423418,118.96,31.52C118.590445,31.737681,118.329228,32.100483,118.24,32.52C115.24,40.73,107.32,47.23,101.6,53.62C95.38,60.58,89.2,67.56,83,74.46L58.56,101.68C50.33,110.87,42.46,121.38,30.99,126.68C30.727391,126.771995,30.493107,126.930481,30.31,127.14C29.97,127.64,30.31,128.32,30.68,128.8C35.48,135.12,46.62,135.42,54.01,136.92L81.79,142.57L151.4,156.74C160.12,158.51,168.82,160.34,177.53,162.15C186.48,164.02,194.86,167.54,204.06,168.22C204.69,168.22,205.32,168.29,205.96,168.29C204.964026,168.306577,203.973717,168.137004,203.04,167.79C202.285286,167.46021,201.594696,166.999817,201,166.43Z" fill="none" stroke="none" stroke-width="1.333333"/></clipPath></g></g><g id="e0uHvWqTM6a41_to" transform="translate(259.81704,87.706484)"><g id="e0uHvWqTM6a41" transform="translate(-259.81704,-87.706484)"><path id="e0uHvWqTM6a42" style="mix-blend-mode:multiply" d="M274.43,132C274.545712,133.134811,275.33597,134.087072,276.43,134.41C278.15,135.05,280.1,134.83,281.83,135.41C283.278794,136.037664,284.585154,136.952796,285.67,138.1C287.67,139.92,289.6,141.74,291.45,143.67C292.992849,145.515638,294.790939,147.131898,296.79,148.47C298.88,149.66,301.61,150.07,303.64,148.78C305.67,147.49,306.32,144.19,304.48,142.66C303.751375,142.137242,302.924952,141.766543,302.05,141.57C298.9497,140.599093,295.967806,139.284242,293.16,137.65C291.336199,136.444517,289.420273,135.384572,287.43,134.48C284.72,133.4,281.48,133.26,278.97,131.7C277.83,131,274.52,128.68,274.43,132Z" transform="matrix(1 0 0 1 -30.18 -31.48)" opacity="0.3" fill="rgb(159,160,160)" stroke="none" stroke-width="1.333333"/><path id="e0uHvWqTM6a43" d="M277.31,132.23L277.17,132.17C276.888382,132.083678,276.647092,131.899162,276.49,131.65C276.398101,131.362069,276.423247,131.049534,276.56,130.78C277.31,128.91,280.04,130.32,281.56,130.15C281.955424,130.061788,282.367646,130.086036,282.75,130.22C282.96583,130.34926,283.144875,130.531747,283.27,130.75C283.526531,131.153747,283.61951,131.640098,283.53,132.11C283.37,132.79,282.78,133.05,282.16,133.2C280.61,133.56,278.75,132.84,277.31,132.23Z" transform="matrix(1 0 0 1 -30.18 -31.48)" fill="rgb(197,179,129)" stroke="none" stroke-width="1.333333"/><path id="e0uHvWqTM6a44" d="M279.89,129.64C278.982744,128.253904,278.439352,126.661558,278.31,125.01C278.31,123.58,279.46,122.45,280.42,121.49C281.716568,120.078164,283.176879,118.825989,284.77,117.76C286.376223,116.69011,288.282123,116.161082,290.21,116.25C291.573609,116.320788,292.858298,116.911244,293.8,117.9C295.5,119.78,294.8,122.72,293.74,124.77C292.797138,126.679222,291.06465,128.079101,289,128.6C287.964685,128.885233,286.893702,129.019947,285.82,129C285,129,284.15,128.89,283.55,129.59C283.319432,129.905937,283.115402,130.240412,282.94,130.59C282.759413,130.953856,282.425637,131.217943,282.03,131.31C281.817066,131.333379,281.601895,131.295203,281.41,131.2C280.754009,130.849955,280.222891,130.30486,279.89,129.64Z" transform="matrix(1 0 0 1 -30.18 -31.48)" fill="rgb(90,117,119)" stroke="none" stroke-width="1.333333"/><path id="e0uHvWqTM6a45" d="M296.16,143.09C297.58,143.57,299.1,144.09,300.06,142.5C300.544381,141.665174,300.544381,140.634826,300.06,139.8C299.418517,138.903417,298.533609,138.209372,297.51,137.8C296.653585,137.305581,295.75709,136.884095,294.83,136.54C293.92,136.27,292.97,136.14,292.08,135.82C291.30072,135.605813,290.590718,135.192219,290.02,134.62C289.634101,134.099463,289.427112,133.467973,289.43,132.82C289.33,129.13,292.86,126.43,292.84,122.63C292.868209,122.212553,292.785404,121.795078,292.6,121.42C292.217681,120.881062,291.633128,120.520227,290.98,120.42C288.22,119.77,283.53,120.77,282.62,123.94C281.805799,127.159362,281.562113,130.49651,281.9,133.8C281.920187,134.477657,282.027742,135.149875,282.22,135.8C282.33448,136.14987,282.488828,136.485409,282.68,136.8C283.528587,138.052392,284.760063,138.996173,286.19,139.49C289.45,140.87,292.85,142,296.16,143.09Z" transform="matrix(1 0 0 1 -30.18 -31.48)" fill="rgb(120,144,147)" stroke="none" stroke-width="1.333333"/><path id="e0uHvWqTM6a46" d="M298.27,143L298.33,143.14C298.65,143.79,299.39,144.8,299.33,145.56C299.27,146.32,298.55,146.28,298.09,146.78C297.865714,147.026162,297.766263,147.361348,297.82,147.69C297.836177,147.799698,297.881021,147.903183,297.95,147.99C298.01276,148.039066,298.07968,148.082564,298.15,148.12C299.841632,148.799913,301.777778,148.352803,303,147C303.151603,146.845216,303.270617,146.661594,303.35,146.46C303.416721,146.212459,303.433715,145.954148,303.4,145.7C303.31,144.51,303,143.34,302.81,142.19C302.68,141.37,302.45,140.05,301.52,139.75C300.888223,139.444975,300.151777,139.444975,299.52,139.75C298.06,140.55,297.66,141.63,298.27,143Z" transform="matrix(1 0 0 1 -30.18 -31.48)" fill="rgb(197,179,129)" stroke="none" stroke-width="1.333333"/><g id="e0uHvWqTM6a47_tr" transform="translate(260.907891,87.706484) rotate(0)"><g id="e0uHvWqTM6a47" transform="translate(-260.907891,-87.706484)"><path id="e0uHvWqTM6a48" d="M265.65,103.85C265.434276,103.734811,265.262182,103.55218,265.16,103.33C265.078566,102.92799,265.310493,102.52856,265.7,102.4C266.084918,102.284936,266.495082,102.284936,266.88,102.4C267.606434,102.5266,268.292124,102.824876,268.88,103.27C269.51,103.8,270.47,105.36,269.16,105.59C268.18,105.78,266.41,104.37,265.65,103.85Z" transform="matrix(1 0 0 1 -30.18 -31.48)" fill="rgb(245,220,190)" stroke="none" stroke-width="1.333333"/><path id="e0uHvWqTM6a49" d="M270.59,103.31C270.31417,103.279524,270.035146,103.32086,269.78,103.43C269.520182,103.593225,269.306683,103.820497,269.16,104.09C268.724178,104.584042,268.559608,105.261022,268.72,105.9C268.917367,106.277919,269.243827,106.572443,269.64,106.73C270.696588,107.238831,271.827379,107.57638,272.99,107.73C274.048696,107.949961,275.141304,107.949961,276.2,107.73C278.08,107.23,280.2,103.81,277.11,103.53C276.31,103.46,275.5,103.9,274.69,103.9C273.32,103.84,272,103.36,270.59,103.31Z" transform="matrix(1 0 0 1 -30.18 -31.48)" fill="rgb(150,44,42)" stroke="none" stroke-width="1.333333"/><path id="e0uHvWqTM6a50" d="M270.47,93.29C271.028098,92.688328,271.757755,92.272877,272.56,92.1C279.56,90.54,279.7,99.51,276.48,103.25C275.761586,104.476959,274.391441,105.169751,272.977431,105.021022C271.56342,104.872292,270.367406,103.909583,269.92,102.56C268.62,100.08,268.39,95.53,270.47,93.29Z" transform="matrix(1 0 0 1 -30.18 -31.48)" fill="rgb(245,220,190)" stroke="none" stroke-width="1.333333"/><path id="e0uHvWqTM6a51" d="M279.26,98.88Q279.26,99.3,279.17,99.72C279.17,99.84,279.07,99.99,278.96,99.95C278.85,99.91,278.85,99.8,278.76,99.78C278.67,99.76,278.61,99.87,278.58,99.96L278.25,100.96C278.181078,100.865487,278.127113,100.76093,278.09,100.65C278.14,100.8,277.88,101.2,277.79,101.32C277.676749,101.427529,277.548806,101.518436,277.41,101.59C277.009996,101.883737,276.56849,102.116286,276.1,102.28C275.545727,102.459854,274.971395,102.57069,274.39,102.61C273.917436,102.678014,273.436937,102.559682,273.05,102.28C272.755516,102.038588,272.623695,101.65088,272.71,101.28C272.827714,100.957059,272.827714,100.602941,272.71,100.28C272.65378,100.13312,272.537371,100.017335,272.390192,99.961904C272.243013,99.906473,272.079145,99.9167,271.94,99.99C271.786127,100.085532,271.664261,100.224807,271.59,100.39C271.567214,100.473297,271.513585,100.544802,271.44,100.59C271.368825,100.615164,271.291175,100.615164,271.22,100.59C270.996347,100.534839,270.785697,100.436309,270.6,100.3C270.4,100.17,270.3,100.3,270.08,100.24C269.86,100.18,269.94,100.06,269.84,100.02L269.66,100.37L269.66,100.37C269.634118,100.379151,269.605882,100.379151,269.58,100.37C269.428389,100.277544,269.304132,100.146384,269.22,99.99C268.94,99.54,268.68,99.08,268.44,98.6C268.350604,98.438281,268.289715,98.262379,268.26,98.08C268.26,98,268.21,97.54,268.13,97.6L267.99,97.71C267.910315,97.42731,267.879871,97.133016,267.9,96.84C267.9,96.67,267.9,96.31,268.1,96.19L267.78,96.42C267.73,96.42,267.65,96.49,267.61,96.42C267.604322,96.393636,267.604322,96.366364,267.61,96.34C267.724467,95.8764,267.881812,95.424453,268.08,94.99C268.278188,94.555547,268.02,94.99,267.99,94.99L267.66,95.11C267.637623,95.119446,267.612377,95.119446,267.59,95.11C267.574979,95.089084,267.574979,95.060916,267.59,95.04C267.636999,94.664362,267.778019,94.306655,268,94C268.24,93.73,268.56,93.64,268.82,93.41C268.82,93.41,268.89,93.35,268.89,93.3L268.48,93.17C268.442694,93.157523,268.408565,93.137046,268.38,93.11C268.349632,93.057402,268.349632,92.992598,268.38,92.94C268.795952,92.202653,269.539161,91.708419,270.38,91.61C270.43,91.61,270.49,91.61,270.5,91.54C270.482274,91.523024,270.472249,91.499544,270.472249,91.475C270.472249,91.450456,270.482274,91.426976,270.5,91.41C270.531924,91.366177,270.577745,91.334455,270.63,91.32C270.919783,91.218811,271.217474,91.141879,271.52,91.09C271.46,90.94,271.2,90.89,271.24,90.74C271.274831,90.671225,271.343119,90.6257,271.42,90.62C271.844321,90.508181,272.281194,90.451052,272.72,90.45C272.81,90.45,272.93,90.45,272.97,90.36C272.883671,90.2879,272.812324,90.199565,272.76,90.1C273.454734,90.113159,274.137863,90.280526,274.76,90.59C275.078874,90.748344,275.38629,90.928784,275.68,91.13C275.93,91.3,276.14,91.57,276.46,91.56C277.104969,91.531472,277.750241,91.609174,278.37,91.79C278.20618,91.846964,278.048678,91.920688,277.9,92.01L278.59,92.44C278.631155,92.456263,278.663737,92.488845,278.68,92.53C278.68,92.61,278.59,92.65,278.52,92.65C278.452286,92.6247,278.377714,92.6247,278.31,92.65C278.696883,92.885992,279.058747,93.16074,279.39,93.47L279.04,93.55C279.04,93.55,279.04,93.55,278.99,93.55C278.980994,93.568986,278.980994,93.591014,278.99,93.61C279.14,93.92,279.28,94.24,279.46,94.54C279.533833,94.651269,279.581682,94.777726,279.6,94.91C279.618318,95.042274,279.55,94.91,279.52,94.91C279.397426,94.864787,279.269832,94.834567,279.14,94.82C279.394247,95.215244,279.55499,95.663274,279.61,96.13C279.54707,96.126466,279.487173,96.101802,279.44,96.06C279.53,96.61,279.65,97.16,279.7,97.71C279.716077,97.737846,279.716077,97.772154,279.7,97.8C279.683923,97.827846,279.61,97.8,279.58,97.8C279.551595,97.764939,279.517849,97.734567,279.48,97.71C279.21,97.6,279.31,98.36,279.31,98.48C279.31,98.6,279.26,98.8,279.26,98.88Z" transform="matrix(1 0 0 1 -30.18 -31.48)" fill="rgb(41,37,38)" stroke="none" stroke-width="1.333333"/><path id="e0uHvWqTM6a52" d="M283.51,125.86L283.74,125.86C284.963403,125.962932,286.190909,125.716737,287.28,125.15C289.199141,124.316731,291.020216,123.273721,292.71,122.04C292.71,121.93,294.05,120.76,294.2,120.52C294.586489,119.952514,294.855129,119.313219,294.99,118.64C295.369428,116.761345,294.860135,114.812746,293.61,113.36C292.67,112.16,291.52,111.15,290.56,109.98C289.01,108.08,288,105.81,286.56,103.8C285.508904,102.136296,283.973333,100.83455,282.16,100.07C280.49,99.5,279.03,100.31,277.68,101.28C276.64123,102.029036,275.688741,102.890971,274.84,103.85C274.179357,104.626553,273.564962,105.441294,273,106.29C272.374103,107.037029,271.950572,107.932298,271.77,108.89C271.68,110.1,273.61,111.5,274.38,112.52C275.435851,113.9815,276.27455,115.588164,276.87,117.29C277.82,119.74,278.61,121.88,280.47,123.85C281.26197,124.806215,282.320006,125.505772,283.51,125.86Z" transform="matrix(1 0 0 1 -30.18 -31.48)" fill="rgb(188,51,64)" stroke="none" stroke-width="1.333333"/><path id="e0uHvWqTM6a53" d="M257.54,113.25C257.29469,113.141786,257.073643,112.985352,256.89,112.79C256.752102,112.584355,256.656888,112.35312,256.61,112.11C256.399115,111.170795,256.451013,110.191649,256.76,109.28C256.799227,109.151775,256.863841,109.032748,256.95,108.93C257.200559,108.743094,257.530806,108.701339,257.82,108.82C258.526108,109.056286,259.183439,109.418834,259.76,109.89C260.84,110.7,262.9,112.53,262.01,114.11C261.12,115.69,258.55,113.78,257.54,113.25Z" transform="matrix(1 0 0 1 -30.18 -31.48)" fill="rgb(245,220,190)" stroke="none" stroke-width="1.333333"/><path id="e0uHvWqTM6a54" d="M270.82,109.21C270.605716,109.637402,270.428402,110.082359,270.29,110.54C270.17,110.89,269.99,111.23,269.84,111.54C269.594357,112.23861,269.05823,112.796621,268.37,113.07C267.07,113.46,265.57,112.83,264.37,112.3C263.341359,111.708903,262.14414,111.480023,260.97,111.65C260.12,111.82,259.97,112.36,259.67,113.07C259.317678,113.77212,259.284883,114.591983,259.58,115.32C259.888576,115.785061,260.316982,116.158188,260.82,116.4C263.29,117.81,267.66,120.14,270.5,118.77C272.419688,117.83916,274.076491,116.443596,275.32,114.71C276.230821,113.407206,276.567017,111.78768,276.25,110.23C276.03,109.04,275.63,106.72,274.08,106.57C273.607342,106.550377,273.140947,106.683633,272.75,106.95C271.920679,107.522235,271.255352,108.301322,270.82,109.21Z" transform="matrix(1 0 0 1 -30.18 -31.48)" fill="rgb(188,51,64)" stroke="none" stroke-width="1.333333"/></g></g></g></g><g id="e0uHvWqTM6a55"><path id="e0uHvWqTM6a56" style="mix-blend-mode:multiply" d="M233.65,105.93C230.05,105.42,226.42,106.03,222.81,105.93C219.6,105.86,217.21,104.55,214.25,103.56C212.57,103,208.7,102.37,207.19,103.71C205.68,105.05,207.19,107.18,208.64,107.71C209.980139,108.041974,211.360387,108.183366,212.74,108.13C217.15,108.42,221.07,111.22,225.47,111.62C226.453193,111.748872,227.452998,111.632056,228.38,111.28C229.04,111,229.61,110.54,230.27,110.28C231.515625,109.840034,232.874375,109.840034,234.12,110.28C234.71,110.46,235.27,110.69,235.87,110.81C237.87,111.22,240.21,111.44,242,110.23C242.32,110.01,242.64,109.68,242.58,109.3C242.52,108.92,242.13,108.69,241.77,108.53C241.083547,108.237796,240.382636,107.980795,239.67,107.76C239.08,107.57,238.61,107.27,238.04,107.06C236.619183,106.534124,235.148141,106.155473,233.65,105.93Z" transform="matrix(1 0 0 1 -30.18 -31.48)" opacity="0.3" fill="rgb(159,160,160)" stroke="none" stroke-width="1.333333"/><path id="e0uHvWqTM6a57" d="M214.18,99.63C214.227849,99.593543,214.282125,99.566405,214.34,99.55L214.76,99.37C214.86,99.37,214.97,99.27,214.99,99.17C215.01,99.07,214.9,98.92,214.79,98.85C213.85,98.22,211.79,97,210.69,97.77C209.78,98.43,209.89,99.77,210.19,100.68C210.65,102.12,209.66,103.37,210.56,104.76C210.914128,105.322138,211.467888,105.729419,212.11,105.9C212.438813,105.968902,212.774054,106.002426,213.11,106L214.2,106C214.27734,106.029174,214.36266,106.029174,214.44,106C214.504939,105.956756,214.554071,105.893585,214.58,105.82C214.794815,105.350051,214.794815,104.809949,214.58,104.34C214.286166,103.840435,214.098905,103.285462,214.03,102.71C213.98,101.84,214.03,100.95,214.03,100.08C214.014442,99.954369,214.042698,99.827218,214.11,99.72C214.126661,99.685359,214.150526,99.654675,214.18,99.63Z" transform="matrix(1 0 0 1 -30.18 -31.48)" fill="rgb(247,247,247)" stroke="none" stroke-width="1.333333"/><path id="e0uHvWqTM6a58" d="M226.15,91.44C225.692773,90.966609,225.182776,90.547203,224.63,90.19C223.06623,89.151736,221.183529,88.704993,219.32,88.93C218.560726,88.954485,217.841877,89.277967,217.32,89.83C216.924347,90.446992,216.754724,91.182025,216.84,91.91C216.995575,94.132732,217.630082,96.295514,218.7,98.25C219.2,99.25,219.7,100.19,220.3,101.15C220.54125,101.624273,220.808317,102.084964,221.1,102.53C221.317465,102.807559,221.517836,103.098096,221.7,103.4C221.282274,103.230911,220.886155,103.01271,220.52,102.75L216.42,100.06C215.24,99.29,214.54,98.59,213.27,99.56C212.41,100.21,212.55,101.3,212.91,102.25C213.51,103.87,215.25,105.25,216.52,106.39C218.22196,107.944591,220.142317,109.241674,222.22,110.24C223.343986,110.815399,224.598612,111.087694,225.86,111.03C226.616618,111.062784,227.348922,110.758878,227.86,110.2C228.351796,109.439302,228.554071,108.527291,228.43,107.63C228.331841,104.21046,228.04809,100.798772,227.58,97.41C227.37,95.97,227.19,94.52,227.01,93.09C226.90545,92.462755,226.604294,91.884954,226.15,91.44Z" transform="matrix(1 0 0 1 -30.18 -31.48)" fill="rgb(119,200,232)" stroke="none" stroke-width="1.333333"/><path id="e0uHvWqTM6a59" d="M242.94,108C242.94,108,242.94,107.91,242.94,107.86C242.965002,107.76495,242.965002,107.66505,242.94,107.57C242.850636,107.395126,242.696247,107.26228,242.51,107.2C241.622212,106.746193,240.806667,106.163179,240.09,105.47C239.71,105.1,238.99,104.1,238.39,104.1C237.79,104.1,237.39,104.35,236.87,104.38C236.112332,104.392643,235.372515,104.14956,234.77,103.69C234.63,103.6,234.48,103.5,234.33,103.56C234.246883,103.593844,234.176792,103.653421,234.13,103.73C233.717802,104.459393,233.478333,105.273588,233.43,106.11C233.365011,106.482403,233.413801,106.865748,233.57,107.21C233.687075,107.415136,233.843379,107.595225,234.03,107.74C235.15,108.67,236.71,108.74,238.03,109.28C239.034658,109.823808,240.213214,109.949568,241.31,109.63C242.095781,109.400241,242.710241,108.785781,242.94,108Z" transform="matrix(1 0 0 1 -30.18 -31.48)" fill="rgb(247,247,247)" stroke="none" stroke-width="1.333333"/><path id="e0uHvWqTM6a60" d="M242.51,92.89C242.343664,92.599451,242.110578,92.352654,241.83,92.17C239.756992,90.818068,237.500646,89.770719,235.13,89.06C234.13,88.77,233.13,88.32,232.13,88.06C231.13,87.8,229.85,88.61,229.04,89.16C228.050446,89.827766,227.251071,90.740845,226.72,91.81C226.5,92.24,226.05,93.01,226.32,93.48C226.59,93.95,227.65,94.19,228.12,94.34C229.12,94.65,230.12,94.89,231.12,95.16C232.079474,95.334332,233.047491,95.457837,234.02,95.53C236.79,95.95,235.96,96.42,235.93,96.44C235.38,96.74,235.32,98.9,235.21,99.49L234.51,103.14C234.36893,103.57237,234.416106,104.044126,234.64,104.44C234.842822,104.662394,235.107479,104.819099,235.4,104.89C236.02,105.11,237.09,105.71,237.78,105.46C238.47,105.21,239.13,103.97,239.52,103.34C240.517593,101.557352,241.322147,99.673356,241.92,97.72C242.47,96.4,243.28,94.25,242.51,92.89Z" transform="matrix(1 0 0 1 -30.18 -31.48)" fill="rgb(119,200,232)" stroke="none" stroke-width="1.333333"/><g id="e0uHvWqTM6a61_tr" transform="translate(188.587466,60.08) rotate(0)"><g id="e0uHvWqTM6a61" transform="translate(-188.587466,-60.08)"><g id="e0uHvWqTM6a62_tr" transform="translate(210.353126,51.25) rotate(0)"><g id="e0uHvWqTM6a62" transform="translate(-210.353126,-51.25)"><path id="e0uHvWqTM6a63" d="M252.7,104C252.47971,103.490355,252.295914,102.9657,252.15,102.43C251.896144,101.825422,251.467933,101.310176,250.92,100.95C248.98,99.28,248.4,97.07,247.48,94.75C246.82,93.07,246.23,91.36,245.48,89.75C244.709684,88.462267,244.155671,87.056968,243.84,85.59C243.5,83.21,240.51,83.74,238.68,83.95C238.68,83.95,238.75,84.18,238.88,84.54L239.2,85.41C239.38,85.9,239.6,86.41,239.82,86.97C240.507345,88.676852,241.285113,90.345883,242.15,91.97C242.98,93.42,243.73,94.92,244.63,96.34C245.53,97.76,246.48,98.81,247.26,100.16C248.04,101.51,248.44,103.45,249.38,104.9C249.93,105.73,251.93,106.76,252.74,105.73C252.999829,105.260199,252.999829,104.689801,252.74,104.22Z" transform="matrix(1 0 0 1 -30.18 -31.48)" fill="rgb(245,220,190)" stroke="none" stroke-width="1.333333"/><path id="e0uHvWqTM6a64" d="M243.52,84.18C243.63,84.61,243.75,85.03,243.88,85.47C244.060279,85.884583,244.060279,86.355417,243.88,86.77C243.56,87.31,242.12,87.77,241.53,88C241.24772,88.22133,240.87833,88.298268,240.531158,88.208043C240.183986,88.117817,239.898798,87.870763,239.76,87.54C239.148107,86.595141,238.673376,85.568239,238.35,84.49C238.286847,83.824829,238.286847,83.155171,238.35,82.49L238.35,78.93C238.35,78.75,242.26,76.72,242.5,78.93C242.724272,80.700512,243.06501,82.454314,243.52,84.18Z" transform="matrix(1 0 0 1 -30.18 -31.48)" fill="rgb(242,150,0)" stroke="none" stroke-width="1.333333"/></g></g><path id="e0uHvWqTM6a65" d="M230.5,91C234.37,89.06,237.13,85.83,239.58,82.33C240.277968,81.544682,240.69332,80.548541,240.76,79.5C240.659757,78.883513,240.3696,78.313685,239.93,77.87C238.867194,76.60438,237.4208,75.719693,235.81,75.35C234.16,75.02,232.27,75.67,230.72,76.17C228.841637,76.776274,227.087207,77.714453,225.54,78.94C223.14,80.85,221.47,83.54,218.92,85.27C217.703347,85.92585,216.755046,86.987381,216.24,88.27C215.16,92.27,220.97,94.56,224.02,94.8C225.406809,94.910657,226.788973,94.535953,227.93,93.74C229,92.94,229.25,91.57,230.5,91Z" transform="matrix(1 0 0 1 -30.18 -31.48)" fill="rgb(247,181,44)" stroke="none" stroke-width="1.333333"/><path id="e0uHvWqTM6a66" style="mix-blend-mode:multiply" d="M234.7,90.64C234.605715,90.490356,234.50218,90.346743,234.39,90.21L234.17,90.21L235.75,92.91C235.465213,92.124841,235.113938,91.365419,234.7,90.64Z" transform="matrix(1 0 0 1 -30.18 -31.48)" fill="rgb(250,211,190)" stroke="none" stroke-width="1.333333"/><path id="e0uHvWqTM6a67" d="M237.34,97.74C237.34,97.74,237.43,97.85,237.58,98.06C237.512642,97.944412,237.432104,97.837028,237.34,97.74Z" transform="matrix(1 0 0 1 -30.18 -31.48)" fill="rgb(252,199,170)" stroke="none" stroke-width="1.333333"/><g id="e0uHvWqTM6a68_tr" transform="translate(198.285634,54.072349) rotate(0)"><g id="e0uHvWqTM6a68" transform="translate(-198.285634,-54.072349)"><path id="e0uHvWqTM6a69" d="M246,111.2C246.025596,111.07126,246.025596,110.93874,246,110.81C245.916942,110.527003,245.769803,110.266944,245.57,110.05C244.952533,109.285958,244.284357,108.564329,243.57,107.89C242.83,107.18,241.76,107.25,241.22,106.45C240.571228,105.215721,240.048583,103.919161,239.66,102.58L238,98.51C237.097888,95.806506,235.99136,93.175577,234.69,90.64C234.050359,89.669646,233.062233,88.982254,231.93,88.72L229.4,90.47L229.28,90.56L229,90.75C230.74,93.91,232.5,97.06,234.2,100.24C234.847209,101.49407,235.628438,102.674295,236.53,103.76C237.23,104.6,237.65,105.6,238.26,106.49C238.904691,107.296864,239.464326,108.168152,239.93,109.09C240.116117,109.623512,240.350417,110.138973,240.63,110.63C241.205961,111.408568,242.020685,111.97747,242.95,112.25C243.583797,112.512523,244.28581,112.561664,244.95,112.39C245.490693,112.214298,245.892989,111.758363,246,111.2Z" transform="matrix(1 0 0 1 -30.18 -31.48)" fill="rgb(245,220,190)" stroke="none" stroke-width="1.333333"/><path id="e0uHvWqTM6a70" d="M235.18,90.72C235.295007,91.231593,235.32541,91.758575,235.27,92.28C234.996529,93.89585,233.671616,95.126419,232.04,95.28C231.701881,95.316078,231.359983,95.27505,231.04,95.16C230.281235,94.772979,229.698386,94.111463,229.41,93.31C228.477124,91.324914,227.804882,89.22752,227.41,87.07C227.09,85.44,226.59,83.95,227.41,82.3C227.92,81.23,230.41,79.85,232.72,80.83C234.298368,81.340996,235.341664,82.842524,235.27,84.5C235.029991,85.629279,234.853051,86.771046,234.74,87.92C234.810543,88.863715,234.957694,89.800133,235.18,90.72Z" transform="matrix(1 0 0 1 -30.18 -31.48)" fill="rgb(247,181,44)" stroke="none" stroke-width="1.333333"/></g></g><g id="e0uHvWqTM6a71_tr" transform="translate(205.57,46.426541) rotate(0)"><g id="e0uHvWqTM6a71" transform="translate(-205.57,-46.426541)"><path id="e0uHvWqTM6a72" d="M245.16,84.61C243.682824,84.036381,242.37778,83.092893,241.37,81.87C240.362681,80.598811,240.254897,78.834346,241.1,77.45C241.823546,76.633151,242.762851,76.036986,243.81,75.73C244.06,75.63,244.91,75.23,245.1,75.54C245.29,75.85,244.78,76.46,244.69,76.69C244.360854,77.55636,244.158761,78.465777,244.09,79.39C244.021288,80.29685,244.078498,81.208846,244.26,82.1C244.36,82.58,244.68,84.39,245.16,84.61Z" transform="matrix(1 0 0 1 -30.18 -31.48)" fill="rgb(96,76,63)" stroke="none" stroke-width="1.333333"/><path id="e0uHvWqTM6a73" d="M239.43,70.78C239.809792,70.378525,240.232297,70.019731,240.69,69.71C241.258374,69.258472,241.96412,69.014989,242.69,69.02C243.317654,69.031788,243.919096,69.273789,244.38,69.7C246.344473,71.744635,246.448048,74.94253,244.62,77.11C244.156941,77.686203,243.65582,78.230754,243.12,78.74C242.477097,79.42999,241.646261,79.916672,240.73,80.14C239.839393,80.24684,238.9403,80.026509,238.2,79.52C236.65,78.52,236.87,76.17,237.27,74.62C237.645207,73.174503,238.389519,71.851281,239.43,70.78Z" transform="matrix(1 0 0 1 -30.18 -31.48)" fill="rgb(245,220,190)" stroke="none" stroke-width="1.333333"/><path id="e0uHvWqTM6a74" d="M246.26,74.33C246.17,74.84,245.88,76.67,245.17,76.66C244.882184,76.616196,244.614036,76.487345,244.4,76.29C243.241304,75.462728,241.899939,74.927554,240.49,74.73C240.420759,74.727848,240.354087,74.703284,240.3,74.66C240.257586,74.604514,240.230049,74.539113,240.22,74.47C240.12,73.86,240.22,72.56,239.37,72.41C238.91468,72.359427,238.490351,72.647971,238.37,73.09C238.14,73.75,238.15,74.57,237.97,75.27C237.751673,76.201851,237.627715,77.153315,237.6,78.11C237.516206,79.595148,237.671518,81.084114,238.06,82.52C238.06,83.43,239.12,84.39,239.6,85.05C239.728029,85.179622,239.793675,85.358323,239.78,85.54C237.926974,85.643051,236.095767,85.098638,234.6,84C233.81,83.5,232.41,83,232.37,81.94C232.281377,79.394628,232.842333,76.868607,234,74.6C234.449657,73.757854,234.954074,72.946111,235.51,72.17C235.92172,71.456733,236.404149,70.786693,236.95,70.17C238.147207,68.985756,239.746985,68.296566,241.43,68.24C243.734783,68.0567,245.799003,69.66124,246.19,71.94C246.382649,72.722676,246.406511,73.537391,246.26,74.33Z" transform="matrix(1 0 0 1 -30.18 -31.48)" fill="rgb(96,76,63)" stroke="none" stroke-width="1.333333"/></g></g></g></g></g></g></svg>