<svg id="ehJBysYjnLA1" xmlns="http://www.w3.org/2000/svg" xmlns:xlink="http://www.w3.org/1999/xlink" viewBox="0 0 141 101" shape-rendering="geometricPrecision" text-rendering="geometricPrecision"><style><![CDATA[#ehJBysYjnLA98_tr {animation: ehJBysYjnLA98_tr__tr 2000ms linear infinite normal forwards}@keyframes ehJBysYjnLA98_tr__tr { 0% {transform: translate(109.752676px,41.921182px) rotate(0deg)} 50% {transform: translate(109.752676px,41.921182px) rotate(-9.922305deg)} 100% {transform: translate(109.752676px,41.921182px) rotate(0deg)}} #ehJBysYjnLA103_to {animation: ehJBysYjnLA103_to__to 2000ms linear infinite normal forwards}@keyframes ehJBysYjnLA103_to__to { 0% {transform: translate(125.380196px,34.466862px)} 50% {transform: translate(128.140219px,32.383602px)} 100% {transform: translate(125.380196px,34.466862px)}} #ehJBysYjnLA103_tr {animation: ehJBysYjnLA103_tr__tr 2000ms linear infinite normal forwards}@keyframes ehJBysYjnLA103_tr__tr { 0% {transform: rotate(0deg)} 50% {transform: rotate(3.016139deg)} 100% {transform: rotate(0deg)}}]]></style><defs><linearGradient id="ehJBysYjnLA97-fill" x1="135.04" y1="7.52" x2="134.5" y2="26.65" spreadMethod="pad" gradientUnits="userSpaceOnUse"><stop id="ehJBysYjnLA97-fill-0" offset="0%" stop-color="rgb(255,252,213)"/><stop id="ehJBysYjnLA97-fill-1" offset="100%" stop-color="rgb(249,224,143)"/></linearGradient></defs><g id="ehJBysYjnLA2" style="isolation:isolate"><g id="ehJBysYjnLA3"><path id="ehJBysYjnLA4" d="M129.35,97.77L135.94,99.14C136.120544,99.175634,136.307588,99.129224,136.450532,99.013323C136.593476,98.897423,136.677547,98.724011,136.68,98.54L136.68,90.85C136.684198,90.559518,136.476314,90.309209,136.19,90.26L129.6,88.89C129.420425,88.853969,129.234163,88.900533,129.092668,89.01683C128.951174,89.133126,128.869423,89.306846,128.87,89.49L128.87,97.18C128.868989,97.465912,129.069862,97.712819,129.35,97.77Z" transform="matrix(1 0 0 1 -110.059998 -46.169998)" fill="rgb(170,207,82)" stroke="none" stroke-width="1.333333"/><path id="ehJBysYjnLA5" d="M120.84,96L127.44,97.36C127.619575,97.396031,127.805837,97.349467,127.947332,97.23317C128.088826,97.116874,128.170577,96.943154,128.17,96.76L128.17,89.1C128.171896,88.811698,127.971686,88.561436,127.69,88.5L121.09,87.14C120.910425,87.103969,120.724163,87.150533,120.582668,87.26683C120.441174,87.383126,120.359423,87.556846,120.36,87.74L120.36,95.42C120.367382,95.700787,120.565548,95.940237,120.84,96Z" transform="matrix(1 0 0 1 -110.059998 -46.169998)" fill="rgb(7,170,127)" stroke="none" stroke-width="1.333333"/><path id="ehJBysYjnLA6" d="M120.84,86.37L127.44,87.73C127.618371,87.769592,127.805063,87.725751,127.947166,87.6109C128.089269,87.49605,128.171296,87.322708,128.17,87.14L128.17,79.45C128.171896,79.161698,127.971686,78.911436,127.69,78.85L121.09,77.49C120.910425,77.453969,120.724163,77.500533,120.582668,77.61683C120.441174,77.733126,120.359423,77.906846,120.36,78.09L120.36,85.78C120.362796,86.064552,120.561968,86.309368,120.84,86.37Z" transform="matrix(1 0 0 1 -110.059998 -46.169998)" fill="rgb(170,207,82)" stroke="none" stroke-width="1.333333"/><path id="ehJBysYjnLA7" d="M129.35,88.24L135.94,89.6C136.121056,89.639497,136.310249,89.594548,136.454192,89.477837C136.598136,89.361126,136.68122,89.18531,136.68,89L136.68,81.32C136.680917,81.028645,136.475664,80.777315,136.19,80.72L129.6,79.36C129.421629,79.320408,129.234937,79.364249,129.092834,79.4791C128.950731,79.59395,128.868704,79.767292,128.87,79.95L128.87,87.64C128.868104,87.928302,129.068314,88.178564,129.35,88.24Z" transform="matrix(1 0 0 1 -110.059998 -46.169998)" fill="rgb(7,170,127)" stroke="none" stroke-width="1.333333"/><path id="ehJBysYjnLA8" d="M120.84,76.92L127.44,78.28C127.619575,78.316031,127.805837,78.269467,127.947332,78.15317C128.088826,78.036874,128.170577,77.863154,128.17,77.68L128.17,70C128.167204,69.715448,127.968032,69.470632,127.69,69.41L121.09,68C120.912133,67.964296,120.727603,68.009613,120.58651,68.123648C120.445416,68.237682,120.3624,68.408601,120.36,68.59L120.36,76.28C120.338242,76.583116,120.542917,76.856015,120.84,76.92Z" transform="matrix(1 0 0 1 -110.059998 -46.169998)" fill="rgb(7,170,127)" stroke="none" stroke-width="1.333333"/><path id="ehJBysYjnLA9" d="M129.35,78.7L135.94,80.07C136.120544,80.105634,136.307588,80.059224,136.450532,79.943323C136.593476,79.827423,136.677547,79.654011,136.68,79.47L136.68,71.78C136.684198,71.489518,136.476314,71.239209,136.19,71.19L129.6,69.82C129.420425,69.783969,129.234163,69.830533,129.092668,69.94683C128.951174,70.063126,128.869423,70.236846,128.87,70.42L128.87,78.11C128.868989,78.395912,129.069862,78.642819,129.35,78.7Z" transform="matrix(1 0 0 1 -110.059998 -46.169998)" fill="rgb(170,207,82)" stroke="none" stroke-width="1.333333"/><path id="ehJBysYjnLA10" d="M146.23,101.24L152.82,102.61C153.001056,102.649497,153.190249,102.604548,153.334192,102.487837C153.478136,102.371126,153.56122,102.19531,153.56,102.01L153.56,94.32C153.560082,94.030987,153.354114,93.782986,153.07,93.73L146.48,92.36C146.299456,92.324366,146.112412,92.370776,145.969468,92.486677C145.826524,92.602577,145.742453,92.775989,145.74,92.96L145.74,100.65C145.739918,100.939013,145.945886,101.187014,146.23,101.24Z" transform="matrix(1 0 0 1 -110.059998 -46.169998)" fill="rgb(170,207,82)" stroke="none" stroke-width="1.333333"/><path id="ehJBysYjnLA11" d="M137.72,99.49L144.32,100.86C144.499033,100.892301,144.683218,100.844341,144.823761,100.728826C144.964305,100.613311,145.047022,100.441899,145.05,100.26L145.05,92.57C145.05503,92.282683,144.852331,92.033532,144.57,91.98L138,90.61C137.820425,90.573969,137.634163,90.620533,137.492668,90.73683C137.351174,90.853126,137.269423,91.026846,137.27,91.21L137.27,98.9C137.265829,99.176962,137.451794,99.420783,137.72,99.49Z" transform="matrix(1 0 0 1 -110.059998 -46.169998)" fill="rgb(7,170,127)" stroke="none" stroke-width="1.333333"/><path id="ehJBysYjnLA12" d="M137.72,89.84L144.32,91.21C144.499575,91.246031,144.685837,91.199467,144.827332,91.08317C144.968826,90.966874,145.050577,90.793154,145.05,90.61L145.05,82.92C145.051011,82.634088,144.850138,82.387181,144.57,82.33L138,81C137.820425,80.963969,137.634163,81.010533,137.492668,81.12683C137.351174,81.243126,137.269423,81.416846,137.27,81.6L137.27,89.29C137.283623,89.551999,137.465887,89.774766,137.72,89.84Z" transform="matrix(1 0 0 1 -110.059998 -46.169998)" fill="rgb(170,207,82)" stroke="none" stroke-width="1.333333"/><path id="ehJBysYjnLA13" d="M146.23,91.71L152.82,93.07C152.999346,93.109129,153.186778,93.065413,153.330307,92.950978C153.473836,92.836543,153.5582,92.663556,153.56,92.48L153.56,84.79C153.560917,84.498645,153.355664,84.247315,153.07,84.19L146.48,82.83C146.298944,82.790503,146.109751,82.835452,145.965808,82.952163C145.821864,83.068874,145.73878,83.24469,145.74,83.43L145.74,91.12C145.74751,91.406215,145.95003,91.650065,146.23,91.71Z" transform="matrix(1 0 0 1 -110.059998 -46.169998)" fill="rgb(7,170,127)" stroke="none" stroke-width="1.333333"/><path id="ehJBysYjnLA14" d="M137.72,80.39L144.32,81.75C144.498371,81.789592,144.685063,81.745751,144.827166,81.6309C144.969269,81.51605,145.051296,81.342708,145.05,81.16L145.05,73.47C145.051896,73.181698,144.851686,72.931436,144.57,72.87L138,71.51C137.820425,71.473969,137.634163,71.520533,137.492668,71.63683C137.351174,71.753126,137.269423,71.926846,137.27,72.11L137.27,79.8C137.269386,80.075777,137.453877,80.317665,137.72,80.39Z" transform="matrix(1 0 0 1 -110.059998 -46.169998)" fill="rgb(7,170,127)" stroke="none" stroke-width="1.333333"/><path id="ehJBysYjnLA15" d="M146.23,82.18L152.82,83.54C153.001056,83.579497,153.190249,83.534548,153.334192,83.417837C153.478136,83.301126,153.56122,83.12531,153.56,82.94L153.56,75.25C153.556185,74.962409,153.352001,74.716555,153.07,74.66L146.48,73.3C146.300654,73.260871,146.113222,73.304587,145.969693,73.419022C145.826164,73.533457,145.7418,73.706444,145.74,73.89L145.74,81.58C145.742911,81.869983,145.946445,82.119209,146.23,82.18Z" transform="matrix(1 0 0 1 -110.059998 -46.169998)" fill="rgb(170,207,82)" stroke="none" stroke-width="1.333333"/><path id="ehJBysYjnLA16" d="M163.11,104.72L169.7,106.08C169.881056,106.119497,170.070249,106.074548,170.214192,105.957837C170.358136,105.841126,170.44122,105.66531,170.44,105.48L170.44,97.8C170.440917,97.508645,170.235664,97.257315,169.95,97.2L163.36,95.84C163.178944,95.800503,162.989751,95.845452,162.845808,95.962163C162.701864,96.078874,162.61878,96.25469,162.62,96.44L162.62,104.12C162.622911,104.409983,162.826445,104.659209,163.11,104.72Z" transform="matrix(1 0 0 1 -110.059998 -46.169998)" fill="rgb(170,207,82)" stroke="none" stroke-width="1.333333"/><path id="ehJBysYjnLA17" d="M154.6,103L161.2,104.37C161.379575,104.406031,161.565837,104.359467,161.707332,104.24317C161.848826,104.126874,161.930577,103.953154,161.93,103.77L161.93,96C161.927204,95.715448,161.728032,95.470632,161.45,95.41L154.85,94.05C154.672133,94.014296,154.487603,94.059613,154.34651,94.173648C154.205416,94.287682,154.1224,94.458601,154.12,94.64L154.12,102.33C154.071633,102.646595,154.284672,102.943962,154.6,103Z" transform="matrix(1 0 0 1 -110.059998 -46.169998)" fill="rgb(7,170,127)" stroke="none" stroke-width="1.333333"/><path id="ehJBysYjnLA18" d="M154.6,93.32L161.2,94.68C161.379575,94.716031,161.565837,94.669467,161.707332,94.55317C161.848826,94.436874,161.930577,94.263154,161.93,94.08L161.93,86.39C161.927204,86.105448,161.728032,85.860632,161.45,85.8L154.85,84.44C154.672133,84.404296,154.487603,84.449613,154.34651,84.563648C154.205416,84.677682,154.1224,84.848601,154.12,85.03L154.12,92.72C154.118104,93.008302,154.318314,93.258564,154.6,93.32Z" transform="matrix(1 0 0 1 -110.059998 -46.169998)" fill="rgb(170,207,82)" stroke="none" stroke-width="1.333333"/><path id="ehJBysYjnLA19" d="M163.11,95.18L169.7,96.55C169.880544,96.585634,170.067588,96.539224,170.210532,96.423323C170.353476,96.307423,170.437547,96.134011,170.44,95.95L170.44,88.26C170.440082,87.970987,170.234114,87.722986,169.95,87.67L163.36,86.3C163.178944,86.260503,162.989751,86.305452,162.845808,86.422163C162.701864,86.538874,162.61878,86.71469,162.62,86.9L162.62,94.59C162.623815,94.877591,162.827999,95.123445,163.11,95.18Z" transform="matrix(1 0 0 1 -110.059998 -46.169998)" fill="rgb(7,170,127)" stroke="none" stroke-width="1.333333"/><path id="ehJBysYjnLA20" d="M154.6,83.86L161.2,85.23C161.379033,85.262301,161.563218,85.214341,161.703761,85.098826C161.844305,84.983311,161.927022,84.811899,161.93,84.63L161.93,76.94C161.93503,76.652683,161.732331,76.403532,161.45,76.35L154.85,75C154.670425,74.963969,154.484163,75.010533,154.342668,75.12683C154.201174,75.243126,154.119423,75.416846,154.12,75.6L154.12,83.29C154.128323,83.568373,154.327104,83.804425,154.6,83.86Z" transform="matrix(1 0 0 1 -110.059998 -46.169998)" fill="rgb(7,170,127)" stroke="none" stroke-width="1.333333"/><path id="ehJBysYjnLA21" d="M163.11,85.65L169.7,87C169.881056,87.039497,170.070249,86.994548,170.214192,86.877837C170.358136,86.761126,170.44122,86.58531,170.44,86.4L170.44,78.73C170.440917,78.438645,170.235664,78.187315,169.95,78.13L163.36,76.77C163.178944,76.730503,162.989751,76.775452,162.845808,76.892163C162.701864,77.008874,162.61878,77.18469,162.62,77.37L162.62,85.05C162.622911,85.339983,162.826445,85.589209,163.11,85.65Z" transform="matrix(1 0 0 1 -110.059998 -46.169998)" fill="rgb(170,207,82)" stroke="none" stroke-width="1.333333"/><path id="ehJBysYjnLA22" d="M180.09,108.2L186.69,109.56C186.867867,109.595704,187.052397,109.550387,187.19349,109.436352C187.334584,109.322318,187.4176,109.151399,187.42,108.97L187.42,101.28C187.421896,100.991698,187.221686,100.741436,186.94,100.68L180.34,99.32C180.160425,99.283969,179.974163,99.330533,179.832668,99.44683C179.691174,99.563126,179.609423,99.736846,179.61,99.92L179.61,107.6C179.608104,107.888302,179.808314,108.138564,180.09,108.2Z" transform="matrix(1 0 0 1 -110.059998 -46.169998)" fill="rgb(170,207,82)" stroke="none" stroke-width="1.333333"/><path id="ehJBysYjnLA23" d="M171.59,106.45L178.18,107.81C178.361056,107.849497,178.550249,107.804548,178.694192,107.687837C178.838136,107.571126,178.92122,107.39531,178.92,107.21L178.92,99.52C178.91249,99.233785,178.70997,98.989935,178.43,98.93L171.84,97.57C171.660654,97.530871,171.473222,97.574587,171.329693,97.689022C171.186164,97.803457,171.1018,97.976444,171.1,98.16L171.1,105.85C171.102911,106.139983,171.306445,106.389209,171.59,106.45Z" transform="matrix(1 0 0 1 -110.059998 -46.169998)" fill="rgb(7,170,127)" stroke="none" stroke-width="1.333333"/><path id="ehJBysYjnLA24" d="M171.59,96.8L178.18,98.16C178.361056,98.199497,178.550249,98.154548,178.694192,98.037837C178.838136,97.921126,178.92122,97.74531,178.92,97.56L178.92,89.88C178.917089,89.590017,178.713555,89.340791,178.43,89.28L171.84,87.92C171.658944,87.880503,171.469751,87.925452,171.325808,88.042163C171.181864,88.158874,171.09878,88.33469,171.1,88.52L171.1,96.2C171.102911,96.489983,171.306445,96.739209,171.59,96.8Z" transform="matrix(1 0 0 1 -110.059998 -46.169998)" fill="rgb(170,207,82)" stroke="none" stroke-width="1.333333"/><path id="ehJBysYjnLA25" d="M180.09,98.66L186.69,100.03C186.869575,100.066031,187.055837,100.019467,187.197332,99.90317C187.338826,99.786874,187.420577,99.613154,187.42,99.43L187.42,91.74C187.421011,91.454088,187.220138,91.207181,186.94,91.15L180.34,89.78C180.160967,89.747699,179.976782,89.795659,179.836239,89.911174C179.695695,90.026689,179.612978,90.198101,179.61,90.38L179.61,98.07C179.60497,98.357317,179.807669,98.606468,180.09,98.66Z" transform="matrix(1 0 0 1 -110.059998 -46.169998)" fill="rgb(7,170,127)" stroke="none" stroke-width="1.333333"/><path id="ehJBysYjnLA26" d="M171.59,87.34L178.18,88.71C178.361056,88.749497,178.550249,88.704548,178.694192,88.587837C178.838136,88.471126,178.92122,88.29531,178.92,88.11L178.92,80.42C178.916185,80.132409,178.712001,79.886555,178.43,79.83L171.84,78.46C171.659456,78.424366,171.472412,78.470776,171.329468,78.586677C171.186524,78.702577,171.102453,78.875989,171.1,79.06L171.1,86.75C171.099918,87.039013,171.305886,87.287014,171.59,87.34Z" transform="matrix(1 0 0 1 -110.059998 -46.169998)" fill="rgb(7,170,127)" stroke="none" stroke-width="1.333333"/><path id="ehJBysYjnLA27" d="M180.09,89.13L186.69,90.49C186.867867,90.525704,187.052397,90.480387,187.19349,90.366352C187.334584,90.252318,187.4176,90.081399,187.42,89.9L187.42,82.21C187.421896,81.921698,187.221686,81.671436,186.94,81.61L180.34,80.25C180.160425,80.213969,179.974163,80.260533,179.832668,80.37683C179.691174,80.493126,179.609423,80.666846,179.61,80.85L179.61,88.54C179.612796,88.824552,179.811968,89.069368,180.09,89.13Z" transform="matrix(1 0 0 1 -110.059998 -46.169998)" fill="rgb(170,207,82)" stroke="none" stroke-width="1.333333"/><path id="ehJBysYjnLA28" d="M131,102C140.152813,104.009396,149.415285,105.481909,158.74,106.41C156.63,108.48,155.51,111.31,153.99,113.85C152.65,116.09,150.99,118.12,149.43,120.23C147.228657,123.240773,145.262826,126.41686,143.55,129.73L137.87,127.62C136.354514,127.010261,134.792921,126.522055,133.2,126.16C130.2,125.57,127.04,125.91,124,125.48C119.23,124.8,114.86,122.25,110.07,121.77C113.66,118.64,116.07,114.43,119.33,110.9C120.594863,109.650088,121.771048,108.313514,122.85,106.9C123.85,105.46,124.44,103.18,125.85,102.07C127.26,100.96,129.53,101.69,131,102Z" transform="matrix(1 0 0 1 -110.059998 -46.169998)" fill="rgb(238,238,239)" stroke="none" stroke-width="1.333333"/><path id="ehJBysYjnLA29" d="M136.79,104.31L141.06,109.52C141.173731,109.663472,141.218237,109.849873,141.18159,110.02925C141.144943,110.208626,141.030891,110.362634,140.87,110.45L134.06,114C133.806399,114.136474,133.491603,114.073514,133.31,113.85L129,108.65C128.886269,108.506528,128.841763,108.320127,128.87841,108.14075C128.915057,107.961374,129.029109,107.807366,129.19,107.72L136,104.16C136.262841,104.000043,136.604081,104.064835,136.79,104.31Z" transform="matrix(1 0 0 1 -110.059998 -46.169998)" fill="rgb(212,224,160)" stroke="none" stroke-width="1.333333"/><path id="ehJBysYjnLA30" d="M136.77,103.78L141,109C141.113731,109.143472,141.158237,109.329873,141.12159,109.50925C141.084943,109.688626,140.970891,109.842634,140.81,109.93L134,113.48C133.746399,113.616474,133.431603,113.553514,133.25,113.33L129,108.12C128.886269,107.976528,128.841763,107.790127,128.87841,107.61075C128.915057,107.431374,129.029109,107.277366,129.19,107.19L136,103.63C136.258336,103.48205,136.586089,103.545898,136.77,103.78Z" transform="matrix(1 0 0 1 -110.059998 -46.169998)" fill="rgb(170,207,82)" stroke="none" stroke-width="1.333333"/><path id="ehJBysYjnLA31" d="M136.76,103.45L141.03,108.66C141.143731,108.803472,141.188237,108.989873,141.15159,109.16925C141.114943,109.348626,141.000891,109.502634,140.84,109.59L134,113.15C133.745267,113.278531,133.435703,113.216618,133.25,113L129,107.78C128.88277,107.639561,128.836014,107.453312,128.873014,107.274155C128.910014,107.094998,129.026726,106.942509,129.19,106.86L136,103.29C136.259494,103.158398,136.575592,103.224945,136.76,103.45Z" transform="matrix(1 0 0 1 -110.059998 -46.169998)" fill="rgb(212,224,160)" stroke="none" stroke-width="1.333333"/><path id="ehJBysYjnLA32" d="M136.74,102.92L141.01,108.13C141.123731,108.273472,141.168237,108.459873,141.13159,108.63925C141.094943,108.818626,140.980891,108.972634,140.82,109.06L134,112.62C133.745806,112.752404,133.433716,112.689986,133.25,112.47L129,107.25C128.88277,107.109561,128.836014,106.923312,128.873014,106.744155C128.910014,106.564998,129.026726,106.412509,129.19,106.33L136,102.76C136.253428,102.631332,136.562364,102.698129,136.74,102.92Z" transform="matrix(1 0 0 1 -110.059998 -46.169998)" fill="rgb(170,207,82)" stroke="none" stroke-width="1.333333"/><path id="ehJBysYjnLA33" d="M136.73,102.59L141,107.8C141.11723,107.940439,141.163986,108.126688,141.126986,108.305845C141.089986,108.485002,140.973274,108.637491,140.81,108.72L134,112.29C133.74409,112.424239,133.428848,112.356987,133.25,112.13L129,106.92C128.886269,106.776528,128.841763,106.590127,128.87841,106.41075C128.915057,106.231374,129.029109,106.077366,129.19,105.99L136.01,102.43C136.258717,102.315769,136.553072,102.381181,136.73,102.59Z" transform="matrix(1 0 0 1 -110.059998 -46.169998)" fill="rgb(212,224,160)" stroke="none" stroke-width="1.333333"/><path id="ehJBysYjnLA34" d="M136.71,102.05L140.97,107.27C141.08723,107.410439,141.133986,107.596688,141.096986,107.775845C141.059986,107.955002,140.943274,108.107491,140.78,108.19L134,111.76C133.74409,111.894239,133.428848,111.826987,133.25,111.6L129,106.39C128.886269,106.246528,128.841763,106.060127,128.87841,105.88075C128.915057,105.701374,129.029109,105.547366,129.19,105.46L136,101.9C136.244267,101.791811,136.530367,101.852255,136.71,102.05Z" transform="matrix(1 0 0 1 -110.059998 -46.169998)" fill="rgb(170,207,82)" stroke="none" stroke-width="1.333333"/><path id="ehJBysYjnLA35" d="M136.69,101.72L140.96,106.93C141.073731,107.073472,141.118237,107.259873,141.08159,107.43925C141.044943,107.618626,140.930891,107.772634,140.77,107.86L134,111.42C133.746399,111.556474,133.431603,111.493514,133.25,111.27L128.98,106.06C128.866269,105.916528,128.821763,105.730127,128.85841,105.55075C128.895057,105.371374,129.009109,105.217366,129.17,105.13L135.98,101.57C136.223908,101.458485,136.512041,101.519358,136.69,101.72Z" transform="matrix(1 0 0 1 -110.059998 -46.169998)" fill="rgb(212,224,160)" stroke="none" stroke-width="1.333333"/><path id="ehJBysYjnLA36" d="M136.67,101.19L140.94,106.4C141.053731,106.543472,141.098237,106.729873,141.06159,106.90925C141.024943,107.088626,140.910891,107.242634,140.75,107.33L133.94,110.89C133.686399,111.026474,133.371603,110.963514,133.19,110.74L128.92,105.53C128.806269,105.386528,128.761763,105.200127,128.79841,105.02075C128.835057,104.841374,128.949109,104.687366,129.11,104.6L135.92,101.04C136.173601,100.903526,136.488397,100.966486,136.67,101.19Z" transform="matrix(1 0 0 1 -110.059998 -46.169998)" fill="rgb(170,207,82)" stroke="none" stroke-width="1.333333"/><path id="ehJBysYjnLA37" d="M136.66,100.86L140.93,106.07C141.043731,106.213472,141.088237,106.399873,141.05159,106.57925C141.014943,106.758626,140.900891,106.912634,140.74,107L133.92,110.56C133.666399,110.696474,133.351603,110.633514,133.17,110.41L128.91,105.2C128.792657,105.057828,128.745901,104.870216,128.7828,104.689604C128.819699,104.508992,128.936296,104.354754,129.1,104.27L135.91,100.71C136.163601,100.573526,136.478397,100.636486,136.66,100.86Z" transform="matrix(1 0 0 1 -110.059998 -46.169998)" fill="rgb(212,224,160)" stroke="none" stroke-width="1.333333"/><path id="ehJBysYjnLA38" d="M136.64,100.33L140.9,105.54C141.017343,105.682172,141.064099,105.869784,141.0272,106.050396C140.990301,106.231008,140.873704,106.385246,140.71,106.47L133.9,110C133.645806,110.132404,133.333716,110.069986,133.15,109.85L128.89,104.64C128.772657,104.497828,128.725901,104.310216,128.7628,104.129604C128.799699,103.948992,128.916296,103.794754,129.08,103.71L135.89,100.15C136.15056,100.020082,136.466786,100.095977,136.64,100.33Z" transform="matrix(1 0 0 1 -110.059998 -46.169998)" fill="rgb(170,207,82)" stroke="none" stroke-width="1.333333"/><path id="ehJBysYjnLA39" d="M136.63,100L140.89,105.21C141.007343,105.352172,141.054099,105.539784,141.0172,105.720396C140.980301,105.901008,140.863704,106.055246,140.7,106.14L133.89,109.7C133.635806,109.832404,133.323716,109.769986,133.14,109.55L128.87,104.33C128.756469,104.18822,128.712025,104.003222,128.748761,103.825342C128.785497,103.647462,128.899592,103.495205,129.06,103.41L135.88,99.84C136.13646,99.709871,136.448972,99.776541,136.63,100Z" transform="matrix(1 0 0 1 -110.059998 -46.169998)" fill="rgb(212,224,160)" stroke="none" stroke-width="1.333333"/><path id="ehJBysYjnLA40" d="M136.61,99.47L140.87,104.68C140.987343,104.822172,141.034099,105.009784,140.9972,105.190396C140.960301,105.371008,140.843704,105.525246,140.68,105.61L133.87,109.17C133.615806,109.302404,133.303716,109.239986,133.12,109.02L128.85,103.8C128.736469,103.65822,128.692025,103.473222,128.728761,103.295342C128.765497,103.117462,128.879592,102.965205,129.04,102.88L135.85,99.31C136.109494,99.178398,136.425592,99.244945,136.61,99.47Z" transform="matrix(1 0 0 1 -110.059998 -46.169998)" fill="rgb(170,207,82)" stroke="none" stroke-width="1.333333"/><path id="ehJBysYjnLA41" d="M136.59,99.13L140.86,104.35C140.973531,104.49178,141.017975,104.676778,140.981239,104.854658C140.944503,105.032538,140.830408,105.184795,140.67,105.27L133.86,108.84C133.60409,108.974239,133.288848,108.906987,133.11,108.68L128.84,103.47C128.726269,103.326528,128.681763,103.140127,128.71841,102.96075C128.755057,102.781374,128.869109,102.627366,129.03,102.54L135.84,99C136.089688,98.862906,136.401017,98.91687,136.59,99.13Z" transform="matrix(1 0 0 1 -110.059998 -46.169998)" fill="rgb(212,224,160)" stroke="none" stroke-width="1.333333"/><path id="ehJBysYjnLA42" d="M136.57,98.6L140.84,103.82C140.953531,103.96178,140.997975,104.146778,140.961239,104.324658C140.924503,104.502538,140.810408,104.654795,140.65,104.74L133.84,108.31C133.580506,108.441602,133.264408,108.375055,133.08,108.15L128.82,102.94C128.69802,102.798851,128.647335,102.609645,128.682421,102.426421C128.717506,102.243197,128.834504,102.0861,129,102L135.81,98.44C136.068945,98.304336,136.387732,98.371449,136.57,98.6Z" transform="matrix(1 0 0 1 -110.059998 -46.169998)" fill="rgb(170,207,82)" stroke="none" stroke-width="1.333333"/><path id="ehJBysYjnLA43" d="M136.56,98.27L140.82,103.48C140.937343,103.622172,140.984099,103.809784,140.9472,103.990396C140.910301,104.171008,140.793704,104.325246,140.63,104.41L133.82,108C133.566399,108.136474,133.251603,108.073514,133.07,107.85L128.81,102.64C128.692657,102.497828,128.645901,102.310216,128.6828,102.129604C128.719699,101.948992,128.836296,101.794754,129,101.71L135.81,98.15C136.057445,98.010492,136.368436,98.06025,136.56,98.27Z" transform="matrix(1 0 0 1 -110.059998 -46.169998)" fill="rgb(212,224,160)" stroke="none" stroke-width="1.333333"/><path id="ehJBysYjnLA44" d="M136.54,97.74L140.8,103C140.917343,103.142172,140.964099,103.329784,140.9272,103.510396C140.890301,103.691008,140.773704,103.845246,140.61,103.93L133.8,107.49C133.546399,107.626474,133.231603,107.563514,133.05,107.34L128.79,102.13C128.672657,101.987828,128.625901,101.800216,128.6628,101.619604C128.699699,101.438992,128.816296,101.284754,128.98,101.2L135.79,97.64C136.032161,97.491635,136.345172,97.533369,136.54,97.74Z" transform="matrix(1 0 0 1 -110.059998 -46.169998)" fill="rgb(187,219,99)" stroke="none" stroke-width="1.333333"/><path id="ehJBysYjnLA45" d="M146.85,108.81L151.12,114.03C151.233531,114.17178,151.277975,114.356778,151.241239,114.534658C151.204503,114.712538,151.090408,114.864795,150.93,114.95L144.11,118.52C143.85409,118.654239,143.538848,118.586987,143.36,118.36L139.1,113.15C138.982657,113.007828,138.935901,112.820216,138.9728,112.639604C139.009699,112.458992,139.126296,112.304754,139.29,112.22L146.1,108.66C146.354194,108.527596,146.666284,108.590014,146.85,108.81Z" transform="matrix(1 0 0 1 -110.059998 -46.169998)" fill="rgb(102,211,177)" stroke="none" stroke-width="1.333333"/><path id="ehJBysYjnLA46" d="M146.83,108.28L151.09,113.5C151.20723,113.640439,151.253986,113.826688,151.216986,114.005845C151.179986,114.185002,151.063274,114.337491,150.9,114.42L144.09,118C143.83409,118.134239,143.518848,118.066987,143.34,117.84L139.08,112.63C138.962657,112.487828,138.915901,112.300216,138.9528,112.119604C138.989699,111.938992,139.106296,111.784754,139.27,111.7L146.08,108.14C146.331938,108.005274,146.643632,108.063457,146.83,108.28Z" transform="matrix(1 0 0 1 -110.059998 -46.169998)" fill="rgb(7,170,127)" stroke="none" stroke-width="1.333333"/><path id="ehJBysYjnLA47" d="M146.82,108L151.08,113.21C151.197343,113.352172,151.244099,113.539784,151.2072,113.720396C151.170301,113.901008,151.053704,114.055246,150.89,114.14L144.08,117.7C143.826399,117.836474,143.511603,117.773514,143.33,117.55L139.06,112.34C138.946269,112.196528,138.901763,112.010127,138.93841,111.83075C138.975057,111.651374,139.089109,111.497366,139.25,111.41L146.07,107.85C146.324733,107.721469,146.634297,107.783382,146.82,108Z" transform="matrix(1 0 0 1 -110.059998 -46.169998)" fill="rgb(102,211,177)" stroke="none" stroke-width="1.333333"/><path id="ehJBysYjnLA48" d="M146.8,107.42L151.06,112.63C151.177343,112.772172,151.224099,112.959784,151.1872,113.140396C151.150301,113.321008,151.033704,113.475246,150.87,113.56L144.06,117.12C143.806399,117.256474,143.491603,117.193514,143.31,116.97L139,111.76C138.886269,111.616528,138.841763,111.430127,138.87841,111.25075C138.915057,111.071374,139.029109,110.917366,139.19,110.83L146,107.27C146.265917,107.108771,146.610552,107.17339,146.8,107.42Z" transform="matrix(1 0 0 1 -110.059998 -46.169998)" fill="rgb(7,170,127)" stroke="none" stroke-width="1.333333"/><path id="ehJBysYjnLA49" d="M146.78,107.09L151.05,112.3C151.163731,112.443472,151.208237,112.629873,151.17159,112.80925C151.134943,112.988626,151.020891,113.142634,150.86,113.23L144.05,116.79C143.796399,116.926474,143.481603,116.863514,143.3,116.64L139,111.43C138.886269,111.286528,138.841763,111.100127,138.87841,110.92075C138.915057,110.741374,139.029109,110.587366,139.19,110.5L146,106.94C146.260619,106.786115,146.595046,106.850428,146.78,107.09Z" transform="matrix(1 0 0 1 -110.059998 -46.169998)" fill="rgb(102,211,177)" stroke="none" stroke-width="1.333333"/><path id="ehJBysYjnLA50" d="M146.76,106.56L151.03,111.77C151.143731,111.913472,151.188237,112.099873,151.15159,112.27925C151.114943,112.458626,151.000891,112.612634,150.84,112.7L144,116.26C143.742225,116.390061,143.429031,116.328246,143.24,116.11L139,110.9C138.882657,110.757828,138.835901,110.570216,138.8728,110.389604C138.909699,110.208992,139.026296,110.054754,139.19,109.97L146,106.41C146.255996,106.267853,146.577207,106.33125,146.76,106.56Z" transform="matrix(1 0 0 1 -110.059998 -46.169998)" fill="rgb(7,170,127)" stroke="none" stroke-width="1.333333"/><path id="ehJBysYjnLA51" d="M146.75,106.23L151.01,111.44C151.127343,111.582172,151.174099,111.769784,151.1372,111.950396C151.100301,112.131008,150.983704,112.285246,150.82,112.37L144,115.93C143.745806,116.062404,143.433716,115.999986,143.25,115.78L139,110.56C138.88277,110.419561,138.836014,110.233312,138.873014,110.054155C138.910014,109.874998,139.026726,109.722509,139.19,109.64L146,106.07C146.25591,105.935761,146.571152,106.003013,146.75,106.23Z" transform="matrix(1 0 0 1 -110.059998 -46.169998)" fill="rgb(102,211,177)" stroke="none" stroke-width="1.333333"/><path id="ehJBysYjnLA52" d="M146.73,105.7L150.99,110.91C151.107343,111.052172,151.154099,111.239784,151.1172,111.420396C151.080301,111.601008,150.963704,111.755246,150.8,111.84L144,115.4C143.74409,115.534239,143.428848,115.466987,143.25,115.24L139,110C138.878821,109.861049,138.829562,109.67344,138.866851,109.492882C138.90414,109.312324,139.02369,109.159578,139.19,109.08L146,105.51C146.257698,105.39333,146.56188,105.472501,146.73,105.7Z" transform="matrix(1 0 0 1 -110.059998 -46.169998)" fill="rgb(7,170,127)" stroke="none" stroke-width="1.333333"/><path id="ehJBysYjnLA53" d="M146.72,105.36L150.98,110.58C151.09723,110.720439,151.143986,110.906688,151.106986,111.085845C151.069986,111.265002,150.953274,111.417491,150.79,111.5L144,115.07C143.74409,115.204239,143.428848,115.136987,143.25,114.91L139,109.7C138.886269,109.556528,138.841763,109.370127,138.87841,109.19075C138.915057,109.011374,139.029109,108.857366,139.19,108.77L146,105.21C146.247309,105.100187,146.537118,105.160564,146.72,105.36Z" transform="matrix(1 0 0 1 -110.059998 -46.169998)" fill="rgb(102,211,177)" stroke="none" stroke-width="1.333333"/><path id="ehJBysYjnLA54" d="M146.7,104.83L150.96,110.05C151.073531,110.19178,151.117975,110.376778,151.081239,110.554658C151.044503,110.732538,150.930408,110.884795,150.77,110.97L144,114.54C143.74354,114.670129,143.431028,114.603459,143.25,114.38L138.98,109.17C138.866269,109.026528,138.821763,108.840127,138.85841,108.66075C138.895057,108.481374,139.009109,108.327366,139.17,108.24L145.98,104.68C146.227309,104.570187,146.517118,104.630564,146.7,104.83Z" transform="matrix(1 0 0 1 -110.059998 -46.169998)" fill="rgb(7,170,127)" stroke="none" stroke-width="1.333333"/><path id="ehJBysYjnLA55" d="M128.31,111.29L132.58,116.5C132.693731,116.643472,132.738237,116.829873,132.70159,117.00925C132.664943,117.188626,132.550891,117.342634,132.39,117.43L125.57,121C125.315806,121.132404,125.003716,121.069986,124.82,120.85L120.56,115.63C120.44277,115.489561,120.396014,115.303312,120.433014,115.124155C120.470014,114.944998,120.586726,114.792509,120.75,114.71L127.56,111.15C127.811301,111.011243,128.125681,111.069927,128.31,111.29Z" transform="matrix(1 0 0 1 -110.059998 -46.169998)" fill="rgb(102,211,177)" stroke="none" stroke-width="1.333333"/><path id="ehJBysYjnLA56" d="M128.29,110.76L132.55,115.97C132.667343,116.112172,132.714099,116.299784,132.6772,116.480396C132.640301,116.661008,132.523704,116.815246,132.36,116.9L125.55,120.46C125.295806,120.592404,124.983716,120.529986,124.8,120.31L120.54,115.09C120.42277,114.949561,120.376014,114.763312,120.413014,114.584155C120.450014,114.404998,120.566726,114.252509,120.73,114.17L127.54,110.6C127.79591,110.465761,128.111152,110.533013,128.29,110.76Z" transform="matrix(1 0 0 1 -110.059998 -46.169998)" fill="rgb(7,170,127)" stroke="none" stroke-width="1.333333"/><path id="ehJBysYjnLA57" d="M128.28,110.43L132.54,115.64C132.657343,115.782172,132.704099,115.969784,132.6672,116.150396C132.630301,116.331008,132.513704,116.485246,132.35,116.57L125.54,120.13C125.28409,120.264239,124.968848,120.196987,124.79,119.97L120.52,114.76C120.406469,114.61822,120.362025,114.433222,120.398761,114.255342C120.435497,114.077462,120.549592,113.925205,120.71,113.84L127.53,110.27C127.78646,110.139871,128.098972,110.206541,128.28,110.43Z" transform="matrix(1 0 0 1 -110.059998 -46.169998)" fill="rgb(102,211,177)" stroke="none" stroke-width="1.333333"/><path id="ehJBysYjnLA58" d="M128.26,109.89L132.52,115.11C132.63723,115.250439,132.683986,115.436688,132.646986,115.615845C132.609986,115.795002,132.493274,115.947491,132.33,116.03L125.52,119.6C125.26409,119.734239,124.948848,119.666987,124.77,119.44L120.5,114.23C120.386269,114.086528,120.341763,113.900127,120.37841,113.72075C120.415057,113.541374,120.529109,113.387366,120.69,113.3L127.5,109.74C127.757775,109.609939,128.070969,109.671754,128.26,109.89Z" transform="matrix(1 0 0 1 -110.059998 -46.169998)" fill="rgb(7,170,127)" stroke="none" stroke-width="1.333333"/><path id="ehJBysYjnLA59" d="M128.24,109.56L132.51,114.78C132.623531,114.92178,132.667975,115.106778,132.631239,115.284658C132.594503,115.462538,132.480408,115.614795,132.32,115.7L125.51,119.27C125.25354,119.400129,124.941028,119.333459,124.76,119.11L120.49,113.9C120.376269,113.756528,120.331763,113.570127,120.36841,113.39075C120.405057,113.211374,120.519109,113.057366,120.68,112.97L127.49,109.41C127.744194,109.277596,128.056284,109.340014,128.24,109.56Z" transform="matrix(1 0 0 1 -110.059998 -46.169998)" fill="rgb(102,211,177)" stroke="none" stroke-width="1.333333"/><path id="ehJBysYjnLA60" d="M128.22,109L132.49,114.21C132.603731,114.353472,132.648237,114.539873,132.61159,114.71925C132.574943,114.898626,132.460891,115.052634,132.3,115.14L125.49,118.7C125.233353,118.837917,124.915002,118.775085,124.73,118.55L120.47,113.34C120.352657,113.197828,120.305901,113.010216,120.3428,112.829604C120.379699,112.648992,120.496296,112.494754,120.66,112.41L127.47,108.85C127.724194,108.717596,128.036284,108.780014,128.22,109Z" transform="matrix(1 0 0 1 -110.059998 -46.169998)" fill="rgb(7,170,127)" stroke="none" stroke-width="1.333333"/><path id="ehJBysYjnLA61" d="M128.21,108.7L132.47,113.91C132.587343,114.052172,132.634099,114.239784,132.5972,114.420396C132.560301,114.601008,132.443704,114.755246,132.28,114.84L125.47,118.4C125.216399,118.536474,124.901603,118.473514,124.72,118.25L120.46,113C120.342657,112.857828,120.295901,112.670216,120.3328,112.489604C120.369699,112.308992,120.486296,112.154754,120.65,112.07L127.46,108.51C127.722904,108.382167,128.039669,108.462414,128.21,108.7Z" transform="matrix(1 0 0 1 -110.059998 -46.169998)" fill="rgb(102,211,177)" stroke="none" stroke-width="1.333333"/><path id="ehJBysYjnLA62" d="M128.19,108.17L132.45,113.38C132.567343,113.522172,132.614099,113.709784,132.5772,113.890396C132.540301,114.071008,132.423704,114.225246,132.26,114.31L125.45,117.87C125.196399,118.006474,124.881603,117.943514,124.7,117.72L120.44,112.51C120.322657,112.367828,120.275901,112.180216,120.3128,111.999604C120.349699,111.818992,120.466296,111.664754,120.63,111.58L127.44,108.02C127.693601,107.883526,128.008397,107.946486,128.19,108.17Z" transform="matrix(1 0 0 1 -110.059998 -46.169998)" fill="rgb(7,170,127)" stroke="none" stroke-width="1.333333"/><path id="ehJBysYjnLA63" d="M128.18,107.84L132.44,113.05C132.557343,113.192172,132.604099,113.379784,132.5672,113.560396C132.530301,113.741008,132.413704,113.895246,132.25,113.98L125.44,117.54C125.185806,117.672404,124.873716,117.609986,124.69,117.39L120.42,112.17C120.306469,112.02822,120.262025,111.843222,120.298761,111.665342C120.335497,111.487462,120.449592,111.335205,120.61,111.25L127.43,107.68C127.68646,107.549871,127.998972,107.616541,128.18,107.84Z" transform="matrix(1 0 0 1 -110.059998 -46.169998)" fill="rgb(102,211,177)" stroke="none" stroke-width="1.333333"/><path id="ehJBysYjnLA64" d="M128.16,107.31L132.42,112.52C132.537343,112.662172,132.584099,112.849784,132.5472,113.030396C132.510301,113.211008,132.393704,113.365246,132.23,113.45L125.42,117C125.165806,117.132404,124.853716,117.069986,124.67,116.85L120.4,111.63C120.286469,111.48822,120.242025,111.303222,120.278761,111.125342C120.315497,110.947462,120.429592,110.795205,120.59,110.71L127.4,107.14C127.661759,107.010643,127.978299,107.081448,128.16,107.31Z" transform="matrix(1 0 0 1 -110.059998 -46.169998)" fill="rgb(7,170,127)" stroke="none" stroke-width="1.333333"/><path id="ehJBysYjnLA65" d="M137.79,116.37L142.06,121.59C142.173531,121.73178,142.217975,121.916778,142.181239,122.094658C142.144503,122.272538,142.030408,122.424795,141.87,122.51L135.06,126.08C134.80409,126.214239,134.488848,126.146987,134.31,125.92L130,120.71C129.886269,120.566528,129.841763,120.380127,129.87841,120.20075C129.915057,120.021374,130.029109,119.867366,130.19,119.78L137,116.22C137.263685,116.064795,137.601554,116.128947,137.79,116.37Z" transform="matrix(1 0 0 1 -110.059998 -46.169998)" fill="rgb(212,224,160)" stroke="none" stroke-width="1.333333"/><path id="ehJBysYjnLA66" d="M137.77,115.84L142.04,121.06C142.153531,121.20178,142.197975,121.386778,142.161239,121.564658C142.124503,121.742538,142.010408,121.894795,141.85,121.98L135,125.55C134.740009,125.677733,134.426423,125.611715,134.24,125.39L130,120.18C129.882657,120.037828,129.835901,119.850216,129.8728,119.669604C129.909699,119.488992,130.026296,119.334754,130.19,119.25L137,115.69C137.259048,115.546447,137.58378,115.609707,137.77,115.84Z" transform="matrix(1 0 0 1 -110.059998 -46.169998)" fill="rgb(170,207,82)" stroke="none" stroke-width="1.333333"/><path id="ehJBysYjnLA67" d="M137.76,115.51L142.02,120.72C142.137343,120.862172,142.184099,121.049784,142.1472,121.230396C142.110301,121.411008,141.993704,121.565246,141.83,121.65L135,125.21C134.746399,125.346474,134.431603,125.283514,134.25,125.06L130,119.85C129.882657,119.707828,129.835901,119.520216,129.8728,119.339604C129.909699,119.158992,130.026296,119.004754,130.19,118.92L137,115.36C137.255996,115.217853,137.577207,115.28125,137.76,115.51Z" transform="matrix(1 0 0 1 -110.059998 -46.169998)" fill="rgb(212,224,160)" stroke="none" stroke-width="1.333333"/><path id="ehJBysYjnLA68" d="M137.74,115L142,120.21C142.117343,120.352172,142.164099,120.539784,142.1272,120.720396C142.090301,120.901008,141.973704,121.055246,141.81,121.14L135,124.68C134.746399,124.816474,134.431603,124.753514,134.25,124.53L130,119.32C129.882657,119.177828,129.835901,118.990216,129.8728,118.809604C129.909699,118.628992,130.026296,118.474754,130.19,118.39L137,114.83C137.255715,114.703541,137.565113,114.774619,137.74,115Z" transform="matrix(1 0 0 1 -110.059998 -46.169998)" fill="rgb(170,207,82)" stroke="none" stroke-width="1.333333"/><path id="ehJBysYjnLA69" d="M137.73,114.65L141.99,119.86C142.107343,120.002172,142.154099,120.189784,142.1172,120.370396C142.080301,120.551008,141.963704,120.705246,141.8,120.79L135,124.35C134.745806,124.482404,134.433716,124.419986,134.25,124.2L130,119C129.886269,118.856528,129.841763,118.670127,129.87841,118.49075C129.915057,118.311374,130.029109,118.157366,130.19,118.07L137,114.5C137.248653,114.3745,137.550979,114.436622,137.73,114.65Z" transform="matrix(1 0 0 1 -110.059998 -46.169998)" fill="rgb(212,224,160)" stroke="none" stroke-width="1.333333"/><path id="ehJBysYjnLA70" d="M137.71,114.12L141.97,119.33C142.087343,119.472172,142.134099,119.659784,142.0972,119.840396C142.060301,120.021008,141.943704,120.175246,141.78,120.26L135,123.82C134.745806,123.952404,134.433716,123.889986,134.25,123.67L130,118.45C129.886469,118.30822,129.842025,118.123222,129.878761,117.945342C129.915497,117.767462,130.029592,117.615205,130.19,117.53L137,114C137.238459,113.887481,137.521764,113.935364,137.71,114.12Z" transform="matrix(1 0 0 1 -110.059998 -46.169998)" fill="rgb(170,207,82)" stroke="none" stroke-width="1.333333"/><path id="ehJBysYjnLA71" d="M137.69,113.79L142,119C142.113731,119.143472,142.158237,119.329873,142.12159,119.50925C142.084943,119.688626,141.970891,119.842634,141.81,119.93L135,123.49C134.740506,123.621602,134.424408,123.555055,134.24,123.33L129.98,118.12C129.86277,117.979561,129.816014,117.793312,129.853014,117.614155C129.890014,117.434998,130.006726,117.282509,130.17,117.2L136.98,113.63C137.225689,113.51732,137.51639,113.58283,137.69,113.79Z" transform="matrix(1 0 0 1 -110.059998 -46.169998)" fill="rgb(212,224,160)" stroke="none" stroke-width="1.333333"/><path id="ehJBysYjnLA72" d="M137.67,113.26L141.94,118.47C142.053531,118.61178,142.097975,118.796778,142.061239,118.974658C142.024503,119.152538,141.910408,119.304795,141.75,119.39L134.93,123C134.67354,123.130129,134.361028,123.063459,134.18,122.84L129.92,117.63C129.802657,117.487828,129.755901,117.300216,129.7928,117.119604C129.829699,116.938992,129.946296,116.784754,130.11,116.7L136.92,113.14C137.166722,112.996532,137.480359,113.046714,137.67,113.26Z" transform="matrix(1 0 0 1 -110.059998 -46.169998)" fill="rgb(170,207,82)" stroke="none" stroke-width="1.333333"/><path id="ehJBysYjnLA73" d="M137.66,112.92L141.92,118.14C142.03723,118.280439,142.083986,118.466688,142.046986,118.645845C142.009986,118.825002,141.893274,118.977491,141.73,119.06L134.92,122.63C134.66409,122.764239,134.348848,122.696987,134.17,122.47L129.91,117.26C129.792657,117.117828,129.745901,116.930216,129.7828,116.749604C129.819699,116.568992,129.936296,116.414754,130.1,116.33L136.91,112.77C137.164194,112.637596,137.476284,112.700014,137.66,112.92Z" transform="matrix(1 0 0 1 -110.059998 -46.169998)" fill="rgb(212,224,160)" stroke="none" stroke-width="1.333333"/><path id="ehJBysYjnLA74" d="M137.64,112.39L141.9,117.6C142.017343,117.742172,142.064099,117.929784,142.0272,118.110396C141.990301,118.291008,141.873704,118.445246,141.71,118.53L134.9,122.09C134.646399,122.226474,134.331603,122.163514,134.15,121.94L129.89,116.73C129.772657,116.587828,129.725901,116.400216,129.7628,116.219604C129.799699,116.038992,129.916296,115.884754,130.08,115.8L136.89,112.24C137.144194,112.107596,137.456284,112.170014,137.64,112.39Z" transform="matrix(1 0 0 1 -110.059998 -46.169998)" fill="rgb(170,207,82)" stroke="none" stroke-width="1.333333"/><path id="ehJBysYjnLA75" d="M137.63,112.06L141.89,117.27C142.007343,117.412172,142.054099,117.599784,142.0172,117.780396C141.980301,117.961008,141.863704,118.115246,141.7,118.2L134.89,121.76C134.636399,121.896474,134.321603,121.833514,134.14,121.61L129.87,116.4C129.756269,116.256528,129.711763,116.070127,129.74841,115.89075C129.785057,115.711374,129.899109,115.557366,130.06,115.47L136.87,111.91C137.126647,111.772083,137.444998,111.834915,137.63,112.06Z" transform="matrix(1 0 0 1 -110.059998 -46.169998)" fill="rgb(212,224,160)" stroke="none" stroke-width="1.333333"/><path id="ehJBysYjnLA76" d="M137.6,111.53L141.87,116.74C141.983731,116.883472,142.028237,117.069873,141.99159,117.24925C141.954943,117.428626,141.840891,117.582634,141.68,117.67L134.87,121.23C134.616399,121.366474,134.301603,121.303514,134.12,121.08L129.85,115.87C129.736269,115.726528,129.691763,115.540127,129.72841,115.36075C129.765057,115.181374,129.879109,115.027366,130.04,114.94L136.85,111.38C137.103601,111.243526,137.418397,111.306486,137.6,111.53Z" transform="matrix(1 0 0 1 -110.059998 -46.169998)" fill="rgb(170,207,82)" stroke="none" stroke-width="1.333333"/><path id="ehJBysYjnLA77" d="M137.59,111.2L141.86,116.41C141.973731,116.553472,142.018237,116.739873,141.98159,116.91925C141.944943,117.098626,141.830891,117.252634,141.67,117.34L134.86,120.9C134.602225,121.030061,134.289031,120.968246,134.1,120.75L129.84,115.53C129.72277,115.389561,129.676014,115.203312,129.713014,115.024155C129.750014,114.844998,129.866726,114.692509,130.03,114.61L136.84,111.04C137.09646,110.909871,137.408972,110.976541,137.59,111.2Z" transform="matrix(1 0 0 1 -110.059998 -46.169998)" fill="rgb(212,224,160)" stroke="none" stroke-width="1.333333"/><path id="ehJBysYjnLA78" d="M137.57,110.67L141.84,115.88C141.953731,116.023472,141.998237,116.209873,141.96159,116.38925C141.924943,116.568626,141.810891,116.722634,141.65,116.81L134.83,120.37C134.575267,120.498531,134.265703,120.436618,134.08,120.22L129.82,115C129.70277,114.859561,129.656014,114.673312,129.693014,114.494155C129.730014,114.314998,129.846726,114.162509,130.01,114.08L136.82,110.51C137.07591,110.375761,137.391152,110.443013,137.57,110.67Z" transform="matrix(1 0 0 1 -110.059998 -46.169998)" fill="rgb(170,207,82)" stroke="none" stroke-width="1.333333"/><path id="ehJBysYjnLA79" d="M137.56,110.34L141.82,115.55C141.941179,115.688951,141.990438,115.87656,141.953149,116.057118C141.91586,116.237676,141.79631,116.390422,141.63,116.47L134.82,120C134.56409,120.134239,134.248848,120.066987,134.07,119.84L129.81,114.63C129.692657,114.487828,129.645901,114.300216,129.6828,114.119604C129.719699,113.938992,129.836296,113.784754,130,113.7L136.81,110.14C137.075262,110.014201,137.392598,110.098824,137.56,110.34Z" transform="matrix(1 0 0 1 -110.059998 -46.169998)" fill="rgb(212,224,160)" stroke="none" stroke-width="1.333333"/><path id="ehJBysYjnLA80" d="M137.54,109.8L141.8,115C141.91723,115.140439,141.963986,115.326688,141.926986,115.505845C141.889986,115.685002,141.773274,115.837491,141.61,115.92L134.8,119.49C134.54409,119.624239,134.228848,119.556987,134.05,119.33L129.78,114.12C129.666269,113.976528,129.621763,113.790127,129.65841,113.61075C129.695057,113.431374,129.809109,113.277366,129.97,113.19L136.79,109.63C137.048736,109.502099,137.3617,109.573037,137.54,109.8Z" transform="matrix(1 0 0 1 -110.059998 -46.169998)" fill="rgb(170,207,82)" stroke="none" stroke-width="1.333333"/></g><g id="ehJBysYjnLA81"><path id="ehJBysYjnLA82" d="M187,92.3L193.6,93.68C193.779575,93.716031,193.965837,93.669467,194.107332,93.55317C194.248826,93.436874,194.330577,93.263154,194.33,93.08L194.33,85.39C194.327204,85.105448,194.128032,84.860632,193.85,84.8L187.25,83.42C187.071629,83.380408,186.884937,83.424249,186.742834,83.5391C186.600731,83.65395,186.518704,83.827292,186.52,84.01L186.52,91.7C186.518104,91.988302,186.718314,92.238564,187,92.3Z" transform="matrix(1 0 0 1 -110.059998 -46.169998)" fill="rgb(7,170,127)" stroke="none" stroke-width="1.333333"/><path id="ehJBysYjnLA83" d="M186.52,87.6C186.708958,87.447013,186.842461,87.236219,186.9,87C186.908881,86.588521,186.607775,86.235797,186.2,86.18C185.801712,86.150072,185.403072,86.233267,185.05,86.42C184.365609,86.680078,183.752302,87.098087,183.26,87.64C182.73,88.28,182.08,89.99,183.41,89.97C184.39,90,185.88,88.25,186.52,87.6Z" transform="matrix(1 0 0 1 -110.059998 -46.169998)" fill="rgb(245,220,190)" stroke="none" stroke-width="1.333333"/><path id="ehJBysYjnLA84" d="M196.23,95.34C196.452386,95.187853,196.639868,94.990146,196.78,94.76C196.880436,94.533335,196.931565,94.287916,196.93,94.04C196.96524,93.079016,196.733314,92.127082,196.26,91.29C196.193178,91.177227,196.104836,91.078691,196,91C195.713999,90.859156,195.374509,90.882043,195.11,91.06C194.464084,91.421121,193.888276,91.895316,193.41,92.46C192.5,93.46,190.81,95.64,191.98,97.03C193.15,98.42,195.34,96,196.23,95.34Z" transform="matrix(1 0 0 1 -110.059998 -46.169998)" fill="rgb(245,220,190)" stroke="none" stroke-width="1.333333"/><path id="ehJBysYjnLA85" d="M182.44,93.83C182.723426,94.210129,182.977494,94.611289,183.2,95.03C183.394905,95.352286,183.608608,95.662823,183.84,95.96C184.203184,96.604221,184.83296,97.054584,185.56,97.19C186.91,97.34,188.27,96.44,189.32,95.7C190.224127,94.933515,191.356071,94.487065,192.54,94.43C193.41,94.43,193.69,94.94,194.08,95.58C194.556061,96.206946,194.738318,97.008877,194.58,97.78C194.372296,98.294157,194.02615,98.740685,193.58,99.07C191.41,100.92,187.58,104.01,184.5,103.19C182.44209,102.633012,180.557512,101.566918,179.02,100.09C177.880027,98.981271,177.25012,97.449945,177.28,95.86C177.28,94.65,177.23,92.3,178.73,91.86C179.18971,91.755941,179.67084,91.805107,180.1,92C181.028037,92.392453,181.835458,93.023898,182.44,93.83Z" transform="matrix(1 0 0 1 -110.059998 -46.169998)" fill="rgb(24,121,114)" stroke="none" stroke-width="1.333333"/><path id="ehJBysYjnLA86" d="M181.57,88C181.835472,87.930073,182.114528,87.930073,182.38,88C182.667592,88.105893,182.920256,88.289334,183.11,88.53C183.631526,88.934841,183.919658,89.570976,183.88,90.23C183.75923,90.640294,183.497068,90.994566,183.14,91.23C182.178653,91.896713,181.119275,92.409533,180,92.75C178.992192,93.149528,177.913695,93.340051,176.83,93.31C174.89,93.16,172.22,90.18,175.16,89.31C175.93,89.09,176.81,89.38,177.61,89.23C179,89,180.22,88.29,181.57,88Z" transform="matrix(1 0 0 1 -110.059998 -46.169998)" fill="rgb(91,110,99)" stroke="none" stroke-width="1.333333"/></g><g id="ehJBysYjnLA87"><path id="ehJBysYjnLA88" style="mix-blend-mode:multiply" d="M163,139.57C166.33,137.74,167.93,133.93,170.3,130.96C173.77,126.6,179.1,123.84,181.88,119.02C182.411193,118.275885,182.630135,117.353457,182.49,116.45C182.16,115.2,180.7,114.59,179.42,114.61C176.83,114.67,174.62,116.55,173.11,118.61C171.6,120.67,170.56,123.14,168.91,125.14C167.186874,127.0546,165.200337,128.714537,163.01,130.07C163.01,130.81,157.49,133.9,156.7,134.39C155.09,135.39,153.89,136.23,154.24,138.47C154.71,141.87,161,140.67,163,139.57Z" transform="matrix(1 0 0 1 -110.059998 -46.169998)" opacity="0.3" fill="rgb(159,160,160)" stroke="none" stroke-width="1.333333"/><path id="ehJBysYjnLA89" d="M179.84,78.12C179.179441,77.628246,178.383202,77.352356,177.56,77.33C170.41,77.09,171.91,85.94,175.76,89.01C176.6915,90.089976,178.170303,90.522368,179.536887,90.114336C180.903471,89.706303,181.903117,88.533901,182.09,87.12C182.91,84.44,182.29,79.93,179.84,78.12Z" transform="matrix(1 0 0 1 -110.059998 -46.169998)" fill="rgb(245,220,190)" stroke="none" stroke-width="1.333333"/><path id="ehJBysYjnLA90" d="M182.27,78.74C182.170253,78.403126,181.96305,78.108126,181.68,77.9C181.34,77.65,180.93,77.7,180.6,77.51C180.27,77.32,180.39,77.13,180.16,77.04C179.93,76.95,179.49,77.04,179.16,76.85C178.83,76.66,178.62,76.34,178.27,76.26C178.167194,76.245231,178.062806,76.245231,177.96,76.26C177.238855,76.20526,176.513582,76.262608,175.81,76.43C175.234612,76.685457,174.722498,77.064421,174.31,77.54C173.96,77.89,173.4,77.91,172.98,78.16C172.697975,78.325932,172.477027,78.578445,172.35,78.88C172.200816,79.17713,172.012472,79.45292,171.79,79.7C171.518576,80.059729,171.333786,80.477218,171.25,80.92C171.179221,81.146157,171.152072,81.383705,171.17,81.62C171.17,81.78,171.24,81.93,171.26,82.09C171.33,82.71,171.14,83.32,171.26,83.93C171.490927,84.680032,171.895162,85.365175,172.44,85.93C172.720793,86.283169,173.024799,86.617242,173.35,86.93C173.695598,87.236989,174.105668,87.462528,174.55,87.59C175.010315,87.797849,175.499002,87.93603,176,88C176.574836,88.064987,177.155164,88.064987,177.73,88C178.21629,87.976892,178.673329,87.760968,179,87.4C179.230655,87.120312,179.291874,86.737693,179.16,86.4C178.98564,86.097697,178.925331,85.742938,178.99,85.4C179.019599,85.24497,179.114374,85.110127,179.250216,85.029769C179.386058,84.949412,179.549876,84.931285,179.7,84.98C179.887332,85.051673,180.060125,85.156704,180.21,85.29C180.37,85.47,180.37,85.73,180.53,85.89C180.69,86.05,180.8,85.99,180.86,85.89C180.869778,85.837115,180.869778,85.782885,180.86,85.73C180.86,85.01,181.54,84.67,182.09,84.37C182.358823,84.245224,182.587422,84.047798,182.75,83.8C183.162697,82.94538,183.338806,81.995771,183.26,81.05C183.260435,80.503824,183.111757,79.967891,182.83,79.5C182.58,79.19,182.37,79.12,182.27,78.74Z" transform="matrix(1 0 0 1 -110.059998 -46.169998)" fill="rgb(41,37,38)" stroke="none" stroke-width="1.333333"/><path id="ehJBysYjnLA91" d="M180.32,117.64L180.44,117.56C180.700469,117.426536,180.903184,117.202483,181.01,116.93C181.053385,116.630205,180.970057,116.325877,180.78,116.09C179.7,114.39,177.28,116.27,175.78,116.4C175.374659,116.382008,174.9725,116.479081,174.62,116.68C174.428478,116.846637,174.283716,117.060333,174.2,117.3C174.025421,117.746888,174.025421,118.243112,174.2,118.69C174.512203,119.241544,175.118941,119.558613,175.75,119.5C177.32,119.57,179,118.51,180.32,117.64Z" transform="matrix(1 0 0 1 -110.059998 -46.169998)" fill="rgb(193,150,83)" stroke="none" stroke-width="1.333333"/><path id="ehJBysYjnLA92" d="M177.3,115.58C177.933579,114.050362,178.174224,112.386469,178,110.74C177.77,109.32,176.4,108.44,175.27,107.66C173.723367,106.513368,172.044694,105.556525,170.27,104.81C168.495633,104.055397,166.526634,103.887226,164.65,104.33C163.326663,104.654806,162.175872,105.469652,161.43,106.61C160.11,108.78,161.38,111.53,162.76,113.35C164.050623,115.062002,166.029431,116.119074,168.17,116.24C169.240781,116.321909,170.31775,116.254598,171.37,116.04C172.17,115.88,172.99,115.62,173.7,116.2C173.992532,116.47597,174.26023,116.77713,174.5,117.1C174.732758,117.425406,175.100541,117.627686,175.5,117.65C175.711087,117.629286,175.912084,117.54958,176.08,117.42C176.671374,116.951445,177.098591,116.307119,177.3,115.58Z" transform="matrix(1 0 0 1 -110.059998 -46.169998)" fill="rgb(114,78,57)" stroke="none" stroke-width="1.333333"/><path id="ehJBysYjnLA93" d="M163.8,131.81C162.5,132.54,161.1,133.32,159.86,131.95C159.223704,131.223972,159.025256,130.212647,159.34,129.3C159.794258,128.286773,160.53457,127.428289,161.47,126.83C162.22094,126.18364,163.027394,125.604733,163.88,125.1C164.71,124.66,165.62,124.36,166.44,123.88C167.169777,123.531954,167.791762,122.9929,168.24,122.32C168.522266,121.739772,168.609936,121.083999,168.49,120.45C167.91,116.8,163.94,114.8,163.25,111.06C163.139828,110.657401,163.139828,110.232599,163.25,109.83C163.538386,109.245508,164.050345,108.802051,164.67,108.6C167.27,107.44,172.05,107.6,173.53,110.51C174.92825,113.520439,175.787928,116.752693,176.07,120.06C176.172173,120.721662,176.192325,121.393403,176.13,122.06C176.076524,122.425924,175.982616,122.784786,175.85,123.13C175.23855,124.523909,174.183962,125.676925,172.85,126.41C170,128.38,166.84,130.09,163.8,131.81Z" transform="matrix(1 0 0 1 -110.059998 -46.169998)" fill="rgb(135,92,58)" stroke="none" stroke-width="1.333333"/><path id="ehJBysYjnLA94" d="M173.05,112.53C172.978516,112.564335,172.905053,112.594388,172.83,112.62C171.651355,112.964725,170.398645,112.964725,169.22,112.62C167.181643,112.175588,165.19934,111.504758,163.31,110.62C163.31,110.51,161.75,109.62,161.56,109.41C161.077894,108.922995,160.69721,108.345172,160.44,107.71C159.716305,105.932438,159.856626,103.919932,160.82,102.26C161.51,100.91,162.46,99.7,163.19,98.37C164.36,96.22,164.93,93.8,165.94,91.57C166.644332,89.708568,167.909222,88.111731,169.56,87C171.1,86.13,172.69,86.65,174.19,87.36C175.352527,87.900113,176.449624,88.57112,177.46,89.36C178.249607,89.984518,179.004092,90.652203,179.72,91.36C180.474706,91.978056,181.056864,92.780676,181.41,93.69C181.72,94.86,180.09,96.59,179.52,97.74C178.75151,99.37215,178.222721,101.106713,177.95,102.89C177.48,105.47,177.09,107.72,175.62,110C175.032947,111.079356,174.138431,111.959949,173.05,112.53Z" transform="matrix(1 0 0 1 -110.059998 -46.169998)" fill="rgb(24,121,114)" stroke="none" stroke-width="1.333333"/><path id="ehJBysYjnLA95" d="M161.71,132.12C161.714527,132.169898,161.714527,132.220102,161.71,132.27C161.53,132.96,160.99,134.09,161.21,134.82C161.43,135.55,162.1,135.39,162.65,135.82C162.916937,136.017239,163.076079,136.328122,163.08,136.66C163.086799,136.771095,163.062562,136.881891,163.01,136.98C162.958425,137.041539,162.901539,137.098425,162.84,137.15C161.288076,138.127053,159.291208,138.031203,157.84,136.91C157.671825,136.781932,157.526453,136.626417,157.41,136.45C157.29349,136.216026,157.225462,135.96092,157.21,135.7C157.08,134.52,157.21,133.31,157.14,132.15C157.14,131.32,157.14,129.98,157.96,129.51C158.522974,129.111512,159.235065,128.986713,159.9,129.17C161.47,129.66,162.06,130.65,161.71,132.12Z" transform="matrix(1 0 0 1 -110.059998 -46.169998)" fill="rgb(193,150,83)" stroke="none" stroke-width="1.333333"/></g><g id="ehJBysYjnLA96"><polygon id="ehJBysYjnLA97" points="139.28,0.8 130.56,0 130.56,22.55 139.28,23.35 139.28,0.8" fill="url(#ehJBysYjnLA97-fill)" stroke="none" stroke-width="1.333333"/><g id="ehJBysYjnLA98_tr" transform="translate(109.752676,41.921182) rotate(0)"><g id="ehJBysYjnLA98" transform="translate(-109.752676,-41.921182)"><g id="ehJBysYjnLA99"><path id="ehJBysYjnLA100" d="M238.48,76.93C238.263818,76.358677,237.710693,75.98592,237.1,76C236.811752,76.043309,236.539606,76.160435,236.31,76.34C235.14,77.21,234.69,78.82,233.85,79.97C233.622721,80.273925,233.519093,80.652703,233.56,81.03C233.91,82.4,236.36,81.63,237.01,81.03C237.482486,80.576663,237.868748,80.041316,238.15,79.45C238.530787,78.808877,238.692273,78.061126,238.61,77.32C238.587626,77.183928,238.543744,77.052282,238.48,76.93Z" transform="matrix(1 0 0 1 -110.059998 -46.169998)" fill="rgb(240,205,164)" stroke="none" stroke-width="1.333333"/><path id="ehJBysYjnLA101" d="M232.59,80.91L233.67,80.31C233.834406,80.205106,234.017922,80.133739,234.21,80.1C234.405635,80.079792,234.593164,80.183532,234.68,80.36C234.718146,80.531564,234.677819,80.711203,234.57,80.85C234.1289,81.524234,233.549407,82.09691,232.87,82.53Q230.62,84.19,228.31,85.78L225.93,87.38C225.34,87.77,224.6,88.49,223.86,88.55C223.12,88.61,222.68,87.83,222.7,87.2C222.7,86.3,223.7,85.98,224.36,85.57C225.26,85.01,226.17,84.47,227.09,83.94C228.9,82.89,230.75,81.92,232.59,80.91Z" transform="matrix(1 0 0 1 -110.059998 -46.169998)" fill="rgb(240,205,164)" stroke="none" stroke-width="1.333333"/><path id="ehJBysYjnLA102" d="M216.05,90.69C217.766268,90.936477,219.506939,90.96336,221.23,90.77C222.45,90.64,224.4,90.77,224.78,89.24C224.860894,88.722693,224.762071,88.193287,224.5,87.74C224.313027,87.356099,224.106077,86.982254,223.88,86.62C223.706845,86.309255,223.476063,86.034353,223.2,85.81C222.65,85.41,221.98,85.62,221.35,85.68C220.644218,85.73,219.935782,85.73,219.23,85.68C217.84,85.61,216.47,85.41,215.08,85.33C214.567725,85.233609,214.038323,85.292819,213.56,85.5C213.362193,85.677919,213.222766,85.911459,213.16,86.17C212.968622,86.763311,212.851069,87.377941,212.81,88C212.738169,88.570037,212.828273,89.148781,213.07,89.67C213.55,90.54,214.35,90.35,215.16,90.51Z" transform="matrix(1 0 0 1 -110.059998 -46.169998)" fill="rgb(219,185,85)" stroke="none" stroke-width="1.333333"/></g><g id="ehJBysYjnLA103_to" transform="translate(125.380196,34.466862)"><g id="ehJBysYjnLA103_tr" transform="rotate(0)"><g id="ehJBysYjnLA103" transform="translate(-125.380196,-34.466862)"><path id="ehJBysYjnLA104" d="M242.42,72.26C242.31392,72.0595,242.106814,71.932936,241.88,71.93C241.633888,71.983013,241.41435,72.121109,241.26,72.32L232.86,80.92L223.86,90.02L222.43,91.49C222.2,91.73,221.95,91.92,221.73,92.16L220.85,93.1C220.66,93.31,220.56,94.1,221,94.19C221.171707,94.210242,221.342723,94.14704,221.46,94.02C222.725125,92.953498,223.908446,91.793575,225,90.55C226.16,89.36,239.63,75.71,242.19,73.04C242.367727,72.89316,242.46439,72.670091,242.45,72.44C242.450093,72.378748,242.439953,72.317911,242.42,72.26Z" transform="matrix(1 0 0 1 -110.059998 -46.169998)" fill="rgb(163,138,119)" stroke="none" stroke-width="1.333333"/><path id="ehJBysYjnLA105" d="M242.42,67.08L241.32,67.08C240.88,67.08,240.45,67.08,240.02,67.08C239.661214,67.086378,239.322473,67.246643,239.09,67.52C238.576302,68.18963,238.433524,69.072597,238.71,69.87C239.09,71.02,240.4,70.94,241.15,71.07C241.53,71.14,241.91,71.17,242.29,71.22C243.38,71.37,244.46,71.49,245.54,71.57C246.08,71.57,246.62,71.65,247.16,71.68C247.650395,71.746255,248.14532,71.773007,248.64,71.76C249.146727,71.64642,249.585836,71.332425,249.857159,70.889642C250.128481,70.446859,250.208875,69.913055,250.08,69.41C249.835441,68.576326,249.150873,67.945601,248.3,67.77C247.38,67.58,246.45,67.43,245.53,67.32L244,67.19Z" transform="matrix(1 0 0 1 -110.059998 -46.169998)" fill="rgb(249,224,143)" stroke="none" stroke-width="1.333333"/><path id="ehJBysYjnLA106" d="M248.38,71.77C248.768154,71.834036,249.165608,71.736479,249.48,71.5C249.812683,71.254585,250.049569,70.901024,250.15,70.5C250.231829,70.091239,250.193626,69.667532,250.04,69.28C249.834128,68.711383,249.438588,68.231086,248.92,67.92C248.756496,67.811345,248.572884,67.73654,248.38,67.7C247.69,67.6,247.17,68.25,246.96,68.99C246.844442,69.442743,246.844442,69.917257,246.96,70.37C247.150347,71.056183,247.691186,71.589404,248.38,71.77Z" transform="matrix(1 0 0 1 -110.059998 -46.169998)" fill="rgb(252,208,82)" stroke="none" stroke-width="1.333333"/><path id="ehJBysYjnLA107" d="M248.44,70.8C248.634769,70.830605,248.833568,70.780002,248.99,70.66C249.160202,70.531336,249.280393,70.347515,249.33,70.14C249.36933,69.935139,249.348491,69.723272,249.27,69.53C249.170946,69.240935,248.972496,68.996417,248.71,68.84C248.625857,68.79034,248.53489,68.75328,248.44,68.73C248.09,68.73,247.83,69.01,247.72,69.38C247.659768,69.606057,247.659768,69.843943,247.72,70.07C247.8075,70.42722,248.084021,70.707582,248.44,70.8Z" transform="matrix(1 0 0 1 -110.059998 -46.169998)" fill="rgb(219,129,0)" stroke="none" stroke-width="1.333333"/><path id="ehJBysYjnLA108" d="M241,72.53C241.445589,71.938902,242.203396,71.674459,242.92,71.86L243.92,71.99C244.607863,72.213931,245.342729,72.251882,246.05,72.1C246.389262,71.919521,246.672794,71.64982,246.87,71.32C247.12,70.96,247.35,70.58,247.62,70.23C247.89,69.88,247.97,69.67,248.27,69.63C248.414431,69.602808,248.560889,69.666141,248.64,69.79C248.679805,69.860086,248.700496,69.939401,248.7,70.02C248.666042,70.466971,248.482913,70.889576,248.18,71.22C247.907847,71.599519,247.610511,71.960331,247.29,72.3C246.961723,72.736249,246.478462,73.029786,245.94,73.12C245.484818,73.134311,245.029326,73.104168,244.58,73.03C243.69,72.94,242.81,72.88,241.92,72.71C241.63,72.66,241.32,72.58,241,72.53Z" transform="matrix(1 0 0 1 -110.059998 -46.169998)" fill="rgb(163,138,119)" stroke="none" stroke-width="1.333333"/></g></g></g><g id="ehJBysYjnLA109"><path id="ehJBysYjnLA110" d="M235.1,80.55C234.949547,80.738935,234.774688,80.907069,234.58,81.05C234.20081,81.342129,233.681919,81.373817,233.27,81.13C233.397643,80.77111,233.452049,80.390274,233.43,80.01C233.428796,79.95439,233.40748,79.9011,233.37,79.86C233.322116,79.839428,233.267884,79.839428,233.22,79.86C232.46,79.99,232.12,80.12,231.83,80.86C231.420003,81.75618,231.515118,82.802445,232.08,83.61C233.08,84.61,234.66,83.4,235.47,82.73C235.79,82.45,237.03,79.88,236.35,79.63C236.04,79.51,235.72,79.78,235.52,80.04C235.32,80.3,235.24,80.38,235.1,80.55Z" transform="matrix(1 0 0 1 -110.059998 -46.169998)" fill="rgb(240,205,164)" stroke="none" stroke-width="1.333333"/><path id="ehJBysYjnLA111" d="M233.38,81.37C234.38,81.67,233.49,85.37,233.38,85.91C232.993977,87.521056,232.454859,89.09153,231.77,90.6C230.77,92.75,229.43,94.74,226.77,93.35C226.25,93.08,225.61,92.54,225.64,91.91C225.67,91.28,226.35,90.19,226.9,90.08C226.988907,90.060165,227.081093,90.060165,227.17,90.08C227.42,90.15,227.65,90.28,227.9,90.35C228.091964,90.451182,228.316499,90.471108,228.523282,90.405314C228.730064,90.339519,228.9018,90.193506,229,90C229.786858,88.765231,230.456443,87.459539,231,86.1C231.28,85.45,231.53,84.78,231.76,84.1C231.99,83.42,231.89,81.91,232.81,81.45C232.981024,81.346392,233.187062,81.317475,233.38,81.37Z" transform="matrix(1 0 0 1 -110.059998 -46.169998)" fill="rgb(240,205,164)" stroke="none" stroke-width="1.333333"/><path id="ehJBysYjnLA112" d="M222.26,90.91C222.740104,91.631378,223.293003,92.301559,223.91,92.91C224.288297,93.39301,224.857291,93.688449,225.47,93.72C225.981414,93.603796,226.426722,93.291363,226.71,92.85C227.505258,91.974888,228.087116,90.927542,228.41,89.79C228.55,89.17,227.53,88.68,227.12,88.26C226.53,87.68,225.96,87.07,225.36,86.49C224.36,85.49,222.36,83.49,220.76,83.92C219.29,84.3,220.03,86.61,220.45,87.56C220.956896,88.726143,221.562429,89.846879,222.26,90.91Z" transform="matrix(1 0 0 1 -110.059998 -46.169998)" fill="rgb(252,208,82)" stroke="none" stroke-width="1.333333"/></g></g></g></g><g id="ehJBysYjnLA113"><path id="ehJBysYjnLA114" style="mix-blend-mode:multiply" d="M226.36,142.08C228.36,141.24,230.36,138.69,231.36,136.74C232.45,134.52,231.01,132.33,229.12,130.96C227.313568,129.774085,225.262475,129.011763,223.12,128.73C220.156542,128.10337,217.099112,128.062605,214.12,128.61C210.12,129.47,202.45,134.21,206.82,138.97C208.000236,140.010747,209.467987,140.669666,211.03,140.86L215.41,141.86C218.41,142.54,221.59,143.22,224.65,142.64C225.236761,142.509043,225.80944,142.321499,226.36,142.08Z" transform="matrix(1 0 0 1 -110.059998 -46.169998)" opacity="0.3" fill="rgb(159,160,160)" stroke="none" stroke-width="1.333333"/><path id="ehJBysYjnLA115" d="M227,134.61C227.272028,134.515509,227.567972,134.515509,227.84,134.61C228.083004,134.755173,228.283145,134.962215,228.42,135.21C228.774317,135.619007,228.908492,136.174341,228.78,136.7C228.705191,136.847482,228.599454,136.977096,228.47,137.08C226.563427,138.86469,224.006828,139.786801,221.4,139.63C221.114342,139.608632,220.834039,139.541089,220.57,139.43C219.81,139.08,219.57,137.32,220.09,136.66C220.519774,136.279441,221.04537,136.023558,221.61,135.92C222.01,135.79,222.43,135.76,222.84,135.67C224.27,135.34,225.66,135,227,134.61Z" transform="matrix(1 0 0 1 -110.059998 -46.169998)" fill="rgb(255,253,227)" stroke="none" stroke-width="1.333333"/><path id="ehJBysYjnLA116" d="M216.16,131.92C216.475165,131.778914,216.814865,131.700783,217.16,131.69C217.577209,131.685047,217.962586,131.912419,218.16,132.28C218.351861,132.701922,218.325731,133.190927,218.09,133.59C218.006242,133.804139,217.905939,134.011432,217.79,134.21C217.492495,134.607707,217.157638,134.97605,216.79,135.31C216.109431,135.954586,215.361842,136.524496,214.56,137.01C213.968114,137.542025,213.214221,137.859083,212.42,137.91C211.982854,137.875397,211.585296,137.643488,211.34,137.28C211.117682,136.925418,211.052496,136.494471,211.16,136.09C211.157407,135.745457,211.22903,135.404395,211.37,135.09C211.795116,134.55013,212.330317,134.10697,212.94,133.79C213.53556,133.337295,214.163959,132.929504,214.82,132.57C215.25,132.38,215.7,132.11,216.16,131.92Z" transform="matrix(1 0 0 1 -110.059998 -46.169998)" fill="rgb(255,253,227)" stroke="none" stroke-width="1.333333"/><path id="ehJBysYjnLA117" d="M223.68,134.19C223.6,134.86,223.51,135.53,223.41,136.19C223.36228,136.63974,223.063745,137.023555,222.639583,137.180495C222.215422,137.337435,221.73896,137.240368,221.41,136.93C221.261762,136.727264,221.168725,136.489502,221.14,136.24C220.92,135.04,220.71,133.83,220.58,132.61C220.238779,129.873986,220.101734,127.116364,220.17,124.36C220.17,123.36,220.4,121.95,221.29,121.47C221.899744,121.040243,222.666612,120.897825,223.39,121.08C224.7,121.7,224.39,124.51,224.34,125.71C224.23,128.54,224,131.38,223.68,134.19Z" transform="matrix(1 0 0 1 -110.059998 -46.169998)" fill="rgb(240,205,164)" stroke="none" stroke-width="1.333333"/><path id="ehJBysYjnLA118" d="M214,132.84C213.93,133.45,213.84,134.07,213.76,134.68C213.712591,135.069855,213.453519,135.401548,213.086753,135.541967C212.719987,135.682386,212.305643,135.608515,212.01,135.35C211.871932,135.166977,211.788701,134.948496,211.77,134.72C211.57,133.61,211.37,132.5,211.26,131.38C210.94566,128.869546,210.815312,126.339466,210.87,123.81C210.87,122.91,211.07,121.59,211.87,121.15C212.413445,120.759583,213.102466,120.631308,213.75,120.8C214.92,121.37,214.66,123.95,214.6,125.05C214.52,127.66,214.34,130.26,214,132.84Z" transform="matrix(1 0 0 1 -110.059998 -46.169998)" fill="rgb(240,205,164)" stroke="none" stroke-width="1.333333"/><path id="ehJBysYjnLA119" d="M215.85,127.32C215.9,124.61,215.85,121.9,215.85,119.17C215.85,118.33,215.7,112.8,216.57,112.33C218.52,111.27,218.57,119.91,218.63,120.68Q218.99,124.86,219,129.07C219,131.07,220.48,131.84,222.38,131.67C223.43385,131.56012,224.4235,131.110917,225.2,130.39C226.2,129.5,225.55,127.86,225.42,126.7C225.24,125.13,225.06,123.56,224.96,121.98C224.77,118.98,224.6,113.04,224.26,109.98C224.15,108.98,224.26,107.6,223.61,106.77C223.13,106.18,221.93,106.24,221.25,106.24C219.25,106.24,217.12,106.85,215.11,106.24C214.243908,105.874917,213.342472,105.60013,212.42,105.42C212.07356,105.368682,211.720054,105.439383,211.42,105.62C211.055638,105.954645,210.833695,106.41643,210.8,106.91C210.8,106.99,210.8,107.07,210.75,107.15C209.514822,114.363508,209.062198,121.689306,209.4,129C209.405978,129.239658,209.453342,129.476478,209.54,129.7C209.61255,129.840739,209.707069,129.969015,209.82,130.08C210.972201,131.167347,212.696488,131.381871,214.08,130.61C214.551889,130.396589,214.966535,130.074467,215.29,129.67C215.714406,128.963104,215.909995,128.142328,215.85,127.32Z" transform="matrix(1 0 0 1 -110.059998 -46.169998)" fill="rgb(95,126,79)" stroke="none" stroke-width="1.333333"/><path id="ehJBysYjnLA120" d="M214.1,85.35C215.892972,85.574941,217.707028,85.574941,219.5,85.35C219.924302,85.317181,220.336766,85.194465,220.71,84.99C220.766187,84.952774,220.811138,84.900907,220.84,84.84C220.859887,84.778228,220.859887,84.711772,220.84,84.65C220.667011,84.224329,220.352729,83.871203,219.95,83.65C218.984841,83.05602,217.8617,82.770003,216.73,82.83C215.499164,83.010205,214.337146,83.510183,213.36,84.28C213.15,84.42,212.92,84.61,212.95,84.85C212.98,85.09,213.33,85.25,213.62,85.29Z" transform="matrix(1 0 0 1 -110.059998 -46.169998)" fill="rgb(240,205,164)" stroke="none" stroke-width="1.333333"/><path id="ehJBysYjnLA121" d="M210,91C210.112064,89.742416,210.377363,88.503234,210.79,87.31C211.26,85.97,211.99,82.91,214.03,83.51C214.181069,83.564448,214.322759,83.64204,214.45,83.74C216.00108,84.802531,218.010952,84.925506,219.68,84.06C219.93,83.91,220.13,83.63,220.43,83.65C220.9884,83.645501,221.542236,83.750832,222.06,83.96C223.53,84.7,223.5,86.76,223.64,88.18C223.789923,90.062733,223.829991,91.952604,223.76,93.84C223.609658,96.596662,223.65979,99.360604,223.91,102.11C224.113611,103.350343,224.384004,104.578796,224.72,105.79C224.93,106.73,224.96,107.7,223.92,108.1C221.62575,108.99661,219.13975,109.289283,216.7,108.95C215.533594,108.801153,214.382508,108.55019,213.26,108.2C212,107.8,209.95,107.41,209.67,105.86C209.600738,105.075135,209.682201,104.284266,209.91,103.53C210.265131,100.768035,210.265131,97.971965,209.91,95.21C209.829698,93.806475,209.859791,92.398811,210,91Z" transform="matrix(1 0 0 1 -110.059998 -46.169998)" fill="rgb(252,208,82)" stroke="none" stroke-width="1.333333"/><path id="ehJBysYjnLA122" d="M217.56,71.7C217.084232,71.621903,216.601099,71.598417,216.12,71.63C214.966851,71.70782,213.860005,72.113779,212.93,72.8C212.057804,73.432246,211.432181,74.347705,211.16,75.39C211.048128,76.358645,211.221925,77.338863,211.66,78.21C212.386325,80.104379,213.728131,81.699754,215.47,82.74C216.554641,83.63332,218.063273,83.805059,219.320947,83.178383C220.578621,82.551707,221.35001,81.243875,221.29,79.84C221.355018,79.271854,221.355018,78.698146,221.29,78.13C221.141778,76.059907,220.323933,74.09427,218.96,72.53C218.681814,72.156826,218.288043,71.886109,217.84,71.76Z" transform="matrix(1 0 0 1 -110.059998 -46.169998)" fill="rgb(240,205,164)" stroke="none" stroke-width="1.333333"/><path id="ehJBysYjnLA123" d="M210.22,81.54Q210.28,84.92,210.03,88.28C209.95,89.43,209.8,90.57,209.71,91.71C209.731207,92.764059,209.457595,93.803092,208.92,94.71C208.72,94.98,209.92,95.93,210.09,96.02C210.49,96.19,212.09,96.25,212.09,95.54C212.115191,96.337633,212.633628,97.035529,213.39,97.29C213.783221,97.447072,214.209788,97.502113,214.63,97.45C215.26,97.35,215.23,97.16,215.81,97.45C216.651514,97.925264,217.644958,98.054376,218.58,97.81C218.503639,97.266186,218.390039,96.728255,218.24,96.2C218.1,95.5,217.92,94.81,217.73,94.12C217.975389,95.613258,218.967663,96.877181,220.36,97.47C220.955833,97.706246,221.627309,97.654594,222.18,97.33C222.38,97.22,223.63,96.13,223.18,95.91C222.597736,95.584253,222.114091,95.107517,221.78,94.53C220.4,92.53,220.04,90.36,219.41,88.04C218.6732,85.643667,218.438312,83.121172,218.72,80.63C218.8,80.08,218.78,79.4,219.45,79.35C219.676449,79.367662,219.902164,79.307706,220.09,79.18C220.200978,79.056661,220.27391,78.903853,220.3,78.74C220.324276,78.294519,220.440012,77.858807,220.64,77.46C220.99,76.97,221.7,77.22,221.64,76.46C221.613154,75.138706,221.144966,73.864388,220.31,72.84C219.549259,72.028771,218.509544,71.535711,217.4,71.46C215.829478,71.262609,214.239107,71.616024,212.9,72.46C210.36,74.23,210.13,77.36,210.23,80.24Z" transform="matrix(1 0 0 1 -110.059998 -46.169998)" fill="rgb(41,37,38)" stroke="none" stroke-width="1.333333"/><path id="ehJBysYjnLA124" style="mix-blend-mode:multiply" d="M234.88,146.31C234.194608,146.2016,233.534177,145.971296,232.93,145.63C232.47,145.35,231.93,145.07,232.01,144.45C232.024827,144.242509,232.093785,144.04253,232.21,143.87C232.45,143.53,233.01,143.42,233.39,143.31C234.313609,143.097119,235.253675,142.963301,236.2,142.91C237.61,142.73,239.1,142.77,240.48,142.5C241.171109,142.363541,241.876893,142.316489,242.58,142.36C243.231242,142.359915,243.876378,142.485547,244.48,142.73C244.977261,143.076518,245.154289,143.729836,244.9,144.28C244.632294,144.8084,244.190919,145.228589,243.65,145.47C242.621521,146.011214,241.489967,146.328186,240.33,146.4C239.24,146.46,238.18,146.56,237.06,146.52C236.329078,146.505057,235.600334,146.434857,234.88,146.31Z" transform="matrix(1 0 0 1 -110.059998 -46.169998)" opacity="0.3" fill="rgb(159,160,160)" stroke="none" stroke-width="1.333333"/><path id="ehJBysYjnLA125" d="M232.66,141.14C232.699498,142.262264,233.151714,143.33049,233.93,144.14C235.66,145.71,238.82,145.62,240.93,145.06C241.566786,144.919417,242.16447,144.63936,242.68,144.24C243.74,143.35,243.68,141.53,243.74,140.24C243.88,137.37,243.96,134.52,243.98,131.65C243.99924,131.492972,243.963936,131.334101,243.88,131.2C243.732924,131.059857,243.532218,130.990522,243.33,131.01C241.493265,130.854991,239.646735,130.854991,237.81,131.01C235.851827,131.369634,233.857273,131.490516,231.87,131.37C229.882727,131.249484,231.77,131.37,231.75,131.37C231.729778,131.400266,231.729778,131.439734,231.75,131.47C231.85,133.12,231.95,134.76,232.1,136.4C232.25,138.04,232.41,139.59,232.66,141.14Z" transform="matrix(1 0 0 1 -110.059998 -46.169998)" fill="rgb(200,201,202)" stroke="none" stroke-width="1.333333"/><path id="ehJBysYjnLA126" d="M240.73,143C240.716599,143.176793,240.778315,143.35105,240.9,143.48C240.950219,143.528769,241.022281,143.547733,241.09,143.53C241.2,143.53,241.22,143.36,241.22,143.24C241.243205,142.516297,241.226513,141.791866,241.17,141.07C241.17,140.84,241.17,140.21,240.86,140.07C240.55,139.93,240.63,140.34,240.62,140.51C240.6,141.38,240.68,142.21,240.73,143Z" transform="matrix(1 0 0 1 -110.059998 -46.169998)" fill="rgb(249,224,143)" stroke="none" stroke-width="1.333333"/><path id="ehJBysYjnLA127" d="M241.59,142.12L241.59,142.53C241.59,142.58,241.59,142.65,241.59,142.68C241.608983,142.701525,241.6363,142.713856,241.665,142.713856C241.6937,142.713856,241.721017,142.701525,241.74,142.68C241.77922,142.635126,241.803662,142.579259,241.81,142.52C241.824968,142.397121,241.824968,142.272879,241.81,142.15C241.820684,142.117523,241.820684,142.082477,241.81,142.05C241.787484,142.027405,241.756898,142.014705,241.725,142.014705C241.693102,142.014705,241.662516,142.027405,241.64,142.05C241.584641,142.085496,241.542478,142.138199,241.52,142.2" transform="matrix(1 0 0 1 -110.059998 -46.169998)" fill="rgb(249,224,143)" stroke="none" stroke-width="1.333333"/><path id="ehJBysYjnLA128" d="M241.94,133.6L241.59,133.71C239.615649,134.21774,237.564012,134.353386,235.54,134.11C234.3,134.01,232.54,133.63,231.86,132.51C231.381825,131.763997,231.596349,130.771824,232.34,130.29C233.602564,129.359657,235.122028,128.84269,236.69,128.81C238.350734,128.609752,240.034844,128.749244,241.64,129.22C242.339655,129.40019,242.974075,129.774602,243.47,130.3C243.814713,130.668133,243.983846,131.167086,243.934043,131.668951C243.884239,132.170816,243.620342,132.626796,243.21,132.92C242.831308,133.221658,242.400998,133.452061,241.94,133.6Z" transform="matrix(1 0 0 1 -110.059998 -46.169998)" fill="rgb(238,238,239)" stroke="none" stroke-width="1.333333"/><path id="ehJBysYjnLA129" d="M242.29,134.17L241.91,134.31C239.784418,134.944778,237.547233,135.115295,235.35,134.81C234.01,134.68,232.13,134.21,231.35,132.81C230.828053,131.867737,231.05068,130.687398,231.88,130C233.185479,128.849068,234.850587,128.187974,236.59,128.13C238.396052,127.881883,240.235109,128.059967,241.96,128.65C242.74952,128.894629,243.446668,129.372175,243.96,130.02C244.740555,131.030354,244.614356,132.470771,243.67,133.33C243.265512,133.692403,242.797699,133.977159,242.29,134.17Z" transform="matrix(1 0 0 1 -110.059998 -46.169998)" fill="rgb(238,238,239)" stroke="none" stroke-width="1.333333"/><path id="ehJBysYjnLA130" d="M241.94,133.6L241.59,133.71C239.615649,134.21774,237.564012,134.353386,235.54,134.11C234.3,134.01,232.54,133.63,231.86,132.51C231.381825,131.763997,231.596349,130.771824,232.34,130.29C233.602564,129.359657,235.122028,128.84269,236.69,128.81C238.350734,128.609752,240.034844,128.749244,241.64,129.22C242.339655,129.40019,242.974075,129.774602,243.47,130.3C243.814713,130.668133,243.983846,131.167086,243.934043,131.668951C243.884239,132.170816,243.620342,132.626796,243.21,132.92C242.831308,133.221658,242.400998,133.452061,241.94,133.6Z" transform="matrix(1 0 0 1 -110.059998 -46.169998)" fill="rgb(200,201,202)" stroke="none" stroke-width="1.333333"/><path id="ehJBysYjnLA131" d="M235.51,134.11C237.537469,134.348175,239.591427,134.2126,241.57,133.71L241.91,133.6C242.370998,133.452061,242.801308,133.221658,243.18,132.92C243.309681,132.805969,243.426994,132.6786,243.53,132.54L243.45,132.42C242.949729,131.897945,242.317305,131.521256,241.62,131.33C239.997914,130.858211,238.297275,130.718759,236.62,130.92C235.052257,130.953991,233.533175,131.470828,232.27,132.4C232.153883,132.497251,232.049811,132.608037,231.96,132.73C232.928345,133.619004,234.195459,134.111573,235.51,134.11Z" transform="matrix(1 0 0 1 -110.059998 -46.169998)" fill="rgb(249,224,143)" stroke="none" stroke-width="1.333333"/><path id="ehJBysYjnLA132" d="M233.61,129.14L233.68,129.23C233.753944,129.386646,233.794795,129.556857,233.8,129.73C233.8,129.89,233.8,130.04,233.86,130.2C233.8592,130.318221,233.914943,130.429707,234.01,130.5C234.053649,130.539805,234.11094,130.561289,234.17,130.56C234.225097,130.545666,234.272013,130.509577,234.3,130.46C234.36,130.37,234.36,130.26,234.45,130.18C234.510002,130.134858,234.586093,130.116741,234.66,130.13L234.72,130.13C234.75563,130.145019,234.786673,130.169163,234.81,130.2C234.877639,130.2951,234.922153,130.404672,234.94,130.52C234.94,130.68,234.94,130.83,235,130.98C235.06,131.13,235.2,131.39,235.41,131.39C235.49111,131.39511,235.571722,131.374081,235.64,131.33C235.719483,131.28519,235.78519,131.219483,235.83,131.14C235.93,130.94,235.83,130.69,236.07,130.57C236.162392,130.529343,236.267608,130.529343,236.36,130.57C236.53,130.64,236.74,130.69,236.85,130.49C236.880486,130.426939,236.900739,130.359428,236.91,130.29C236.944761,130.119136,236.994967,129.951782,237.06,129.79C237.089314,129.718275,237.151452,129.665114,237.22685,129.647257C237.302249,129.629399,237.38163,129.649042,237.44,129.7C237.480145,129.765203,237.51047,129.835962,237.53,129.91C237.543907,129.984032,237.582723,130.051077,237.64,130.1C237.8,130.2,237.95,130,238,129.88C238.050959,129.784506,238.078386,129.678228,238.08,129.57C238.091981,129.298105,238.06845,129.025808,238.01,128.76C237.983866,128.519266,237.878313,128.294088,237.71,128.12C237.470836,127.972975,237.188284,127.912932,236.91,127.95C236.137571,127.952667,235.3696,128.067189,234.63,128.29C234.174623,128.402129,233.737086,128.577144,233.33,128.81C233.26,128.81,233.26,128.89,233.27,128.98C233.28,129.07,233.48,128.98,233.49,128.98C233.542903,129.022312,233.584194,129.077366,233.61,129.14Z" transform="matrix(1 0 0 1 -110.059998 -46.169998)" fill="rgb(249,224,143)" stroke="none" stroke-width="1.333333"/><path id="ehJBysYjnLA133" d="M246,132.35C245.655985,131.580201,245.265257,130.832141,244.83,130.11C244.61,129.75,244.38,129.4,244.14,129.05C243.9,128.7,243.75,128.42,243.42,128.46C243.106062,128.472514,242.805964,128.592553,242.57,128.8C242.334036,129.007447,242.57,128.8,242.62,128.8C242.811399,128.900856,243.023698,128.955643,243.24,128.96C243.47,128.96,243.53,129.07,243.72,129.16C243.975287,129.409165,244.1911,129.695791,244.36,130.01L245.13,131.35C245.466671,131.836446,245.685761,132.394439,245.77,132.98C245.803457,133.689563,245.607059,134.390982,245.21,134.98C244.99,135.28,244.76,135.53,244.51,135.84C244.594623,135.945806,244.704732,136.028388,244.83,136.08C245.250814,135.613495,245.616553,135.100119,245.92,134.55C246.283993,133.868104,246.313505,133.056532,246,132.35Z" transform="matrix(1 0 0 1 -110.059998 -46.169998)" fill="rgb(163,138,119)" stroke="none" stroke-width="1.333333"/><path id="ehJBysYjnLA134" d="M242.1,138.51C242.6,138.19,243.1,137.87,243.56,137.51C244.013549,137.171482,244.447577,136.807567,244.86,136.42C244.988416,136.329848,245.06926,136.186533,245.08,136.03C245.061831,135.948791,245.024066,135.873261,244.97,135.81C244.896032,135.687169,244.783527,135.592242,244.65,135.54C244.42558,135.529449,244.208519,135.621424,244.06,135.79C243.560345,136.192403,243.035986,136.563129,242.49,136.9C242.22,137.07,241.96,137.25,241.7,137.44C241.44,137.63,241.18,137.75,241.16,138C241.140105,138.078763,241.140105,138.161237,241.16,138.24C241.215525,138.3798,241.313442,138.498698,241.44,138.58C241.71,138.74,241.9,138.64,242.1,138.51Z" transform="matrix(1 0 0 1 -110.059998 -46.169998)" fill="rgb(24,127,196)" stroke="none" stroke-width="1.333333"/><path id="ehJBysYjnLA135" d="M241.55,138.05C241.47427,138.05,241.400584,138.074562,241.34,138.12C241.173888,138.234992,241.000155,138.338563,240.82,138.43C240.651163,138.513537,240.477525,138.586999,240.3,138.65C239.938481,138.794514,239.557799,138.885473,239.17,138.92C238.589802,139.005527,238.000198,139.005527,237.42,138.92C236.959168,138.865421,236.510106,138.737117,236.09,138.54C235.61,138.24,235.21,137.82,234.74,137.54C234.312578,137.185952,233.917672,136.794393,233.56,136.37C233.33,136.14,233.07,135.94,232.84,135.71C232.610787,135.499191,232.393768,135.275495,232.19,135.04C231.992991,134.857116,231.821455,134.648582,231.68,134.42C231.58,134.2,231.95,134.03,232.09,133.92C232.23,133.81,232.55,133.59,232.39,133.48C232.329135,133.454995,232.260865,133.454995,232.2,133.48L232.13,133.48C231.770051,133.601082,231.432277,133.780102,231.13,134.01C231.091495,134.029625,231.06526,134.067103,231.06,134.11C231.054322,134.136364,231.054322,134.163636,231.06,134.19C231.170571,134.37971,231.305,134.554466,231.46,134.71L232.34,135.71C232.91,136.33,233.51,136.94,234.1,137.55C234.543059,138.05084,235.058809,138.482317,235.63,138.83C237.059915,139.541957,238.7131,139.660556,240.23,139.16C240.753837,139.020077,241.243759,138.775116,241.67,138.44C241.74,138.38,241.67,138.25,241.67,138.19C241.656843,138.125751,241.611481,138.072829,241.55,138.05Z" transform="matrix(1 0 0 1 -110.059998 -46.169998)" fill="rgb(163,138,119)" stroke="none" stroke-width="1.333333"/></g></g></svg>